<svg xmlns="http://www.w3.org/2000/svg" width="2200" height="1944.8" enable-background="new 0 0 2000 2000" viewBox="-100 -88.4 2200 1944.8"><path fill="#0e1237" d="M0,209.7c46.8,66.6,91.7,134.1,108.3,212.8c22.2,105.1-9.4,218.1,25,319.8c46.4,137.2,199.3,215.6,250.5,351.1   c32.4,85.7,20.1,185.1,62.1,266.5c58.7,113.9,129.2,160.8,175.1,170c144.4,29,444.8,44.4,590.9,25.9   c99-12.5,207.2-49.6,250.5-139.5c33.6-69.8,19.2-153.9,45.1-226.9c46.4-130.7,204-187.8,274.1-307.5c90.9-155.3,8.5-363,80.5-527.9   c30.8-70.5,86.7-125.6,137.9-183.7V0H0V209.7z"/><path fill="#262e68" d="M697.4 1082.5c-17.4 7.5-36.3 18.8-39.1 37.5-4.7 31.1 35.8 47.1 67.1 50.5 236.1 25.5 474.8-15.8 711.8-1.2 24.7 1.5 50.2 4 74.3 9.7 5.1-12.3 11.1-23.9 17.9-35-12.2-4.7-23.9-10.8-34.6-18.7 19.6-10.7 40.8-16.5 62.8-19.5 20.4-23.8 44.2-45.4 68.9-66.6-201.4-.2-402.9-.4-604.3-.7C912.1 1038.6 798.5 1039.2 697.4 1082.5zM499.2 58.2c-13.4-2.5-27-6-38-14.1C447 33.6 440.3 17.4 439.5 0H0v209.7c17.9 25.5 35.5 51 51.3 77.3 62.6-12.6 124.8-28.4 186.7-43.4 332.8-80.4 673.4-138.9 1015.7-131.7 104.8 2.2 219.8 15.1 292.4 90.7 16.2 16.9 30.3 38.9 27.5 62.1-5.1 41.5-56.4 57.3-98.1 61-312.6 27.7-624.6-98.2-936.7-65.2-58.8 6.2-129.7 30.6-137.7 89.2-5.7 42.2 28 81.7 67.7 97.2 39.7 15.5 83.8 12.6 126.3 9.5 134.1-9.8 268.2-19.6 402.2-29.4 87.1-6.4 188.6-7 244.2 60.3 11.5 13.9 20.5 31.3 19.2 49.3-3.4 45.4-61.9 60.5-107.4 63-191.8 10.5-384.7 11.2-574.6 39.8C429 662 279.4 703 147 775.4c42.4 86.7 125.4 150.9 185 228.4 64.8-14.8 129.3-32.1 193.8-47.8 300.2-73.2 608.1-114.3 917-122.4 99.1-2.6 203.1-.6 290.2 46.8 11.9 6.5 23.9 14.6 34 24.1 5.2-7.3 10.1-14.7 14.7-22.5 18.7-32 30.1-66.3 37-101.9-26.6-12.2-57.3-17.6-86.7-21.1-344-41.4-689.3 65.8-1035.7 58.9-14.9-.3-30.7-1.1-43-9.5-12.3-8.4-18.5-27.3-8.8-38.5 4.9-5.7 12.6-8.1 19.8-10.1 217.7-61.4 456-33.2 666.9-114.7 51.1-19.7 107.4-58.7 102.1-113.2-4.7-48.2-55.2-76.9-100.5-93.9-221.1-83.1-454.8-64.9-686.3-61-36.7.6-88.7-18-76.8-52.7 5.8-16.9 25.3-24.4 42.6-28.8 280.2-71.7 564.3 93.8 853.2 107.8 74.5 3.6 155.2-5.3 211-54.7 62.4-55.2 77.5-152.4 47.3-230.1-18.4-47.1-51-87.1-91-118.3H849.4C734 40.1 617.3 80.3 499.2 58.2zM621 1530c141.7-10.3 321.1-41.3 462.8-51.6 120.9-8.8 242.3-17.7 362.3-34.5 6.2-8.6 11.7-17.7 16.4-27.5 19.2-39.8 22.7-84.2 27-128.6-345.1 51.9-716.4-37.6-1039.5 79.7C492.5 1442.9 534.7 1504.9 621 1530z"/><circle cx="1178.6" cy="792.3" r="89.7" fill="#33c3df"/><path fill="#2d92a0" d="M1178.6,702.6c-49.4,0-89.4,39.9-89.6,89.2c9.3,6.7,22,9.7,27.4,19.7c4.3,8,2.6,18.5,8.3,25.6    c3.3,4.2,8.6,6.3,12,10.5c5.4,6.6,4.8,16.9,10.9,22.9c5.1-5,8.4-11.6,9.8-18.6c0.7-3.5,0.9-7.1,2.3-10.4c1.7-4,5.1-7.3,5.9-11.6    c1.1-6.2-3.5-11.8-8.1-16c-6-5.5-12.7-10.3-19.8-14.4c-2.2-1.3-4.6-2.5-6.3-4.5c-1.7-1.9-2.6-4.8-1.6-7.1c0.6-1.3,1.8-2.6,1.6-4    c-0.3-1.6-2.1-2.4-3.5-3.3c-4.5-2.9-5.2-9.6-2.7-14.3c2.5-4.7,7.3-7.8,12.1-10.1c4.8-2.3,10-4,14.4-7c4.4-3.1,8-7.9,7.7-13.3    c-0.2-3.9-2.3-7.5-2.3-11.3c0-3.9,4.1-8.1,7.3-6c3.2,2.2,1.6,8.2,5,10.1c1.7,0.9,3.8,0.3,5.6-0.4c4.2-1.5,8.7-3.4,10.5-7.4    c0.5-1.1,0.7-2.3,1.4-3.4c0.8-1.3,2.2-2.2,3.3-3.3c2.4-2.6,2.9-6.3,3-9.8c0-0.2,0-0.4,0-0.6    C1188.4,703.1,1183.5,702.6,1178.6,702.6z"/><path fill="#2d92a0" d="M1223.5,714.8c-5,0.6-10.2,1.1-14.1,4.1c-3.3,2.5-5.1,6.5-8.3,9.1c-3.7,3-9,4-12.2,7.5    c-0.7,0.8-1.3,1.7-1.1,2.7c0.2,1.1,1.1,1.8,1.8,2.6c2.4,2.9,1.5,7.3-0.7,10.4c-2.2,3-5.3,5.2-7.8,8c-3.3,3.8-5.3,8.6-7.1,13.2    c-1.8,4.6-3.7,9.5-3.3,14.5c0.4,5,3.9,10.1,8.8,10.7c4.1,0.5,9-1.9,11.9,1.1c0.9,0.9,1.3,2.1,1.7,3.2c1.5,4.8,2.1,9.9,1.6,14.9    c-0.2,2.5-0.6,5,0,7.4c1.1,4.2,5.1,7,7.1,10.9c2.6,5.2,1.3,11.4,1.9,17.1c0.1,0.8,0.3,1.7,1,2c0.6,0.3,1.3-0.1,1.9-0.4    c6.5-3.5,12.5-7.9,17.8-13c1.8-1.7,3.5-3.5,4.5-5.6c2.9-5.8,0.6-12.7,1.3-19.2c1.2-10.9,10.6-18.8,19.7-24.9    c5.8-3.9,12.1-7.9,16.9-12.9C1262.7,751.1,1246.4,728.1,1223.5,714.8z"/><path fill="#2d92a0" d="M1101.4,812c-4.3-2-8.1-4.6-11.6-7.7c5.9,43.8,43.4,77.6,88.8,77.6c40,0,74-26.3,85.5-62.5    c-5,3.1-10.2,5.6-15.9,7.1c-11.4,3.1-23.7,1.9-35.1,5.1c-7.5,2.1-14.6,6.1-22.4,6.7c-15.2,1.3-28.3-9.9-42.7-15.1    C1132.9,817.8,1115.9,818.8,1101.4,812z"/><path fill="#24747a" d="M1148 823.3c-9.4-3.4-19.7-4.3-29.5-6.2 1.8 6.9 1.8 14.5 6.2 20.1 3.3 4.2 8.6 6.3 12 10.5 5.4 6.6 4.8 16.9 10.9 22.9 5.1-5 8.4-11.6 9.8-18.6.7-3.5.9-7.1 2.3-10.4 1.5-3.5 4.3-6.5 5.5-10.1C1159.5 828.5 1153.8 825.4 1148 823.3zM1213 831.6c-3.7 1-7.3 2.5-10.9 3.8 2.3 5.1 1.1 11.1 1.7 16.7.1.8.3 1.7 1 2 .6.3 1.3-.1 1.9-.4 6.5-3.5 12.5-7.9 17.8-13 1.8-1.7 3.5-3.5 4.5-5.6.9-1.9 1.3-4 1.4-6.1C1224.6 829.6 1218.7 830.1 1213 831.6z"/><g><path fill="#ffe4ae" d="M343,210.7c0-52.6,35-97.1,83-111.4c-10.5-3.1-21.7-4.8-33.2-4.8c-64.2,0-116.2,52-116.2,116.2    c0,64.2,52,116.2,116.2,116.2c11.5,0,22.7-1.7,33.2-4.8C378,307.8,343,263.3,343,210.7z"/><path fill="#8cd7f8" d="M510.8 630.6c-6.8-22-27.3-37.9-51.4-37.9-29.7 0-53.8 24.1-53.8 53.8 0 8.8 2.1 17 5.9 24.4C432.4 669.6 478.9 662.9 510.8 630.6zM422.3 685.4c9.7 9.2 22.7 14.9 37.1 14.9 28.2 0 51.3-21.7 53.6-49.3C493.1 660.6 452.4 679 422.3 685.4z"/><path fill="#ef443d" d="M559.9,609.6c-3.5-9.6-28.9-9.6-63-1.7c6.4,6.2,11.2,13.9,13.9,22.6c-32,32.3-78.4,39-99.4,40.3     c-3.7-7.3-5.9-15.6-5.9-24.4c0-1.7,0.1-3.4,0.3-5c-31,16-50.1,32.4-46.6,42c4.4,12,43.6,9,91.1-6.1c23.9-8.3,48.6-19.5,62.7-26.3     c0,0.2-0.1,0.5-0.1,0.7C544,635.7,563.4,619.2,559.9,609.6z"/><path fill="#8cd7f8" d="M1162.1 1150.3c10.6-20.4 7.2-46.1-10.1-63.1-21.2-20.9-55.3-20.6-76.1.6-6.2 6.3-10.4 13.7-12.9 21.5C1078.9 1123.1 1116.7 1150.9 1162.1 1150.3zM1060.5 1127.3c.4 13.3 5.7 26.5 16 36.6 20.1 19.8 51.8 20.5 72.8 2.5C1128.5 1159.3 1086.5 1143.9 1060.5 1127.3z"/><path fill="#ef443d" d="M1211.8,1169.8c4.2-9.3-13.8-27.1-43.7-45.4c0.2,8.9-1.8,17.8-6,25.9c-45.4,0.6-83.2-27.2-99.1-41     c2.5-7.8,6.7-15.2,12.9-21.5c1.2-1.2,2.4-2.3,3.7-3.4c-33.3-10.3-58.5-12.1-62.7-2.8c-5.3,11.7,24.7,37,69.2,59.6     c22.8,10.9,48.3,20.2,63.1,25.3c-0.2,0.2-0.4,0.3-0.5,0.4C1182.2,1177.3,1207.6,1179.1,1211.8,1169.8z"/><path fill="#784c9e" d="M1806.1 75.7c4.6-17.2-2.1-36-18-46-19.4-12.3-45.1-6.5-57.4 12.9-3.6 5.7-5.6 12-6.2 18.3C1738.8 68.7 1771.9 83.6 1806.1 75.7zM1725.6 74.9c2.5 10 8.7 19.1 18.1 25 18.4 11.6 42.5 7 55.4-10.1C1782.2 88 1747.9 83.2 1725.6 74.9z"/><path fill="#5c6ab2" d="M1846.8,82.2c1.7-7.7-14.9-18.2-40.4-27.1c1.6,6.7,1.6,13.7-0.3,20.5c-34.2,7.9-67.3-6.9-81.6-14.7     c0.6-6.3,2.6-12.6,6.2-18.3c0.7-1.1,1.4-2.1,2.2-3.2c-26.8-2.3-46.2,0.5-47.8,8.2c-2.1,9.7,24.8,23.9,62.1,33.6     c19,4.5,39.8,7.3,51.8,8.7c-0.1,0.1-0.2,0.3-0.3,0.4C1825.7,92.7,1845.1,89.9,1846.8,82.2z"/><circle cx="689.6" cy="240.3" r="29.6" fill="#5f6cb2"/><circle cx="1734.4" cy="771.4" r="29.6" fill="#5f6cb2"/><circle cx="59.9" cy="64.8" r="19.5" fill="#784c9e"/><circle cx="1420" cy="793.1" r="29.6" fill="#f9a859"/><circle cx="1084.4" cy="1355.7" r="29.6" fill="#f9a859"/><circle cx="1621.2" cy="124.1" r="19.5" fill="#8cd7f8"/><circle cx="877.5" cy="863.4" r="12.1" fill="#5f6cb2"/><circle cx="969.8" cy="749.2" r="12.1" fill="#5f6cb2"/><circle cx="343.3" cy="435.1" r="12.1" fill="#8cd7f8"/><circle cx="459.5" cy="841.4" r="12.1" fill="#784c9e"/><circle cx="1053.7" cy="447.2" r="12.1" fill="#feface"/><circle cx="812.2" cy="491.6" r="12.1" fill="#feface"/><circle cx="315" cy="801" r="12.1" fill="#feface"/><circle cx="679.2" cy="508.1" r="12.1" fill="#fbaf34"/><circle cx="642.1" cy="339.4" r="12.1" fill="#fbaf34"/><circle cx="603.2" cy="775" r="12.1" fill="#784c9e"/><circle cx="1201.2" cy="749.2" r="12.1" fill="#f9a859"/><circle cx="1363.5" cy="355.9" r="12.1" fill="#8cd7f8"/><circle cx="657.7" cy="1154.7" r="12.1" fill="#8cd7f8"/><circle cx="1010" cy="196.4" r="12.1" fill="#8cd7f8"/><circle cx="405" cy="522" r="12.1" fill="#8cd7f8"/><circle cx="505.1" cy="64.8" r="12.1" fill="#8cd7f8"/><circle cx="575.3" cy="64.8" r="2.2" fill="#8cd7f8"/><circle cx="505.1" cy="240.3" r="2.2" fill="#8cd7f8"/><circle cx="232.3" cy="104.6" r="2.2" fill="#8cd7f8"/><circle cx="254.2" cy="388.3" r="2.2" fill="#8cd7f8"/><circle cx="1072.1" cy="859.4" r="2.2" fill="#8cd7f8"/><circle cx="505.1" cy="561.2" r="2.2" fill="#8cd7f8"/><circle cx="315.3" cy="563.4" r="2.2" fill="#8cd7f8"/><circle cx="573.1" cy="447.2" r="2.2" fill="#8cd7f8"/><circle cx="877.5" cy="390.6" r="2.2" fill="#8cd7f8"/><circle cx="963.1" cy="119.4" r="2.2" fill="#8cd7f8"/><circle cx="1263.9" cy="76.9" r="2.2" fill="#8cd7f8"/><circle cx="1201.2" cy="323.8" r="2.2" fill="#8cd7f8"/><circle cx="1282.2" cy="675" r="2.2" fill="#8cd7f8"/><circle cx="1053.7" cy="797.1" r="4" fill="#8cd7f8"/><circle cx="719.2" cy="843.6" r="2.2" fill="#8cd7f8"/><circle cx="707" cy="1073.4" r="2.2" fill="#8cd7f8"/><circle cx="959.8" cy="1152.4" r="2.2" fill="#8cd7f8"/><circle cx="849" cy="964" r="4.4" fill="#fff"/><circle cx="1543.5" cy="952.6" r="4.4" fill="#fff"/><circle cx="1457.1" cy="900.9" r="4.4" fill="#fff"/><circle cx="1523.6" cy="1057.2" r="4.4" fill="#fff"/><circle cx="517.2" cy="1046.2" r="4.4" fill="#fff"/><circle cx="970.6" cy="918.2" r="4.4" fill="#fff"/><circle cx="1074.3" cy="592.5" r="4.4" fill="#fff"/><circle cx="225" cy="643.4" r="4.4" fill="#fff"/><circle cx="1560.3" cy="461.5" r="4.4" fill="#fff"/><circle cx="1366.7" cy="680.8" r="4.4" fill="#fff"/><circle cx="1603.6" cy="793.1" r="4.4" fill="#fff"/><circle cx="980.8" cy="559" r="4.4" fill="#fff"/><circle cx="1236.3" cy="561.2" r="4.4" fill="#fff"/><circle cx="1640.7" cy="233.2" r="4.4" fill="#fff"/><circle cx="1508.4" cy="355.9" r="4.4" fill="#fff"/><circle cx="1408.3" cy="57.2" r="4.4" fill="#fff"/><circle cx="577.5" cy="163.5" r="4.4" fill="#fff"/><circle cx="103.4" cy="198" r="4.4" fill="#fff"/><circle cx="965.4" cy="968.4" r="4.4" fill="#f9a859"/><circle cx="723.7" cy="1206.6" r="2.2" fill="#8cd7f8"/><circle cx="1430.3" cy="982.3" r="2.2" fill="#8cd7f8"/><circle cx="1282.2" cy="1055" r="2.2" fill="#8cd7f8"/><circle cx="1684.7" cy="341.6" r="2.2" fill="#8cd7f8"/><circle cx="1597.5" cy="392.8" r="2.2" fill="#8cd7f8"/><circle cx="1508.4" cy="737.1" r="2.2" fill="#8cd7f8"/><circle cx="1878.7" cy="62.6" r="2.2" fill="#8cd7f8"/><circle cx="1763.7" cy="159" r="2.2" fill="#8cd7f8"/><circle cx="1643.8" cy="52.7" r="2.2" fill="#8cd7f8"/><circle cx="1493.9" cy="124.1" r="2.2" fill="#8cd7f8"/><circle cx="1213.2" cy="198.6" r="2.2" fill="#8cd7f8"/><circle cx="1101" cy="84.3" r="2.2" fill="#8cd7f8"/><circle cx="875.2" cy="74.7" r="2.2" fill="#8cd7f8"/><circle cx="879.7" cy="245.3" r="2.2" fill="#8cd7f8"/><circle cx="757" cy="386.1" r="2.2" fill="#8cd7f8"/><circle cx="851.3" cy="561.2" r="2.2" fill="#8cd7f8"/><circle cx="600.9" cy="661.7" r="2.2" fill="#8cd7f8"/><circle cx="502.9" cy="823.9" r="2.2" fill="#8cd7f8"/><circle cx="396.7" cy="1001.5" r="2.2" fill="#8cd7f8"/><circle cx="951.1" cy="799.1" r="2.2" fill="#8cd7f8"/><circle cx="953.4" cy="606.8" r="2.2" fill="#8cd7f8"/><circle cx="955.6" cy="257.8" r="2.2" fill="#8cd7f8"/><circle cx="951.1" cy="375" r="2.2" fill="#8cd7f8"/><circle cx="161.2" cy="67.1" r="2.2" fill="#8cd7f8"/><circle cx="230.1" cy="270" r="2.2" fill="#8cd7f8"/><circle cx="355.4" cy="54.9" r="2.2" fill="#8cd7f8"/><circle cx="398.9" cy="206.4" r="2.2" fill="#8cd7f8"/><circle cx="701.3" cy="106.9" r="2.2" fill="#8cd7f8"/><circle cx="493" cy="383.9" r="2.2" fill="#8cd7f8"/><circle cx="1213.2" cy="459.3" r="2.2" fill="#8cd7f8"/><circle cx="1448.5" cy="634.4" r="12.1" fill="#f9a859"/><polygon fill="#ef443d" points="1336.3 1268.8 1387.4 1275.6 1404.7 1219.8 1399.2 1278.5 1447.8 1291.6 1395 1287 1377.3 1347 1386.1 1284.5"/><polygon fill="#ef443d" points="1072.9 945 1124 951.8 1141.3 896 1135.9 954.7 1184.4 967.8 1131.6 963.2 1113.9 1023.2 1122.8 960.6"/><polygon fill="#fff200" points="787.6 149.9 819.4 154.2 830.2 119.4 826.8 156 857.1 164.2 824.2 161.3 813.1 198.6 818.7 159.7"/><polygon fill="#fff200" points="166.2 445.8 198 450 208.8 415.3 205.4 451.8 235.6 460 202.7 457.1 191.7 494.5 197.2 455.5"/><polygon fill="#a44f24" points="420 1195.3 469.3 1180.3 462 1122.4 481.3 1178.1 531 1169.9 481 1187.5 489.6 1249.5 471.8 1188.9"/><polygon fill="#fff200" points="1541.6 622.8 1578.1 628.7 1591.7 589.1 1586.6 631.1 1621.1 641.4 1583.4 637 1569.4 679.7 1577 635.1"/><polygon fill="#fff200" points="1668.3 498.8 1704.8 504.7 1718.3 465 1713.2 507 1747.8 517.4 1710 513 1696.1 555.7 1703.7 511"/><polygon fill="#fff200" points="970.2 1351.3 1006.8 1357.2 1020.3 1317.5 1015.2 1359.5 1049.8 1369.9 1012 1365.5 998.1 1408.2 1005.7 1363.5"/><polygon fill="#fff200" points="1424.5 201.3 1461 207.1 1474.6 167.5 1469.4 209.5 1504 219.9 1466.2 215.5 1452.3 258.1 1459.9 213.5"/><polygon fill="#5f6cb2" points="679.2 613.8 714.8 603 709.5 561.2 723.4 601.4 759.2 595.5 723.2 608.2 729.4 652.9 716.6 609.2"/><polygon fill="#fff" points="1412.1 1069.9 1449.1 1068.3 1454.4 1026.6 1457.9 1068.9 1493.9 1072.1 1455.9 1075.4 1450.9 1120.1 1449.3 1074.7"/><polygon fill="#fff" points="530 1342.6 567 1341 572.2 1299.3 575.7 1341.6 611.8 1344.8 573.8 1348.1 568.8 1392.8 567.2 1347.4"/><polygon fill="#5f6cb2" points="1423.1 516.7 1460.1 515.1 1465.4 473.4 1468.9 515.7 1504.9 518.9 1466.9 522.2 1461.9 566.9 1460.3 521.5"/><polygon fill="#5f6cb2" points="1099.5 647.6 1136.5 646 1141.7 604.3 1145.2 646.6 1181.3 649.8 1143.3 653.1 1138.3 697.8 1136.7 652.4"/><polygon fill="#5f6cb2" points="1762.7 265.2 1799.8 263.6 1805 221.9 1808.5 264.2 1844.6 267.3 1806.6 270.7 1801.6 315.4 1800 270"/><polygon fill="#fff200" points="1514.1 830.8 1529.1 820.5 1520.5 801.8 1532.9 818.5 1548.7 810.4 1533.8 821.7 1543.3 841.6 1530.9 823.1"/><polygon fill="#fff200" points="1346.2 929.9 1361.2 919.6 1352.6 900.9 1365 917.5 1380.8 909.5 1365.9 920.8 1375.4 940.7 1363 922.2"/><polygon fill="#feface" points="1246 858.7 1260.4 843 1245.6 823.9 1264.2 839.7 1280.1 826.3 1266 843.1 1282.2 863.4 1263.1 845.5"/><circle cx="1388.2" cy="126.3" r="2.2" fill="#8cd7f8"/><circle cx="1351.3" cy="240.3" r="2.2" fill="#8cd7f8"/><circle cx="873" cy="677.2" r="2.2" fill="#8cd7f8"/><circle cx="717.2" cy="747" r="2.2" fill="#8cd7f8"/><circle cx="1116.6" cy="383.9" r="2.2" fill="#8cd7f8"/><circle cx="659.9" cy="950.4" r="2.2" fill="#8cd7f8"/></g><g><path fill="#f48990" d="M1322.2,1624c26.3-23.3,55.7-47.8,90.8-49c53.4-1.9,97.6,50.9,150.9,47.4c13-0.9,25.9-5.1,38.8-3.2     c24.8,3.7,40.1,27.9,58,45.5c10.4,10.2,22.6,18.7,35.8,24.9c-10.6,14-24.3,27.3-41.7,30.3c-17.3,3-34.4-4.8-50.7-11.3     c-14-5.6-28.4-10.3-43.1-14.2c-6.7-1.8-13.7-3.3-20.5-2.1c-6.1,1.1-11.6,4.3-16.6,8c-14.3,10.5-25.4,24.9-38.7,36.7     c-13.3,11.8-30.5,21.3-48.1,18.8c-13.9-2-26.2-11.2-40.3-12c-14.5-0.9-28,7.3-42.4,9.5c-24.7,3.7-48.5-10.4-67.9-26.2     c-4.9-4-10-8.7-11.2-14.9c-1.1-6.3,2-12.4,5.1-18c13.3-23.7,27.9-46.6,43.6-68.8"/><path fill="#aa666d" d="M1337.3,1663.6c20.1-18.8,42.2-36.2,68.2-45.1c26-8.8,56.6-7.8,78.9,8.3c2.7,2,5.4,4.2,8.6,5.3     c9.4,3.2,19.9-4.4,29.4-1.5c8,2.5,12.4,11.5,20.3,14.4c9.7,3.7,19.8-3.1,29.8-5.9c10.6-2.9,22.5-1,31.7,5.1     c7.7,5.2,13.3,12.9,19.5,19.9c12.6,14.2,30.7,26.1,49.4,23.1c-12.2,10.4-30.4,10.4-45.7,5.5c-15.3-4.9-28.9-13.8-43.7-19.9     s-32.2-9.1-46.5-1.9c-11.3,5.7-20.5,17.5-33.1,17.2c-7.3-0.1-15.8-4.2-21.2,0.8c-1.8,1.6-2.7,3.9-3.7,6.1     c-3.9,9-8.5,17.8-15.4,24.8c-6.9,7-16.3,11.9-26.1,11.5c-9.1-0.3-17.4-5-25.8-8.5c-13-5.3-27.2-7.9-41.2-7.4     c-8.7,0.3-18,1.7-25.8-2.2c-12.4-6.2-15.3-22.5-15.5-36.4c-0.1-5.3,0.7-11.8,5.6-13.7"/><path fill="#fdc27a" d="M1313,1562.7c9-33.9,19.9-70.6,48.4-91.1c43.4-31.1,109.5-11.7,151.9-44.1c10.4-7.9,18.8-18.7,30.6-24.2     c22.7-10.7,48.8,1,73.5,5.8c14.3,2.8,29.2,3.1,43.6,0.9c-1.1,17.6-5.1,36.2-17.9,48.3c-12.8,12.1-31.3,15-48.5,18.7     c-14.8,3.1-29.4,7.2-43.7,12.1c-6.5,2.2-13.2,4.8-18.2,9.6c-4.5,4.3-7.3,10-9.4,15.8c-6.1,16.7-7.3,34.8-11.9,52     c-4.6,17.2-13.6,34.7-29.6,42.4c-12.7,6.1-28,5.2-40.2,12.3c-12.6,7.3-19.3,21.6-30.1,31.4c-18.5,16.8-46.1,18.1-71,15.8     c-6.3-0.6-13.2-1.6-17.6-6.2c-4.4-4.6-5.2-11.5-5.7-17.8c-2-27.1-2.6-54.3-1.8-81.4"/><path fill="#c69560" d="M1588.9,1425.1c-9.8-1.3-19.6-3.5-29.6-3.3s-20.3,3.2-27,10.5c-4.9,5.5-7.4,12.8-12.5,18.1     c-13.2,13.5-37.3,7.4-52.6,18.4c-4.3,3.1-7.6,7.4-12.2,10.1c-14.2,8.6-33.1-1.2-49,3.5c-19.3,5.7-26.1,28.9-39.6,43.9     c-1.5,1.7-3.2,3.4-5.4,4.1c-3,1-6.2,0-9.4,0c-9,0.1-15.7,8.2-20.7,15.7c-5.7,8.5-11,17.3-16,26.3c-0.4,23.9,0.3,47.9,2,71.7     c0.1,1.5,0.2,3.1,0.4,4.7c3.2-0.5,6.3-1,9.5-1.4c10.4-1.6,20.7-3.1,31.2-3.2c12.7-0.1,27.1,1.5,36.3-7.2     c12.4-11.7,7.6-34.9,20.8-45.5c8.2-6.5,19.8-5.5,30.2-5.6c10.5-0.1,22.9-3.5,26-13.5c3.4-11-7.2-23-3.2-33.8     c5.1-13.9,29.4-13.6,32.7-28.1c1.3-5.6-1.5-11.5-0.8-17.2c1.1-9.9,11.5-15.9,21.1-18.5c9.6-2.7,20.3-4,27.4-10.9     c3.3-3.2,5.5-7.3,8.5-10.8c16.7-19.2,49.6-12.2,69.9-27.5C1614.5,1426.9,1601.6,1426.8,1588.9,1425.1z"/></g><g><path fill="#f48990" d="M677.2,1613.9c-26.3-23.3-55.7-47.8-90.8-49c-53.4-1.9-97.6,50.9-150.9,47.4c-13-0.9-25.9-5.1-38.8-3.2     c-24.8,3.7-40.1,27.9-58,45.5c-10.4,10.2-22.6,18.7-35.8,24.9c10.6,14,24.3,27.3,41.7,30.3c17.3,3,34.4-4.8,50.7-11.3     c14-5.6,28.4-10.3,43.1-14.2c6.7-1.8,13.7-3.3,20.5-2.1c6.1,1.1,11.6,4.3,16.6,8c14.3,10.5,25.4,24.9,38.7,36.7     c13.3,11.8,30.5,21.3,48.1,18.8c13.9-2,26.2-11.2,40.3-12c14.5-0.9,28,7.3,42.4,9.5c24.7,3.7,48.5-10.4,67.9-26.2     c4.9-4,10-8.7,11.2-14.9c1.1-6.3-2-12.4-5.1-18c-13.3-23.7-27.9-46.6-43.6-68.8"/><path fill="#aa666d" d="M662.2,1653.4c-20.1-18.8-42.2-36.2-68.2-45.1c-26-8.8-56.6-7.8-78.9,8.3c-2.7,2-5.4,4.2-8.6,5.3     c-9.4,3.2-19.9-4.4-29.4-1.5c-8,2.5-12.4,11.5-20.3,14.4c-9.7,3.7-19.8-3.1-29.8-5.9c-10.6-2.9-22.5-1-31.7,5.1     c-7.7,5.2-13.3,12.9-19.5,19.9c-12.6,14.2-30.7,26.1-49.4,23.1c12.2,10.4,30.4,10.4,45.7,5.5c15.3-4.9,28.9-13.8,43.7-19.9     s32.2-9.1,46.5-1.9c11.3,5.7,20.5,17.5,33.1,17.2c7.3-0.1,15.8-4.2,21.2,0.8c1.8,1.6,2.7,3.9,3.7,6.1c3.9,9,8.5,17.8,15.4,24.8     c6.9,7,16.3,11.9,26.1,11.5c9.1-0.3,17.4-5,25.8-8.5c13-5.3,27.2-7.9,41.2-7.4c8.7,0.3,18,1.7,25.8-2.2     c12.4-6.2,15.3-22.5,15.5-36.4c0.1-5.3-0.7-11.8-5.6-13.7"/><path fill="#fdc27a" d="M686.5,1552.5c-9-33.9-19.9-70.6-48.4-91.1c-43.4-31.1-109.5-11.7-151.9-44.1     c-10.4-7.9-18.8-18.7-30.6-24.2c-22.7-10.7-48.8,1-73.5,5.8c-14.3,2.8-29.2,3.1-43.6,0.9c1.1,17.6,5.1,36.2,17.9,48.3     c12.8,12.1,31.3,15,48.5,18.7c14.8,3.1,29.4,7.2,43.7,12.1c6.5,2.2,13.2,4.8,18.2,9.6c4.5,4.3,7.3,10,9.4,15.8     c6.1,16.7,7.3,34.8,11.9,52c4.6,17.2,13.6,34.7,29.6,42.4c12.7,6.1,28,5.2,40.2,12.3c12.6,7.3,19.3,21.6,30.1,31.4     c18.5,16.8,46.1,18.1,71,15.8c6.3-0.6,13.2-1.6,17.6-6.2c4.4-4.6,5.2-11.5,5.7-17.8c2-27.1,2.6-54.3,1.8-81.4"/><path fill="#c69560" d="M410.6,1414.9c9.8-1.3,19.6-3.5,29.6-3.3s20.3,3.2,27,10.5c4.9,5.5,7.4,12.8,12.5,18.1     c13.2,13.5,37.3,7.4,52.6,18.4c4.3,3.1,7.6,7.4,12.2,10.1c14.2,8.6,33.1-1.2,49,3.5c19.3,5.7,26.1,28.9,39.6,43.9     c1.5,1.7,3.2,3.4,5.4,4.1c3,1,6.2,0,9.4,0c9,0.1,15.7,8.2,20.7,15.7c5.7,8.5,11,17.3,16,26.3c0.4,23.9-0.3,47.9-2,71.7     c-0.1,1.5-0.2,3.1-0.4,4.7c-3.2-0.5-6.3-1-9.5-1.4c-10.4-1.6-20.7-3.1-31.2-3.2c-12.7-0.1-27.1,1.5-36.3-7.2     c-12.4-11.7-7.6-34.9-20.8-45.5c-8.2-6.5-19.8-5.5-30.2-5.6c-10.5-0.1-22.9-3.5-26-13.5c-3.4-11,7.2-23,3.2-33.8     c-5.1-13.9-29.4-13.6-32.7-28.1c-1.3-5.6,1.5-11.5,0.8-17.2c-1.1-9.9-11.5-15.9-21.1-18.5c-9.6-2.7-20.3-4-27.4-10.9     c-3.3-3.2-5.5-7.3-8.5-10.8c-16.7-19.2-49.6-12.2-69.9-27.5C384.9,1416.7,397.8,1416.6,410.6,1414.9z"/></g><g><path fill="#121212" d="M619.8,1534.5h703.5v-432c0-12.7-10.3-23.1-23.1-23.1H642.9c-12.7,0-23.1,10.3-23.1,23.1V1534.5z"/><rect width="667.8" height="404.5" x="636.2" y="1106.1" fill="#07b5d9"/><polygon fill="#166ca6" points="619.8 1534.5 567.8 1750.1 1393.2 1750.1 1323.3 1534.5"/><polygon fill="#074d84" points="1390.1 1768 571.1 1766.8 568 1750 1393 1750.1"/><path fill="#074d84" d="M1070,1736.2H875.7c-4.3,0-7.4-4.1-6.4-8.2l11.1-43.3c0.6-2.4,2.7-4,5.2-4h171.5c2.7,0,5,1.8,5.7,4.4    l12.4,44.3C1076.2,1732.7,1073.6,1736.2,1070,1736.2z"/><path fill="#166ca6" d="M875.7,1736.2H1070c1.9,0,3.5-1,4.5-2.4l-13.6-46c-0.7-2.2-2.7-3.7-5-3.7h-168c-2,0-3.7,1.3-4.3,3.2    l-13.5,45.7C871.2,1734.9,873.3,1736.2,875.7,1736.2z"/><polygon fill="#074d84" points="658.1 1578.1 658.1 1580.3 710 1580.3 718.4 1549.5 717.1 1546.6"/><polygon fill="#074d84" points="731.3 1578.1 731.3 1580.3 783.2 1580.3 791.5 1549.5 790.3 1546.6"/><polygon fill="#074d84" points="645.4 1624.4 645.4 1626.9 698 1626.9 706 1596.4 704.6 1593.9"/><polygon fill="#074d84" points="692.4 1640.2 692.4 1644.3 684.5 1674.3 632.3 1674.3 632.3 1672.1"/><polygon fill="#074d84" points="718.7 1624.4 718.7 1626.9 771.3 1626.9 779.3 1596.4 777.9 1593.9"/><polygon fill="#074d84" points="765.7 1640.2 765.7 1644.3 757.8 1674.3 705.6 1674.3 705.6 1672.1"/><polygon fill="#074d84" points="804.2 1578.1 804.2 1580.3 857.4 1580.3 864.5 1549.5 863.2 1546.6"/><polygon fill="#074d84" points="791.6 1624.4 791.6 1626.9 845.8 1626.9 852.2 1596.4 852.2 1593.9"/><polygon fill="#074d84" points="841.1 1640.2 841.1 1644 833.8 1674.3 778.5 1674.3 778.5 1672.1"/><polygon fill="#2c90c9" points="718.7 1624.4 769.5 1624.4 777.5 1593.9 727 1593.9"/><polygon fill="#2c90c9" points="790 1546.6 739.8 1546.6 731.3 1578.1 781.7 1578.1"/><polygon fill="#2c90c9" points="705.7 1672.1 756.8 1672.1 765.3 1640.2 714.4 1640.2"/><polygon fill="#2c90c9" points="645.4 1624.4 696.6 1624.4 704.6 1593.9 653.7 1593.9"/><polygon fill="#2c90c9" points="812.7 1546.6 804.2 1578.1 855.9 1578.1 863.5 1546.6"/><polygon fill="#2c90c9" points="787.3 1640.2 778.6 1672.1 833.4 1672.1 841.1 1640.2"/><polygon fill="#2c90c9" points="692.4 1640.2 641.1 1640.2 632.3 1672.1 683.9 1672.1"/><polygon fill="#2c90c9" points="852.2 1593.9 799.9 1593.9 791.6 1624.4 844.8 1624.4"/><polygon fill="#2c90c9" points="708.8 1578.1 717.1 1546.6 666.7 1546.6 658.1 1578.1"/><path fill="#33c3df" d="M1303.9,1164.7c-33.7-11.8-70.4-15.8-106.2-13.5c-57.4,3.7-112.9,22.4-166.1,44.2    c-53.2,21.8-105.2,47.1-159.9,64.9c-9.9,3.2-20.2,6.3-30.6,5.2s-20.9-7.2-24.1-17.1c-8-24.6,31.2-46.1,23.4-70.8    c-4.9-15.7-25.2-19.6-41.7-19.7c-55.9-0.3-111.7,12-162.6,35.1v69.4c14.1-8.1,28.7-15.4,44.2-20.5c20-6.6,45.6-7.9,58.4,8.7    c15.6,20.2,1.1,51,11.1,74.5c5.8,13.7,19.4,22.8,33.8,26.6c14.4,3.8,29.5,2.9,44.3,1.2c72.3-8.1,141.4-33.1,211.7-51.8    c70.3-18.7,144.8-31.2,215.4-13.9c16.8,4.1,33.6,10.4,48.8,19V1164.7z"/><path fill="#33c3df" d="M1146.4,1470.7c-6.5,12.3-10,26.1-10.4,39.9h167.9V1453c-16.3,0.8-32.5,1.6-48.8,2.4    c-5.4,0.3-11.5,0.3-15.4-3.6c-2.6-2.6-3.5-6.4-3.8-10.1c-2-23.1,14.5-45.5,9.7-68.1c-5.2-24.7-32.6-37.4-57.2-43    c-103.9-23.8-211.9,11.7-308.8,56.1c-45.6,20.9-94.3,44.5-143.6,35.4c-18.1-3.3-36.8-12.4-44.3-29.3    c-12.5-28.1,11.9-59.7,8.9-90.4c-0.5-5.6-2.1-11.2-5.8-15.4c-10.3-11.9-29.6-6.1-43.4,1.4c-5.2,2.9-10.4,5.9-15.4,9V1469    c12.6,12.9,32.9,14.7,51.2,14.7c34.8-0.1,69.5-3.4,103.7-9.9c95.5-18.2,185-61,280.4-79.6c19.3-3.7,39.7-6.4,58.3,0.1    c18.6,6.5,34.4,24.7,31.7,44.2C1159.8,1450.3,1152,1460.2,1146.4,1470.7z"/><polygon fill="#074d84" points="658.1 1578.1 658.1 1580.3 710 1580.3 718.4 1549.5 717.1 1546.6"/><polygon fill="#074d84" points="731.3 1578.1 731.3 1580.3 783.2 1580.3 791.5 1549.5 790.3 1546.6"/><polygon fill="#074d84" points="645.4 1624.4 645.4 1626.9 698 1626.9 706 1596.4 704.6 1593.9"/><polygon fill="#074d84" points="692.4 1640.2 692.4 1644.3 684.5 1674.3 632.3 1674.3 632.3 1672.1"/><polygon fill="#074d84" points="718.7 1624.4 718.7 1626.9 771.3 1626.9 779.3 1596.4 777.9 1593.9"/><polygon fill="#074d84" points="765.7 1640.2 765.7 1644.3 757.8 1674.3 705.6 1674.3 705.6 1672.1"/><polygon fill="#074d84" points="804.2 1578.1 804.2 1580.3 857.4 1580.3 864.5 1549.5 863.2 1546.6"/><polygon fill="#074d84" points="791.6 1624.4 791.6 1626.9 845.8 1626.9 852.2 1596.4 852.2 1593.9"/><polygon fill="#074d84" points="841.1 1640.2 841.1 1644 833.8 1674.3 778.5 1674.3 778.5 1672.1"/><polygon fill="#2c90c9" points="718.7 1624.4 769.5 1624.4 777.5 1593.9 727 1593.9"/><polygon fill="#2c90c9" points="790 1546.6 739.8 1546.6 731.3 1578.1 781.7 1578.1"/><polygon fill="#2c90c9" points="705.7 1672.1 756.8 1672.1 765.3 1640.2 714.4 1640.2"/><polygon fill="#2c90c9" points="645.4 1624.4 696.6 1624.4 704.6 1593.9 653.7 1593.9"/><polygon fill="#2c90c9" points="812.7 1546.6 804.2 1578.1 855.9 1578.1 863.5 1546.6"/><polygon fill="#2c90c9" points="787.3 1640.2 778.6 1672.1 833.4 1672.1 841.1 1640.2"/><polygon fill="#2c90c9" points="692.4 1640.2 641.1 1640.2 632.3 1672.1 683.9 1672.1"/><polygon fill="#2c90c9" points="852.2 1593.9 799.9 1593.9 791.6 1624.4 844.8 1624.4"/><polygon fill="#2c90c9" points="708.8 1578.1 717.1 1546.6 666.7 1546.6 658.1 1578.1"/><g><polygon fill="#074d84" points="1299.8 1578.1 1299.8 1580.3 1247.9 1580.3 1239.5 1549.5 1240.7 1546.6"/><polygon fill="#074d84" points="1226.6 1578.1 1226.6 1580.3 1174.7 1580.3 1166.3 1549.5 1167.5 1546.6"/><polygon fill="#074d84" points="1312.5 1624.4 1312.5 1626.9 1259.9 1626.9 1251.8 1596.4 1253.2 1593.9"/><polygon fill="#074d84" points="1265.5 1640.2 1265.5 1644.3 1273.3 1674.3 1325.6 1674.3 1325.6 1672.1"/><polygon fill="#074d84" points="1239.2 1624.4 1239.2 1626.9 1186.6 1626.9 1178.6 1596.4 1180 1593.9"/><polygon fill="#074d84" points="1192.2 1640.2 1192.2 1644.3 1200 1674.3 1252.3 1674.3 1252.3 1672.1"/><polygon fill="#074d84" points="1153.7 1578.1 1153.7 1580.3 1100.5 1580.3 1093.4 1549.5 1094.6 1546.6"/><polygon fill="#074d84" points="1166.3 1624.4 1166.3 1626.9 1112.1 1626.9 1105.7 1596.4 1105.7 1593.9"/><polygon fill="#074d84" points="1116.8 1640.2 1116.8 1644 1124.1 1674.3 1179.4 1674.3 1179.4 1672.1"/><polygon fill="#2c90c9" points="1239.2 1624.4 1188.4 1624.4 1180.3 1593.9 1230.9 1593.9"/><polygon fill="#2c90c9" points="1167.8 1546.6 1218 1546.6 1226.6 1578.1 1176.2 1578.1"/><polygon fill="#2c90c9" points="1252.2 1672.1 1201 1672.1 1192.6 1640.2 1243.5 1640.2"/><polygon fill="#2c90c9" points="1312.5 1624.4 1261.3 1624.4 1253.2 1593.9 1304.1 1593.9"/><polygon fill="#2c90c9" points="1145.1 1546.6 1153.7 1578.1 1101.9 1578.1 1094.4 1546.6"/><polygon fill="#2c90c9" points="1170.6 1640.2 1179.3 1672.1 1124.5 1672.1 1116.8 1640.2"/><polygon fill="#2c90c9" points="1265.5 1640.2 1316.8 1640.2 1325.6 1672.1 1273.9 1672.1"/><polygon fill="#2c90c9" points="1105.7 1593.9 1158 1593.9 1166.3 1624.4 1113 1624.4"/><polygon fill="#2c90c9" points="1249.1 1578.1 1240.7 1546.6 1291.2 1546.6 1299.8 1578.1"/></g><polygon fill="#074d84" points="942.5 1546.6 942.5 1549.8 936.1 1579.9 882.4 1579.9 882.4 1578.1"/><polygon fill="#074d84" points="932.4 1593.9 932.4 1596.2 926.2 1626 869.2 1626 869.2 1624.4"/><polygon fill="#074d84" points="950.7 1578.1 951.2 1579.9 1011.1 1579.9 1012.2 1578.1"/><polygon fill="#074d84" points="940.8 1624.4 941.5 1626 1021.3 1626 1022.1 1624.4"/><polygon fill="#074d84" points="1020.4 1546.6 1020.4 1549.1 1026.7 1579.9 1079.8 1579.9 1081 1578.1"/><polygon fill="#074d84" points="1030.5 1593.9 1030 1596.7 1036.6 1626 1093.3 1626 1094.1 1624.4"/><g><polygon fill="#2c90c9" points="1027.1 1578.1 1081 1578.1 1072 1546.6 1020.4 1546.6"/><polygon fill="#2c90c9" points="950.7 1578.1 1012.2 1578.1 1005.4 1546.6 957.4 1546.6"/><polygon fill="#2c90c9" points="1022.1 1624.4 1015.5 1593.9 947.3 1593.9 940.8 1624.4"/><polygon fill="#2c90c9" points="1030.5 1593.9 1037 1624.4 1094.1 1624.4 1085.5 1593.9"/><polygon fill="#2c90c9" points="935.7 1578.1 942.5 1546.6 891.4 1546.6 882.4 1578.1"/><polygon fill="#2c90c9" points="932.4 1593.9 877.9 1593.9 869.2 1624.4 925.8 1624.4"/></g><polygon fill="#074d84" points="859.5 1668.9 860.7 1672.1 1100.7 1672.1 1103 1668.9"/><polygon fill="#2c90c9" points="1103 1668.9 859.5 1668.9 867.9 1640.2 1096.5 1640.2"/></g><g><path fill="#f2a27f" d="M1134.5,980.3c0-2.6,1.9-4.8,3-7.2c3.8-8.5-3-19.1,0.8-27.6c1.7-3.8,5.2-6.4,8.1-9.4     c4-4.2,7.1-9.2,9.9-14.3c2.2-3.9,4.2-7.9,7.2-11.2c2.9-3.3,6.9-6,11.3-6.5c1-0.1,2-0.1,2.8,0.4c0.9,0.5,1.4,1.6,1.8,2.5     c1.3,3.7,1.1,7.9-0.6,11.4c-1.5,3.2-4.3,6.1-3.8,9.6c5-2.1,9.9-4.2,14.9-6.3c4.1-1.7,8.3-3.5,12.6-4.8c8.1-2.5,16.8-3.3,25.2-2.4     c1.6,0.2,3.6,0.8,3.6,2.5c0,0.8-0.6,1.6-1.2,2.1c-2.1,1.8-4.7,2.8-7.2,3.7c-6.7,2.5-13.5,5-20.2,7.5c-2.6,1-5.5,2.1-6.7,4.6     c10.5-2.1,21.3-3.4,32-3.9c2-0.1,4.1-0.2,6,0.4c1.9,0.6,3.7,2,4.2,4c0.1,0.5,0.2,1.1-0.1,1.6c-0.4,0.8-1.3,1.1-2.1,1.3     c-7.7,2.1-15.5,3.4-23.4,4.1c-3.3,0.3-7.2,0.7-9.1,3.4c8.8-0.1,17.5-0.2,26.3-0.4c3.5,0,7.7,0.3,9.5,3.3     c-1.8,2.2-4.9,2.6-7.7,2.9c-8.4,0.9-16.8,1.8-25.2,2.8c8.6,1.4,17.3,2.7,25.7,5.1c1.6,0.5,3.7,2,2.7,3.4     c-0.3,0.4-0.8,0.6-1.2,0.8c-5.5,2.1-11.6,1-17.4,1.6c-8.7,0.9-16.8,5.9-21.6,13.2c-1.7,2.5-3,5.3-5.4,7.1     c-3.2,2.3-7.5,2.3-11.3,3c-4.3,0.9-8.5,2.9-11.8,5.8c-1.2,1-2.3,2.2-3.8,2.7c-2.2,0.7-4.6-0.4-6.7-1.5     c-7.5-4.2-14.2-9.6-19.8-16.1"/><path fill="#89403a" d="M936.9,687.5c3.6,5.3,5.8,11.5,7.3,17.7c3.8,15.3,4.1,31.6,0.6,47c-3,13.4-8.7,26.2-9.4,39.9     c-0.3,6.6,0.5,13.3,1.9,19.8c4.1,19.8,12.7,38.7,25,54.9c5.5,7.3,11.8,14,17,21.6c20.3,29.7,21.1,69.2,11.2,103.7     c-11.6,40.5-56.5,64.4-90.6,83.2c-35.6,19.7-71.4,39.4-108.9,55.2c-27,11.4-55.3,20.9-84.5,21.9c-29.3,1-59.8-7.4-80.8-27.7     c-9.8-9.5-17.3-21.2-24.6-32.8c-7.7-12.2-15.5-24.6-19.9-38.4c-4.5-14.2-5.2-29.2-5.1-44.1c0.1-26.1,2.6-52.4,10.6-77.3     c5.1-15.9,12.5-31.3,22.5-44.7c9.8-13.2,22.6-23.4,32.4-36.6c20.4-27.4,33.3-60.5,36.4-94.5c1.2-13.3,1-26.8,3.2-40.1     c3.1-18.9,11.3-37.2,24.9-50.7c15.6-15.5,37.2-23.8,59-27c32-4.8,65.5,0.5,94.5,14.9c6.1,3,12.6,8.9,19,11     c6.4,2.1,15.1,0.8,21.9,2.1C914.6,669.2,928.7,675.2,936.9,687.5z"/><path fill="#70393c" d="M793.6,810.1c-12.4,0.3-22.6,9.8-29.3,20.3c-6.7,10.4-11.1,22.3-18.9,31.9c-6.2,7.7-14.4,13.5-21.3,20.6     c-7.2,7.4-13.1,16.2-17.1,25.8c-3.9,9.2-5.9,20.4-0.5,28.8c3.1,4.7,8.1,7.9,13.2,10.1c21.4,9.3,47.2,5.1,66.6-7.8     c19.4-12.9,32.7-33.6,39.9-55.8c5.7-17.8,7.3-38.6-3.5-53.9c-7.7-10.9-20.4-17-32.8-21.6"/><path fill="#70393c" d="M962.3,866.8c-12.3-16.1-20.9-35-25-54.9c-1.3-6.5-2.2-13.2-1.9-19.8c0.1-2.6,0.4-5.2,0.9-7.7     c-11.4,12.5-25.2,22.8-40.6,30c-28,13.1-60.9,15.5-90.6,6.7c-10.2-3-24-6.1-29.3,3.1c-1.7,3-2,6.5-2,9.9     c-0.2,20.1,5.5,40.8-0.6,60c-4.1,12.9-13.4,24.7-12.3,38.2c0.5,6.8,3.7,13,6.8,19c12.1,23.7,24.8,48.2,45.8,64.5     c12.8,9.9,27.9,16.3,42.8,22.5c12.5,5.2,25.2,10.5,38.7,11.8c10.9,1.1,21.9-0.4,32.5-2.8c10.5-2.3,21-5.5,31.1-9.7     c14.7-12.6,26.8-27.5,32-45.7c9.9-34.5,9-74-11.2-103.7C974.1,880.9,967.8,874.1,962.3,866.8z"/><path fill="#b55851" d="M902.2,896.5c0,0,104.8,68.5,156.2,175.8l67.3-102.7l46.7,30.3l-75.3,151.7c0,0-36.7,24-70.7,3.3L931,1053.7    L902.2,896.5z"/><path fill="#f17c6e" d="M751.6,896.5c0,0,79.5-13.7,150.5,0c0,0,92.3,63,44,204c0,0-7.6,107.5,4.7,156.2c0,0,8.8,58.7,6.5,74.8    c0,0-199.7,17.5-258.8-14.7c0,0,27.7-225.9,21.7-265.2C720.3,1051.7,644.2,975.3,751.6,896.5z"/><path fill="#bd5c55" d="M850,1336.3c1.7-3.5,1.9-7.7-0.3-10.9c-1.7-2.3-4.3-3.7-6.9-4.8c-20.2-9-43.3-11.6-65-7.5     c-4.1,0.8-8.9,1.5-11.7-1.5c-4.7-5,1.8-12.6,7.8-15.9c35.4-19.4,76.4-25.8,116.6-29.4c7.5-0.7,17.1-3.5,17.2-10.9     c0-5.1-4.7-8.7-9.2-11.1c-13.7-7.2-30.3-11.2-39.2-23.9c-9.7-13.7-6.5-33.4,3.3-47c3.3-4.6,7.4-9.3,7.2-14.9     c-0.2-4.7-3.4-8.7-6.1-12.5c-17.4-24.7-18.3-59.9-2.3-85.5l-3-2c-14.3-5.6-30.3-4.8-45.7-3.8c-14.9,1-30.1,2.1-44.2,7.1     c-19.8,6.9-36.3,21.1-48.5,38.2c-4.6,79.1-21.5,216.8-21.5,216.8C728.2,1332.9,792.7,1336.6,850,1336.3z"/><path fill="#dededf" d="M818.4,989.4l33.6,54L902.9,897l0,0c-0.5-0.4-0.8-0.5-0.8-0.5c-51.4-9.9-107.3-5.5-134.2-2.3L818.4,989.4z"/><path fill="#f2a27f" d="M802.3,854.8l-8.5,37.4l43.9,33.6l29.9-32.2c0,0-9.5-20.4-9-35L802.3,854.8z"/><path fill="#f17c6e" d="M751.6,896.5c0,0-63.1,18.5-103.6,107l-59.2,126.9l62.7,27.1l97-147L751.6,896.5z"/><path fill="#b55851" d="M913.1 905.8c-4.9-4.8-8.7-7.7-10.2-8.8-10.9 22.7-45.6 98.3-50.9 149 0 0 38.5-48.7 47.2-55.4l-3.4-34.7 20.7-13.5C916.5 942.3 916.5 921.4 913.1 905.8zM768.4 894.2c-1.9.2-3.6.4-5.2.6-4.8 15.5 2.2 52.1 2.2 52.1l23.8 10.2 3.5 37.2c10.2 5.3 59.3 49.1 59.3 49.1C835.8 988.9 781.5 912.2 768.4 894.2z"/><path fill="none" stroke="#000" stroke-miterlimit="10" d="M588.8,1130.4"/><path fill="#3f6b83" d="M708.5,1000c2,0.5,154,34,154,34s13.5,6,9.5,21.5l-54,199L664,1213L708.5,1000z"/><path fill="#dededf" d="M714,1006l139,32.5c0,0,20,13,0,10L720,1021l-43.9,195.3l-9-2.4L714,1006z"/><path fill="#fbc0a4" d="M759.3,1189.4c12.2-2.4,18.2-17.8,30.3-20.8c2.7-0.7,5.5-0.6,8.3-0.8c6.4-0.4,12.7-1.8,18.6-4.2     c1.9-0.8,3.8-1.7,5.9-1.8c2.1-0.1,4.3,0.7,5.3,2.5c0.9,1.9,0.2,4.3-1.3,5.8c-1.5,1.5-3.5,2.4-5.4,3.2c-4.4,1.8-8.7,3.6-13.1,5.4     c-1.9,0.8-4.1,2.1-3.8,4.1c0.2,1.9,2.5,2.7,4.4,3.1c5.7,1,11.6,1.2,17.4,1.4c4.5,0.2,9.3,0.5,13,3.2c3.6,2.7,5,8.8,1.6,11.7     c-1.5,1.3-4.1,2.4-3.7,4.4c0.2,1,1.1,1.6,1.6,2.4c1.4,2,0.8,4.9-0.7,6.8c-1.6,1.9-3.9,3-6.1,3.9c1.4,1.6,2.9,3.2,3.6,5.2     c0.7,2,0.4,4.5-1.3,5.8c-0.8,0.7-2,1-2.7,1.7c-2.1,2-0.9,5.5-1.6,8.3c-0.6,2.4-2.7,4.2-5,5c-2.3,0.9-4.8,1-7.2,1.1     c-13,0.6-26.5,1-38.3-4.5c-6.4-3-11.9-7.7-17.2-12.2c-2.1-1.8-4.3-3.6-5.5-6.1c-1-2-1.2-4.2-1.4-6.5c-0.7-10.1,1.2-20.5,5.3-29.7     "/><path fill="#f17c6e" d="M588.8,1130.4c0.3-0.5,175.6,55.1,175.6,55.1l-8,49L588.8,1189C588.8,1189,573.2,1157.3,588.8,1130.4z"/><path fill="#fbc0a4" d="M903.1,727c0,0,20.8,119.3-54,147.2c0,0-76.7,19.9-79.5-97.5C769.6,776.7,791.4,666.9,903.1,727z"/><path fill="#89403a" d="M872.7,725.1c0,0-44.6,48.5-108.3,60.6c0,0-28-15.2,0-60.6c0,0,64.3-41.7,108.3-25c0,0,40.9,8.3,39.4,51.5    C912.2,751.6,881.8,744,872.7,725.1z"/><path fill="#fbc0a4" d="M774.3,785.2c0,0-18.9-12.8-22.7,9c0,0,0.9,40.2,27.9,32.2L774.3,785.2z"/><path fill="#3f6b83" d="M698.6,1316.9l-46.3,193.8h285.9c10.8-67.2,25.6-167.8,19.2-179.1L698.6,1316.9z"/><g><path fill="#325363" d="M786.9,1382.5c10.7-8.1,23.6-12.8,36.3-17.2c36-12.6,72.2-24.3,108.8-35.2l-233.4-13.2l-46.3,193.8h61.5     c4.2-7.8,9.5-15.1,15.7-21.4c25.3-25.7,63.2-34.7,90.8-57.9c4.6-3.9,9.3-9.7,7.2-15.4c-2-5.3-8.6-6.7-14.2-7.4     c-7.7-1-15.4-1.9-23.1-2.9c-3.4-0.4-7.1-1-9.5-3.4C775.2,1396.6,780.7,1387.2,786.9,1382.5z"/></g></g></svg>