<svg xmlns="http://www.w3.org/2000/svg" enable-background="new 0 0 2000 2000" viewBox="0 0 2000 2000"><switch><g><path fill="#a7e6ff" d="M849.5,1482.6c0,0-274.9-508.2-370.5-694.6c-39.7-77.4-32.2-180.9,29.3-228.8
								c67.2-52.3,118.5-29.9,243.9,9.2c337.7,105.3,488.4,185.6,629,39c87.9-91.6,176.8-60.6,213,32.1
								c35.7,91.1,27.4,153.3-37,244.9c-110.8,157.6-485.9,598.1-485.9,598.1H849.5"/><path fill="#c0a816" d="M834.3,499.7c0.3,0.3,0.5,0.5,0.5,0.5s-0.2,0.5-0.6,1.4c-2.4,5.5-13.7,25.7-52.6,41
										c0,0-13.5,5.4-20.8,10.2c-1.2,0.8-2.3,1.6-3.1,2.3l0,0c0,0,0,0,0,0c0-0.1,0-0.6,0-1.4l0,0c0.4-5.6,3.7-26.7,33.3-44.3
										C821,491.6,832,497.9,834.3,499.7z"/><path fill="#549208" d="M900.4,483.1L900.4,483.1c6.4-0.7,13-1.1,19.9-1.2c0.9,0,1.8,0,2.7,0c0.1,0,0.1,0,0.1,0
										c2,0,4.1,0,6.2,0c20,0.3,39.6,3.9,59.5,10.7c0.1,0,0.3,0.1,0.4,0.1c1,0.3,2,0.7,3,1.1c0,0,0,0,0,0l0,0c0,0,0.1,0,0.1,0.1
										c0.4,0.1,0.8,0.3,1.2,0.4c27.5,10.1,55.5,26.3,85.8,48.3c0,0,0,0,0,0c0,0,0.1,0.1,0.1,0.1c3.2,2.3,6.4,4.7,9.6,7.1
										c0.6,0.4,1.1,0.8,1.7,1.3c0.1,0.1,0.2,0.2,0.3,0.3c31.1,23.7,64.7,53.2,102.5,88.2c16.4,15.2,34,26.8,51.9,35.5
										c1.3,0.6,2.5,1.2,3.8,1.8c0.5,0.2,1,0.5,1.6,0.7c0.1,0,0.2,0.1,0.2,0.1c19.8,9,39.7,14.7,58.6,18.1
										c5.2,0.9,10.3,1.7,15.3,2.3c12.4,1.6,24.1,2.2,34.7,2.3c50.1,0.4,88.1-11.1,88.5-11.2l0.5,1.6c-0.4,0.1-38.6,11.7-89,11.3
										c-9-0.1-18.7-0.5-29-1.6l0,0c-0.2,0-0.5-0.1-0.7-0.1c-1.2-0.1-2.5-0.3-3.7-0.4l0,0c-8.1-1-16.5-2.3-25-4.2c0,0-0.1,0-0.1,0
										c-35.8-7.6-74.8-23.6-108.7-55.1c-11.6-10.8-22.9-21.1-33.8-30.8c0,0-0.1-0.1-0.1-0.1c-1-0.9-1.9-1.7-2.9-2.6l0,0
										c-4.5-4-9-7.9-13.3-11.7l-0.1,0c0,0,0,0,0,0c-56.6-49.3-104-83.1-149.7-99.9c-0.1,0-0.3-0.1-0.4-0.1l0,0
										c-1-0.4-2-0.7-2.9-1.1l0,0c-3.9-1.4-7.9-2.6-11.8-3.8c-16-4.6-32-7-48.2-7.2c-38-0.5-69.7,7.3-95.1,18.1
										c-40.9,17.3-65.4,42.1-73.4,51.2c-1.2,0.8-2.3,1.6-3.1,2.3l0,0c0-0.1,0-0.6,0-1.4l0,0c5.8-6.8,31.3-35,76.6-54
										C853,491.9,875,485.6,900.4,483.1z"/><path fill="#c0a816" d="M852.5 449c0 0 .6 0 1.7.1 11.4.7 75.9 5.8 68.9 32.7 0 0 0 0 0 .1-.1.3-.2.6-.3.9 0 0-.4.1-1.1.1-2.9.4-11.2 1.1-21.2.1l0 0c-17-1.8-38.9-9-47.4-32.7C852.8 449.9 852.7 449.5 852.5 449zM977.4 490.8c3.8.1 7.6.7 11.3 1.8.1 0 .3.1.4.1 1 .3 2 .7 3 1.1 0 0 0 0 0 0l0 0c0 0 .1 0 .1.1.4.2.8.3 1.2.5 0 0-.3.4-.8 1.1-.1.1-.1.2-.2.3-5.3 6.6-30.2 34.2-67.6 16.7-.4-.2-.8-.4-1.2-.6 0 0 .6-.5 1.7-1.3C931.7 505.8 954.4 490.1 977.4 490.8zM1047.5 484.8c1.3.4 2.5.9 3.7 1.3 43.8 16.5 41 55.4 39.8 63.8-.1.5-.1.9-.2 1.2-.1.3-.1.4-.1.4l-1.3-.9c-3.7-2.5-7-5.2-10.1-8 0 0 0 0 0 0-24.2-22.1-30.6-50.8-31.7-56.7C1047.5 485.1 1047.5 484.8 1047.5 484.8zM1142.3 595.6C1142.3 595.6 1142.3 595.6 1142.3 595.6c5.3 3 10.5 7 15.8 12.4.4.4.8.8 1.2 1.3 0 0-.2.2-.6.7 0 0 0 0 0 0-4.2 3.8-27.2 21.2-76.8-9.1-.3-.2-.6-.4-.9-.6l0 0c0 0 .8-.6 2.4-1.6C1090.8 593.8 1115.8 580.7 1142.3 595.6zM1217.3 607.3c0 0 .5.4 1.4 1 8.3 6.5 51.4 42.1 32.4 69-.1.1-.1.2-.2.3-.2.3-.4.5-.6.8l0 0c-.1 0-.4-.2-.9-.6-.8-.5-2.2-1.5-3.9-2.7-11.8-8.8-40.6-34.3-28.7-66.6C1217 608.2 1217.1 607.8 1217.3 607.3L1217.3 607.3zM1301.1 695.9c2.7-.2 5.6-.2 8.6-.1 4.7.3 9.8 1 15.3 2.3 1.3.3 2.7.7 4 1.1.5.2 1 .3 1.5.5l0 0c-.1.1-.2.4-.6.8-.1.1-.2.2-.3.4-4.6 5.8-27.1 30.9-67.4 19.6l-1.5-.5 0 0c.1-.1.3-.5.6-1.1C1264 714.4 1275.7 697.8 1301.1 695.9z"/><path fill="#549208" d="M1260.7 720L1260.7 720c.1-.1.3-.5.6-1.1l64.9-18.8 0 0 2.7-.8 1.3-.4.2.8 0 0 .2.8 0 0 0 0-1 .3-67.4 19.6L1260.7 720zM1217.3 607.3c0 0 .5.4 1.4 1 2.6 6.2 13.4 31.5 21.5 38.2 3.3 2.7 5.6 7.2 7.3 12 2.6 7.6 3.4 15.9 3.6 18.8 0 .1 0 .3 0 .4 0 .3 0 .6 0 .6l-.8 0 0 0-.9.1c0 0 0-.2 0-.6 0-.2 0-.6-.1-.9-.5-5.3-2.5-22.7-10.2-29-8.8-7.2-20.1-34.1-22.3-39.4C1217 608.2 1217.1 607.8 1217.3 607.3L1217.3 607.3zM1083.1 598.7c19.7-4.9 60 5.3 72.6 8.7l0 0c.9.3 1.7.5 2.3.6.8.2 1.2.4 1.4.4l-.2.8-.2.8c0 0-.1 0-.3-.1 0 0-.1 0-.1 0-5.4-1.6-56.4-15.7-76.8-9.1-.3-.2-.6-.4-.9-.6l0 0C1080.7 600.3 1081.6 599.7 1083.1 598.7zM1047.5 484.8c1.3.4 2.5.9 3.7 1.3 19.2 13.7 36.6 55.7 39.8 63.8.3.7.5 1.2.5 1.3l-.4.1-1.2.5c0 0-.2-.5-.5-1.2-.1-.2-.2-.5-.3-.8-4-9.8-22.4-53.2-41.5-64C1047.5 485.1 1047.5 484.8 1047.5 484.8zM925.4 510.6l63.8-16 0 0 3-.8 0 0 1.1-.3.2.8 0 .1.2.8-1 .3-.6.1 0 0L925 512.5c-.4-.2-.8-.4-1.2-.6C923.7 511.9 924.3 511.4 925.4 510.6zM852.5 449c0 0 .6 0 1.7.1 4.3 2.8 19.2 11.8 35.1 15.5 17.4 4 31.1 15.1 33.6 17.3 0 0 .1.1.1.1.2.2.3.3.3.3l-.6.7-.6.6c0 0-.2-.2-.6-.5-.3-.3-.8-.7-1.4-1.1-4.6-3.6-16.6-12.2-31.3-15.6-16.6-3.8-32-13.4-36-15.9C852.8 449.9 852.7 449.5 852.5 449z"/><g><path fill="#549208" d="M802,660.9c-4.7-3-11.3-8.1-17-15.7c-9.3-12.2-17.8-33.2-5.7-64.2c22.5-57.8-1.3-101.7-1.6-102.1
								l2.1-1.2c0.3,0.5,6.3,11.4,9.6,29.8c3,16.9,4.1,43.6-7.9,74.4c-9.4,24.1-7.5,44.9,5.4,61.9c9.7,12.7,22.2,18.4,22.3,18.4
								l-1,2.2C808,664.3,805.5,663.2,802,660.9z"/><path fill="#549208" d="M778.6 586.2c0 0 8.2-34.5-6.6-34C757.3 552.6 778.6 586.2 778.6 586.2zM790.1 533c0 0 16-34.7 19.2-18C812.5 531.8 790.1 533 790.1 533zM775.3 620.8c0 0 10-28.7 13.8-18.1C793 613.3 775.3 620.8 775.3 620.8zM782.2 639.1c0 0-27.9-5.9-28.5 2.1C753.2 649.1 782.2 639.1 782.2 639.1z"/><path fill="#e04037" d="M787.4,456.9c-3.9-5.7,27.7-25.7,23.5-39c-3.6-11.4-33.2-16.9-42.2-6.5c-9.7,11.2,6,39.1,1.9,41
							c-3.5,1.6-11.5-20-24.7-20.7c-12.5-0.6-27.1,17.9-23.5,27.8c4.5,12.2,35.9,8.8,36.6,15.8c0.7,6.7-28.5,9.8-29.9,21.3
							c-1.4,11.3,24.6,28.6,37,22.2c12.8-6.7,8.4-37.5,13.4-37.9c4.2-0.3,4.3,21.5,15.3,25.5c11.1,4,33.7-10.2,33-27.9
							c-0.4-8.9-6.7-17.8-14.9-21.3C801,452.2,789.8,460.4,787.4,456.9z"/><circle cx="774.2" cy="465.8" r="10.4" fill="#f37700"/></g><g><path fill="#de8808" d="M1208,970.4c-1.3,7.2-5.4,14.1-13.6,20.5c-1.1,0.9-2.2,1.8-3.3,2.8c-0.6,0.5-1.2,1.1-1.8,1.7
										c-13.4,12.7-28,35.3-21,55.5c2.1,6,2.6,11.8,2,17.4c-0.1,1-0.3,2-0.5,3c-8.7,44.9-94.1,75.9-105.6,79.9
										c-0.8,0.3-1.3,0.4-1.3,0.4l-0.9-1.2l-30.4-41.3l-15.4-20.9c0,0,0,0,0,0l-32.2-43.7l-1.5-2.1l-17.6-23.9
										c0,0-29.3-38.5-23.5-65.9c0-0.2,0.1-0.5,0.2-0.7c0-0.1,0-0.2,0.1-0.3c0-0.1,0.1-0.3,0.1-0.4c0.1-0.4,0.2-0.8,0.4-1.3
										c0,0,0,0,0-0.1c0-0.1,0-0.1,0-0.2c0.1-0.4,0.2-0.7,0.4-1.1c0.1-0.3,0.2-0.5,0.3-0.8c0.1-0.3,0.2-0.6,0.4-0.8
										c0.1-0.3,0.2-0.5,0.4-0.8c0.3-0.5,0.5-1.1,0.8-1.6c0.1-0.3,0.3-0.5,0.5-0.8c0.1-0.1,0.1-0.2,0.2-0.4
										c0.1-0.1,0.2-0.2,0.2-0.4c0.2-0.3,0.3-0.5,0.5-0.8c0.4-0.5,0.7-1,1.1-1.5c0.1-0.2,0.2-0.3,0.4-0.4c0.1-0.1,0.2-0.3,0.4-0.4
										c0.1-0.2,0.3-0.3,0.4-0.5c0.1-0.2,0.3-0.3,0.5-0.5c0.3-0.4,0.7-0.7,1-1c5.4-5,10.6-8.4,15.7-10.9
										c13.7-6.7,26.1-6.5,35.4-10.6c0.7-0.3,1.4-0.6,2-1c0.1,0,0.1,0,0.2,0c11.8-0.3,22-1.3,24.1-10.2c0.1-0.5,0.2-0.9,0.3-1.4
										c0.1-0.4,0.1-0.8,0.1-1.2c2.8-28.8-31.8-47.9-25.7-78.2c0.8-3.8,2.6-6.6,5.3-8.5c0.8-0.6,1.7-1.1,2.7-1.6
										c20.8-9.7,72,12.1,52.4-27.9c-18.9-38.7-0.2-54.9,7.7-59.7c1.6-1,2.8-1.5,3-1.6c0,0,0.1,0,0.1,0c5.3,0.1,10.7,2,15.3,6.1
										c15.5,13.7,17.9,52.9,26.5,56.5c6.2,2.6,11.8,4.8,17,6.8c0.8,0.3,1.5,0.6,2.3,0.9c19.4,7.6,32.1,12.4,41.6,21.9
										c0,0,0.1,0.1,0.1,0.1c0.7,0.7,1.3,1.4,1.9,2.2h0c5.7,7.5,8,20,8.3,34.2v0c0,0.8,0,1.7,0,2.5c0,11.1-1.1,23-2.8,34.3
										c-0.3,1.8-0.3,3.6-0.2,5.4c0.1,0.8,0.2,1.6,0.3,2.4c2.8,17.5,20.5,38.7,24.3,58.8c0.2,0.9,0.3,1.9,0.4,2.8
										C1208.6,963.7,1208.6,967.1,1208,970.4z"/><path fill="#de7408" d="M1208,970.4c-1.3,7.2-5.4,14.1-13.6,20.5c-1.1,0.9-2.2,1.8-3.3,2.8c-0.6,0.5-1.2,1.1-1.8,1.7
									c-13.4,12.7-28,35.3-21,55.5c2.1,6,2.6,11.8,2,17.4c-0.1,1-0.3,2-0.5,3c-8.7,44.9-94.1,75.9-105.6,79.9
									c-0.8,0.3-1.3,0.4-1.3,0.4l-0.9-1.2l-30.4-41.3c30.8-19,71.3-4.7,94.9-36.3c16.9-22.6,3.3-39.5,23-66.3
									C1163.8,986.9,1189.1,971.4,1208,970.4z"/><path fill="#dea208" d="M1016.1 1088.3l-32.2-43.7-1.5-2.1-17.6-23.9c0 0-29.3-38.5-23.5-65.9 0-.2.1-.5.2-.7 0-.1.1-.2.1-.3 0-.1.1-.3.1-.4.1-.4.2-.8.4-1.3 0 0 0 0 0-.1 0-.1 0-.1.1-.2.1-.3.2-.7.4-1.1.1-.3.2-.5.3-.8.1-.3.2-.6.4-.8.1-.3.2-.5.4-.8.3-.5.5-1.1.8-1.6.1-.3.3-.5.5-.8.1-.1.1-.3.2-.4.1-.1.2-.2.2-.4.2-.3.3-.5.5-.8.4-.5.7-1 1.1-1.5.1-.1.2-.3.4-.4.1-.1.2-.3.4-.4.1-.2.3-.3.4-.5.1-.2.3-.3.5-.5.3-.3.7-.7 1-1 5.4-5 10.6-8.4 15.7-10.9-3.7 6.8-4.2 17.6 1 34.9.3 1 .6 2.1 1 3.2.2.8.5 1.5.7 2.3l0 0c9.2 28.4 18.1 52.3 25.8 71.1.3.8.6 1.5.9 2.3C1006.9 1070.8 1015.6 1087.4 1016.1 1088.3zM1072.9 725.2C1072.9 725.2 1072.9 725.2 1072.9 725.2c-.4.2-1.5.7-3.1 1.6-7.9 4.8-26.5 21-7.7 59.7 19.5 40-31.6 18.2-52.4 27.9-1 .4-1.9 1-2.7 1.6-1.2.8-2.2 1.8-3 3-.5.6-.9 1.4-1.2 2.1-.5 1-.8 2.1-1 3.3-6.1 30.3 28.5 49.4 25.7 78.2 0 .4-.1.8-.1 1.2-.1.5-.2 1-.3 1.4-2.1 8.9-12.4 9.9-24.1 10.2-.1 0-.1 0-.2 0 0 0 .1-.1.2-.1 3.8-2.1 7-5.2 9.4-10.1 1.2-2.4 1.6-5.2 1.6-8.2 0-.9-.1-1.8-.2-2.8-3-23.4-34.6-58.6-34.1-72.1.1-3.1.4-6.1.9-9 .1-.8.3-1.5.5-2.3 2.7-11 9.9-20.4 28.5-26.4 24.8-8 33.5-20.3 36.6-38 2-11.5 12.8-20.2 24.4-21.1C1071.2 725.2 1072 725.2 1072.9 725.2 1072.9 725.2 1072.9 725.2 1072.9 725.2z"/><path fill="#de6608" d="M1064.1,1151.3c-0.1,0.4-0.1,0.7-0.1,0.7l-2.3-0.5c0-0.1,0.1-0.4,0.2-1c1.5-6.8,10.3-48.1,16.2-104.8
										c0.1-0.8,0.2-1.6,0.2-2.5c2.1-20.5,3.8-43,4.7-66.5c0,0,0,0,0,0c0.1-1.9,0.1-3.9,0.2-5.8l0,0c0.4-13.4,0.5-27.1,0.3-40.9
										c-0.4-21.1-1.6-40.5-3.1-58.2c-0.1-1.3-0.2-2.5-0.4-3.8c-2.2-23.7-5-44.4-7.5-62.6c-4.8-35.5-8.3-60.8-2.7-78.5
										c0.2-0.5,0.3-1,0.5-1.5c0.9-0.1,1.7-0.1,2.5-0.1c0,0,0,0,0,0c-6.5,17.3-3,43,2,79.8c3.1,22.6,6.7,49.1,8.9,80.2
										c0.1,1.3,0.2,2.7,0.3,4c0.8,12.7,1.5,26.2,1.7,40.5c0.1,7,0.2,13.9,0.1,20.7c0,0.8,0,1.6,0,2.4
										c-0.6,60.9-7.6,116.8-13.5,153.7c-0.1,0.8-0.3,1.7-0.4,2.5C1068.2,1132.6,1064.9,1147.9,1064.1,1151.3z"/><path fill="#de6608" d="M1082.4 870.5l-1.7 1.6c-.4-.4-43.4-34.6-77.9-50.9-8.2-3.9-15.9-6.8-22.4-7.9.1-.8.3-1.5.5-2.3 6.8 1.2 14.8 4.2 23.2 8.1C1038.6 835.2 1080.7 868.6 1082.4 870.5zM1177.8 819.8c-10.8-.3-21.1 2.5-30.7 7.1-.7.4-1.5.7-2.2 1.1-34.2 17.5-58.4 57.4-60.8 61.3-.1.2-.2.3-.2.3l-2-1.2c0 0 .7-1.2 1.9-3.2 4-6.4 14.1-21.4 28.2-35.5 3.3-3.3 6.6-6.3 9.9-9.1.7-.6 1.4-1.2 2.1-1.8 17.2-13.9 34.7-21.2 51.7-21.4 0 0 .1.1.1.1C1176.5 818.2 1177.2 819 1177.8 819.8zM1079.9 1043.8l-.9 2.2c0 0-.3-.1-.8-.4l0 0c-4.1-1.8-22.4-10-45.5-24.7-.7-.5-1.4-.9-2.2-1.4-19.7-12.8-42.5-30.2-62.6-52.1l0 0c-7.5-8.2-14.7-17.1-21.1-26.6.1-.1.2-.3.4-.4.1-.1.2-.3.4-.4.1-.2.3-.3.4-.5.1-.2.3-.3.5-.5 5.5 8.1 11.4 15.8 17.8 23 14.9 17 31.6 31.4 47.6 43.2.8.6 1.5 1.1 2.3 1.7l0 0c29.5 21.4 55.8 33.5 62.3 36.4l0 0C1079.3 1043.6 1079.8 1043.8 1079.9 1043.8zM1208.2 960.3c-43.2-20.7-113.3-8.9-122.2-7.3-.6.1-.9.2-.9.2l-.5-2.3c0 0 .5-.1 1.4-.3 3.7-.7 14.4-2.4 28.5-3.6l0 0c1-.1 2-.2 3-.2l0 0c8.4-.6 17.9-1.1 27.8-.9 19.5.3 43.2 2.9 62.5 11.7C1207.9 958.4 1208.1 959.4 1208.2 960.3zM1169.8 1071.3c-40.7 24.3-91.5 36.4-97.8 37.9-.4.1-.6.1-.6.1l-.5-2.3c.1 0 .6-.1 1.6-.4 9.4-2.2 58.8-14.6 97.8-38.4C1170.1 1069.3 1170 1070.3 1169.8 1071.3z"/><path fill="#de6608" d="M1183.4 898.6c-39.6 12.2-60.8 40.4-66 48-.8 1.2-1.2 1.9-1.3 1.9l-2-1.2c0 0 .1-.2.3-.5 2.9-4.6 24.8-37.3 68.7-50.6C1183.2 897.1 1183.3 897.8 1183.4 898.6zM1191 993.7c-.6.5-1.2 1.1-1.8 1.7-33.8-18.2-41.5-45.6-41.6-45.9l2.3-.6C1150 949.2 1157.6 976 1191 993.7zM1124 838.9c.2 1.2.3 1.9.3 2l-2.3.5c0 0-.1-.3-.1-.7-.7-4.2-3.6-26.1 9.9-46 .8.3 1.5.6 2.2.9C1121.8 813.2 1123.2 832.7 1124 838.9zM1186.1 856.6c-21.6-8.5-37.8-24.9-41.2-28.6-.4-.5-.6-.7-.7-.7l1.8-1.6c0 0 .4.5 1.1 1.2 4.1 4.3 19.1 19.1 39 27.1l0 0C1186.1 854.9 1186.1 855.7 1186.1 856.6zM1016 1007.5l-2.4-.2c0-.1.1-.9.1-2.2.5-11 1.8-59.6-13.2-88.7.7-.3 1.4-.6 2-1 .1 0 .1-.1.2-.1 0 0 0 .1 0 .1 16.3 31.5 13.7 84 13.2 91.4C1016 1007.1 1016 1007.4 1016 1007.5zM1033.2 1020.5c-.1.1-.3.2-.6.4-3.3 2.2-18.8 12.3-38.1 19.9-3.5 1.4-7.1 2.7-10.7 3.8l-1.5-2.1c3.9-1.2 7.7-2.5 11.4-4 17.7-7 32.4-16.1 36.8-19 .9-.6 1.4-.9 1.4-.9L1033.2 1020.5zM1085.3 976.1l-2.2.8c0 0 0-.1-.1-.2 0 0 0 0 0 0-1.2-3.4-16.6-44-56.1-71.4-4.1-2.9-8.6-5.6-13.3-8.2 0-.9-.1-1.8-.2-2.8 4.9 2.6 9.5 5.4 13.9 8.4 33.7 23 50.4 55.6 55.9 68.2C1084.6 974.1 1085.3 976 1085.3 976.1z"/></g><g><path fill="#e04037" d="M1340.2,542.5c2.9-6.7-34.3-21.4-32.6-36.2c1.5-12.7,31.5-24.5,43-15.4c12.4,9.8,1.6,42.3,6.3,43.5
							c4,1,8-23.4,21.7-26.7c13-3.2,32.2,13.3,30.4,24.5c-2.2,13.8-36,16.5-35.3,24c0.6,7.2,32,4.5,35.8,16.3
							c3.8,11.6-20.1,35.1-34.4,30.8c-14.9-4.5-16.4-37.8-21.7-37.2c-4.5,0.5-0.2,23.5-10.9,29.9c-10.9,6.5-37.6-3.9-40.3-22.7
							c-1.4-9.4,3.4-20.1,11.3-25.4C1324.9,540.3,1338.4,546.6,1340.2,542.5z"/><circle cx="1355.9" cy="549.2" r="11.1" fill="#f37700"/><path fill="#549208" d="M1360.9,800.8l-1.1-1.6c0.1-0.1,14.3-10.2,23.2-28.1c8.2-16.6,13.4-43.5-8.1-77.6
								c-21.9-34.8-26.8-67.6-27.1-89c-0.3-23.2,4.6-38.5,4.6-38.6l1.9,0.6c-0.2,0.6-19.1,60.3,22.3,126c22,35,16.6,62.6,8.1,79.6
								C1375.6,790.4,1361.1,800.7,1360.9,800.8z"/><path fill="#549208" d="M1379 698.3c0 0-18.2-40.3 0-43.3S1379 698.3 1379 698.3zM1352.3 635.9c0 0-27.8-38.7-27.8-17.5S1352.3 635.9 1352.3 635.9zM1391.2 740c0 0-19-32.8-21.2-18.9S1391.2 740 1391.2 740zM1387 764.1c0 0 32.8-13.8 35.4-4.2C1425 769.5 1387 764.1 1387 764.1z"/></g><g><path fill="#547408" d="M1056.1,1105.2L1056.1,1105.2c0,0.1,0,0.2-0.1,0.3c-0.9,6.1,0,9.9,2.1,12.4c0.9,1.1,2,1.9,3.2,2.6
										c0.3,0.1,0.6,0.3,0.9,0.4c6.7,2.9,17.1,1.4,23.2,4.7c0.2,0.1,0.4,0.3,0.6,0.4l0,0c0.9,0.6,1.8,1.4,2.4,2.3
										c2.7,3.8,3.8,7.9,3.5,11.6c0,0.2,0,0.4-0.1,0.6c-0.3,1.9-1,3.7-2.1,5.3c-1.7,2.4-4.4,4.3-8.2,5.3c-0.3,0.1-0.5,0.1-0.8,0.2
										c-2.3,0.5-5,0.7-8.1,0.5c-4.4-0.3-9.1,0.6-13.5,2.4c0,0,0,0,0,0c-0.3,0.1-0.5,0.2-0.8,0.3c-7.9,3.4-15.1,9.5-18.9,16.2
										c-2.1,3.7-3.2,7.7-2.8,11.5c0.2,1.5,0.6,3,1.2,4.5c0,0.1,0.1,0.2,0.1,0.3c2.7,5.4,6.6,8.6,10.8,10.6l0,0
										c0.3,0.1,0.5,0.2,0.8,0.4c5.3,2.4,10.9,3.1,14.7,4.5c0.4,0.1,0.7,0.3,1,0.4c1.1,0.5,2,1.1,2.7,1.8c0.8,0.9,1.3,2.1,1.6,3.5
										c0.2,0.7,0.2,1.5,0.3,2.4c0,0.2,0,0.4,0,0.6c-0.1,3.9-1.6,8.3-4.8,11.2c-0.2,0.1-0.3,0.3-0.5,0.4c-2.6,2.2-6.3,3.3-11,2.3
										c-2-0.4-4-0.9-6.1-1.2l0,0c-0.3-0.1-0.6-0.1-0.9-0.1c-3.8-0.6-7.6-1-11.2-0.7c-9.1,0.7-16.8,5.6-18.5,20.7
										c-0.1,1.3-0.2,2.6-0.2,3.8c0,0.2,0,0.4,0,0.6c0.5,9.7,6.4,15.7,13.2,20.1c0.4,0.3,0.9,0.6,1.3,0.9c0,0,0,0,0,0
										c7.4,4.6,15.4,7.6,17.7,11.8c4.1,7.6,5,14.1,5.2,15.8c0,0.3,0,0.4,0,0.4s0.6-0.6,1.7-1.5c0,0,0,0,0,0
										c2.1-1.8,6-4.8,11.5-7.9c3.2-1.8,6.9-3.6,11-5.1c6-2.2,13-3.9,20.7-4.3c0.2,0,0.5,0,0.7,0c5.7-0.3,11.8,0.2,18.2,1.6
										c6.3,1.4,11.6,2.2,16.2,2.5c0.2,0,0.5,0,0.7,0c13.5,0.8,19.9-2.7,23.4-7.2l0,0c0.1-0.1,0.1-0.2,0.2-0.2
										c2.1-2.9,3.1-6.3,3.9-9.3c0.7-2.4,0.3-4.8-0.8-7.3c-1.6-3.4-4.6-6.8-8.6-10l0,0c-0.2-0.2-0.4-0.3-0.6-0.5c0,0,0,0,0,0
										c-4.3-3.4-9.5-6.6-15-9.5c-2.1-1.1-3.8-2.4-5.2-3.8c-0.2-0.2-0.4-0.4-0.6-0.6c-0.9-0.9-1.6-1.9-2.3-2.8
										c-2.5-3.9-3.1-8.1-2.3-11.6c0-0.2,0.1-0.4,0.2-0.6c0.5-1.7,1.4-3.1,2.6-4.3c1.3-1.3,3.1-2.1,5.2-2.4c1-0.1,1.9-0.3,2.8-0.5
										c0.2,0,0.4-0.1,0.6-0.2c4.8-1.2,8.1-3.3,14.3-1.9c0.2,0,0.4,0.1,0.6,0.1c4,1,9.1,3.4,16.5,8.2c1.2,0.8,2.4,1.6,3.6,2.3
										c0.6,0.4,1.2,0.8,1.8,1.1c11.6,7.3,20.5,12.2,27.4,12.1c0.2,0,0.3,0,0.5,0l0,0c4.3-0.2,7.8-2.2,10.7-6.8
										c1-1.5,1.8-3.1,2.4-4.8c0-0.1,0.1-0.2,0.1-0.3c1.1-3,1.6-6.2,1.8-9.5c0.1-2.1,0-4.2-0.3-6.3c-0.1-0.8-0.2-1.5-0.3-2.2
										c-1.5-8.3-5.5-15.6-11.2-18.4c-4-2-10.1-2.9-16.5-3.6l0,0c-0.3,0-0.6-0.1-1-0.1c-10.9-1.1-22.3-1.8-25-6.5
										c-0.7-1.2-1.4-2.4-2.1-3.6c-1.6-2.9-3-6-3.3-9.2l0,0c0-0.1,0-0.2,0-0.3c-0.1-0.8-0.1-1.7,0-2.5c0.2-1.4,0.6-2.8,1.3-4.2
										c1.1-2.2,3-4.3,5.9-6.4c1.4-1.1,3.3-2.3,5.4-3.7l0,0c0.2-0.2,0.5-0.3,0.7-0.5c5.5-3.5,12.5-7.9,19.1-12.7l0,0
										c0.2-0.2,0.4-0.3,0.6-0.5c12.5-9.4,22.7-20.2,15.1-29.5l0,0c-0.1-0.1-0.2-0.2-0.3-0.3c-1-1.2-2-2.2-2.9-3.2
										c-0.3-0.3-0.6-0.5-0.8-0.8c-5.2-4.8-10.3-6.8-14.9-7.5c-0.3,0-0.5-0.1-0.8-0.1c-5.7-0.7-10.6,0.5-13.8,0.6
										c-1.7,0.1-4.4,0.3-7.7,0.3c-0.3,0-0.6,0-0.8,0c-6.8,0-15.4-0.6-20.7-3.9c-0.2-0.1-0.4-0.2-0.5-0.4c-2-1.4-3.4-3.1-4-5.4
										c-0.9-3.4-0.6-8.1,0.3-13.2c0.1-0.4,0.2-0.9,0.2-1.3c0.1-0.3,0.1-0.6,0.2-0.9c2.3-11.8,7.3-24.9,8.1-28.7
										c0.3-1.3,0.4-2.7,0.3-4l0,0c0-0.4-0.1-0.7-0.1-1.1l0,0c-0.7-5.1-3.9-10-9.1-12.8c-0.1-0.1-0.2-0.1-0.3-0.2
										c-3.5-1.8-7.8-2.6-12.8-1.8c-0.2,0-0.4,0.1-0.6,0.1c0,0,0,0,0,0c-1.7,0.3-3.5,0.8-5.3,1.5c-2.4,0.9-4.6,1.9-6.4,3
										c-2.2,1.3-4,2.6-5.5,4c-0.1,0.1-0.3,0.3-0.4,0.4c-6.3,6.4-6,14-3.4,21.4c0.9,2.6,1.8,6,2.4,9.5c0,0.2,0.1,0.5,0.1,0.7
										c0.7,5,0.8,10.4-0.8,14.8c-0.1,0.2-0.2,0.5-0.3,0.7l0,0c-0.5,1.3-1.2,2.5-2,3.6c-1.6,2.1-3.9,3.8-7,4.7
										c-0.2,0.1-0.5,0.1-0.8,0.2c-0.6,0.1-1.2,0.3-1.9,0.4c-5.8,0.9-11.5,0.9-16.7,1.4c-0.3,0-0.6,0.1-0.9,0.1
										C1066.6,1085.3,1058.6,1088.9,1056.1,1105.2z"/><path fill="#548808" d="M1127.8 1029.6c-2.3 7.7 6.8 12.1 6.8 25.3 0 8.7-3.7 18.7-10.9 24.8-12.1 10.5-25.9 3-31.4 11.5-4.9 7.7 1 21.8 9.5 29.4 7.8 7 20.5 11 29.6 6.5 8-4 7-11.6 12.9-18.9 13.7-17.3 43.1-5.7 58.3-10.4-5.2-4.8-10.3-6.8-14.9-7.5-.3 0-.5-.1-.8-.1-5.7-.7-10.6.5-13.8.6-1.7.1-4.4.3-7.7.3-.3 0-.6 0-.8 0-6.8 0-15.4-.6-20.7-3.9-.2-.1-.4-.2-.5-.4-2-1.4-3.4-3.1-4-5.4-.9-3.4-.6-8.1.3-13.2.1-.4.2-.9.2-1.3.1-.3.1-.6.2-.9 2.3-11.8 7.3-24.9 8.1-28.7.3-1.3.4-2.7.3-4l0 0c0-.4-.1-.7-.1-1.1l0 0c-.7-5.1-3.9-10-9.1-12.8-.1-.1-.2-.1-.3-.2C1133.4 1021.6 1129.1 1025.2 1127.8 1029.6zM1085.6 1166.3c-1.5 6 14.9 18.6 33.2 21.6 17.9 2.9 21.3-6.2 40.8-3.6 10.4 1.3 10.7 4.1 36.2 12.5 9.9 3.3 17.2 5.7 21.9 6.8-1.5-8.3-5.5-15.6-11.2-18.4-4-2-10.1-2.9-16.5-3.6l0 0c-.3 0-.6-.1-1-.1-10.9-1.1-22.3-1.8-25-6.5-.7-1.2-1.4-2.4-2.1-3.6-1.6-2.9-3-6-3.3-9.2l0 0c0-.1 0-.2 0-.3-.1-.8-.1-1.7 0-2.5-2.5-.6-5.3-1.1-8.2-1.5-15.3-2.2-26.6-.5-44 2.2C1093 1162.3 1086.3 1163.4 1085.6 1166.3z"/><path fill="#546508" d="M1104.5,1047.9c0.9,2.6,1.8,6,2.4,9.5c0,0.2,0.1,0.5,0.1,0.7c0.7,5,0.8,10.4-0.8,14.8
									c-0.1,0.2-0.2,0.5-0.3,0.7l0,0c-0.5,1.3-1.2,2.5-2,3.6c4.3-0.4,8.7-2.8,10.8-6.2c4-6.8-4.1-13.1-4.7-28.7
									c-0.2-6.3,0.7-14.4,3.8-20.2c-2.2,1.3-4,2.6-5.5,4c-0.1,0.1-0.3,0.3-0.4,0.4C1101.5,1032.9,1101.9,1040.5,1104.5,1047.9z"/><path fill="#548408" d="M1017 1243.7c-.1 1.3-.2 2.6-.2 3.8 0 .2 0 .4 0 .6.5 9.7 6.4 15.7 13.2 20.1.4.3.9.6 1.3.9 0 0 0 0 0 0 7.4 4.6 15.4 7.6 17.7 11.8 4.1 7.6 5 14.1 5.2 15.8 0 .3 0 .4 0 .4s.6-.6 1.7-1.5c0 0 0 0 0 0 2.1-1.8 6-4.8 11.5-7.9 3.2-1.8 6.9-3.6 11-5.1 6-2.2 13-3.9 20.7-4.3.2 0 .5 0 .7 0 5.7-.3 11.8.2 18.2 1.6 6.3 1.4 11.6 2.2 16.2 2.5.2 0 .5 0 .7 0 13.5.8 19.9-2.7 23.4-7.2l0 0c.1-.1.1-.2.2-.2 2.1-2.9 3.1-6.3 3.9-9.3.7-2.4.3-4.8-.8-7.3-9.4 2.1-20.2 15-41.1 15-13.6 0-12.2-5.4-34.7-9.4-25.8-4.6-35.8 1-45.5-7.8-6.5-5.9-9.6-15.1-8.5-23.2.5-3.6 1.8-6.8 3.6-9.7C1026.4 1223.8 1018.7 1228.6 1017 1243.7zM1069.2 1193c-14-9.3-25.6-9.1-32.5-10.8.2 1.5.6 3 1.2 4.5 0 .1.1.2.1.3 2.7 5.4 6.6 8.6 10.8 10.6l0 0c.3.1.5.2.8.4 5.3 2.4 10.9 3.1 14.7 4.5.4.1.7.3 1 .4 1.1.5 2 1.1 2.7 1.8.8.9 1.3 2.1 1.6 3.5 7.9 1.2 13.6 4.2 14.8 2.1C1086 1207.5 1078.4 1199 1069.2 1193zM1058.1 1117.9c.9 1.1 2 1.9 3.2 2.6.3.1.6.3.9.4 6.7 2.9 17.1 1.4 23.2 4.7.2.1.4.3.6.4l0 0c.9.6 1.8 1.4 2.4 2.3 2.7 3.8 3.8 7.9 3.5 11.6 0 .2 0 .4-.1.6-.3 1.9-1 3.7-2.1 5.3 1.5 1.4 2.8 2.2 3.8 1.7 4.3-2.3 1.7-25.3-11.4-32C1074.4 1111.5 1065.2 1114.5 1058.1 1117.9z"/><path fill="#546508" d="M1128 1207.8c-.3.8-.7 2.6 1.9 6.8 1.3-1.3 3.1-2.1 5.2-2.4 1-.1 1.9-.3 2.8-.5.2 0 .4-.1.6-.2 4.8-1.2 8.1-3.3 14.3-1.9.2 0 .4.1.6.1 4 1 9.1 3.4 16.5 8.2 1.2.8 2.4 1.6 3.6 2.3.6.4 1.2.8 1.8 1.1 11.6 7.3 20.5 12.2 27.4 12.1.2 0 .3 0 .5 0l0 0c4.3-.2 7.8-2.2 10.7-6.8 1-1.5 1.8-3.1 2.4-4.8 0-.1.1-.2.1-.3 1.1-3 1.6-6.2 1.8-9.5.1-2.1 0-4.2-.3-6.3-.8 1.7-1.6 3.3-2.4 4.7-4.5 8.7-6.7 13.1-11.3 14.6-11.8 3.9-20.1-16.4-44.5-22.2C1146.5 1199.8 1130.3 1201.5 1128 1207.8zM1156.1 1151.3c.2 1.7 1.8 2.9 3.8 3.9 1.1-2.2 3-4.3 5.9-6.4 1.4-1.1 3.3-2.3 5.4-3.7l0 0c.2-.2.5-.3.7-.5 5.5-3.5 12.5-7.9 19.1-12.7l0 0c.2-.2.4-.3.6-.5 12.5-9.4 22.7-20.2 15.1-29.5l0 0c-.1-.1-.2-.2-.3-.3-1-1.2-2-2.2-2.9-3.2.7 3.7.8 8-1 12.6-3 7.8-9.8 12.6-23.3 22C1164.1 1143.7 1155.5 1147 1156.1 1151.3z"/><path fill="#3d5708" d="M1122.5,1036.6c0.1,0.3,0.1,0.5,0.2,0.8l0,0c0.6,2.3,1.4,4.8,2.1,7.3c1.1,3.6,2.3,7.4,3.2,11.3
											c0.4,1.7,0.7,3.7,0.9,6c0,0.2,0,0.4,0,0.6c0.6,8.1,0.1,19.7-1.4,33.9c0,0.2-0.1,0.5-0.1,0.8c-1,8.8-2.3,18.6-4.1,29.3
											l-0.1,0.9c-1.7,10.5-3.8,21.7-6.2,33.6l0,0c-0.1,0.3-0.1,0.6-0.2,0.9l0,0c-1.4,6.9-2.9,14-4.5,21.2
											c-0.3,1.4-0.7,2.9-1,4.3c0,0.2-0.1,0.4-0.2,0.7c-3.3,13.2-7.8,25.8-12.9,37.5c0,0.1-0.1,0.2-0.1,0.3
											c-3.5,7.9-7.2,15.3-11,22.2c-0.2,0.5-0.5,0.9-0.7,1.3c-15,27-30.3,44.9-32.2,47.1c-0.1,0.1-0.2,0.2-0.2,0.2l0.2,0.2
											l0.2,0.2c0-0.1,0.6-0.6,1.5-1.7c0,0,0,0,0,0c4-4.8,15.7-19.3,27.7-40c0-0.1,0.1-0.1,0.1-0.2c1.3-2.2,2.5-4.4,3.8-6.7
											c0,0,0,0,0-0.1c4.9-8.9,9.7-18.8,14-29.3c0.1-0.2,0.2-0.5,0.3-0.7c2.6-6.6,5.1-13.4,7.2-20.4c0.1-0.3,0.2-0.7,0.3-1
											c1.3-4.5,2.5-9.1,3.6-13.8c2.7-12,5-23.6,7.1-34.5c0,0,0,0,0,0c0.1-0.4,0.1-0.7,0.2-1c2.8-14.7,5-28.3,6.6-40.3
											c0-0.3,0.1-0.5,0.1-0.8c1.7-13.3,2.7-24.7,2.9-33.7c0-0.2,0-0.5,0-0.7c0.1-7-0.3-12.5-1.2-16.4c-0.4-1.9-0.9-3.7-1.5-5.5
											c-0.1-0.2-0.1-0.4-0.2-0.6c-0.5-1.8-1.1-3.5-1.6-5.2c-3.5-11.4-6.3-20.4,0.9-26.8l-0.2-0.2c-0.2,0-0.4,0.1-0.6,0.1
											c0,0,0,0,0,0C1120.3,1022.5,1120.6,1029,1122.5,1036.6z"/><path fill="#3d5708" d="M1120.1 1149c.5-.5 48.9-47.5 86.6-46.6l0-.6c-38-.9-86.6 46.3-87.1 46.8L1120.1 1149zM1056.1 1105.8c.1 0 11-3 24.6-1.9 12.6 1.1 30.2 6.1 42.6 23.7l.5-.4c-12.6-17.8-30.4-22.8-43.1-23.9-13.8-1.2-24.7 1.9-24.8 1.9L1056.1 1105.8zM1038.3 1187.2c.1-.1 9-12.2 25.9-14.7 14.5-2.1 30.4 3.2 47.2 15.9l.4-.5c-17-12.8-33-18.2-47.7-16-17.1 2.5-26.2 14.9-26.3 15L1038.3 1187.2zM1109.1 1198.2c24.5-18.2 52.3-10.8 71.3-1.3 20.6 10.3 35.6 25.1 35.8 25.3l.4-.4c-.1-.1-15.2-15-35.9-25.4-12.2-6.1-23.9-9.4-34.8-9.9-13.7-.6-26.2 3.1-37.1 11.3L1109.1 1198.2zM1083.8 1256c.2 0 20.8-3.6 36.4-3.5 15.5 0 37.8 22.6 38 22.8l.4-.4c-.9-.9-22.7-23-38.4-23-15.7 0-36.3 3.5-36.5 3.5L1083.8 1256zM1022.8 1235.8c4.3 2.8 12.9 8.1 22.8 12.2 18.7 7.8 33.2 8.1 42.1.7l-.4-.5c-21.1 17.6-66.7-14.5-67.1-14.9l-.4.5C1019.8 1233.8 1020.9 1234.5 1022.8 1235.8z"/><path fill="#3d5708" d="M1203.1 1233.8l.4-.5c-18.5-15.1-14.2-31.8-14.2-32l-.6-.2C1188.6 1201.3 1184.3 1218.4 1203.1 1233.8zM1166.4 1190.8c0 0 0 .1 0 .3-.2 2.3-1.5 18.1 7.2 29.2.6.4 1.2.8 1.8 1.1-9.8-10.8-8.6-27.3-8.4-30.1 0-.2 0-.4 0-.4L1166.4 1190.8zM1138 1187.1c0 0 .1.1.2.1 1.7 1.3 15.4 11.9 14.6 22.4.2 0 .4.1.6.1.8-10.3-11.1-20.2-14.3-22.7-.4-.3-.7-.5-.8-.6L1138 1187.1zM1113.2 1194.8l-.2.6c0 0 .1 0 .1 0 1.8.5 19.1 6.1 24.8 16.3.2 0 .4-.1.6-.2-5.4-10-21.2-15.5-24.7-16.6C1113.5 1194.9 1113.3 1194.8 1113.2 1194.8zM1177.7 1194.9c-.1.1-.1.2-.1.3l.5.3c0 0 .1-.1.2-.3.9-1.6 5.5-9.2 11.7-13.5-.3 0-.6-.1-1-.1C1182.9 1186.1 1178.6 1193.4 1177.7 1194.9zM1127.3 1188.1l.6.2c.1-.3 7.3-26 30.7-25.7l0-.6C1134.7 1161.7 1127.4 1187.9 1127.3 1188.1zM1141.9 1130.2c0 0 .1.1.2.2.7.6 3.1 2.6 6.8 5 5.3 3.4 13.2 7.7 22.3 9.8l0 0c.2-.2.5-.3.7-.5-15.3-3.3-27.2-12.9-29.3-14.7-.2-.2-.3-.3-.3-.3L1141.9 1130.2zM1161.7 1116.6c.1 0 .2.2.5.3.2.1.5.3.8.5 4 2.6 16.7 10.6 28 14.5l0 0c.2-.2.4-.3.6-.5-11.9-4.1-25.6-12.8-28.8-14.9-.3-.2-.4-.3-.6-.4l-.2-.1-.2.3L1161.7 1116.6zM1080.7 1151.3c13.3 8.9 18.2 24.1 19.4 28.9.1.3.2.6.2.8.1.4.1.6.1.6l.6-.1 0-.1c0-.1-.1-.4-.2-.8-1-3.9-5.6-20-19.3-29.5C1081.3 1151.2 1081 1151.2 1080.7 1151.3zM1058.4 1154.5c11.8 4.8 20 15.2 21.9 17.9.3.4.5.6.5.7l.5-.3c0 0 0-.1-.1-.1-.9-1.3-9.3-13-22-18.4 0 0 0 0 0 0C1058.9 1154.3 1058.6 1154.4 1058.4 1154.5zM1064.3 1202.5c.4.1.7.3 1 .4 18.4-4.2 25.7-23.4 26.6-26.1.1-.2.1-.3.1-.3l-.6-.2c0 0 0 .1-.1.3C1090.6 1179 1083.2 1198.7 1064.3 1202.5zM1048.8 1197.6c.3.1.5.2.8.4 16.4-7.1 16.7-23.3 16.6-25.7 0-.2 0-.3 0-.3l-.6 0c0 0 0 .1 0 .3C1065.6 1174.7 1065.4 1190.8 1048.8 1197.6zM1064.6 1222.8c7.4 5.4 10.3 12 11.2 17.2 1.2 6.5-.2 12-.5 13.1 0 .1-.1.2-.1.2l.6.2c0 0 .1-.2.1-.5.8-3 4.3-19.4-10.9-30.6C1065 1222.5 1064.8 1222.7 1064.6 1222.8zM1046.7 1223.7c5.1 7.8 3.7 22.5 3.3 25.3 0 .3 0 .4-.1.4l.6.1c0-.1 0-.2 0-.3.3-2.4 2-17.1-3.1-25.3l0 0C1047.3 1223.8 1047 1223.8 1046.7 1223.7zM1030 1268.2c.4.3.9.6 1.3.9 0 0 0 0 0 0 17.5 2.4 26.9-14.4 28-16.5.1-.1.1-.2.1-.2l-.6-.3c0 0-.1.1-.2.3C1057.3 1255 1047.7 1271.6 1030 1268.2zM1016.8 1247.5c0 .2 0 .4 0 .6 10.5 1.9 18.5-4.4 18.6-4.4l-.4-.5C1034.9 1243.3 1027.1 1249.4 1016.8 1247.5zM1134.7 1256.3l.4.5c0 0 .1-.1.2-.2 1.3-1 8.8-6.9 17.8-8.4-.2-.2-.4-.3-.6-.5 0 0 0 0 0 0C1142.8 1249.5 1135.1 1256 1134.7 1256.3 1134.7 1256.3 1134.7 1256.3 1134.7 1256.3zM1101.8 1252.9l-.1.1.5.3c0 0 .1-.2.4-.5 1.9-2.9 12-16.4 29.6-18.4-.2-.2-.4-.4-.6-.6C1113 1236.2 1102.8 1251.4 1101.8 1252.9zM1128.5 1253.5c0 .1 0 .3.1.7.4 3.4 2 17.5 5.8 28.1.2 0 .5 0 .7 0-3.7-10.2-5.4-24-5.9-27.8 0-.3-.1-.5-.1-.7 0-.2 0-.3 0-.3L1128.5 1253.5zM1093.5 1254.1c0 0-.1.2-.1.5-.5 2.2-2.1 11.6 5.8 23.7.2 0 .5 0 .7 0-8.4-12.6-6.3-22.3-5.9-23.7 0-.1 0-.2.1-.2L1093.5 1254.1zM1176.8 1108.7c0 .1 0 .1 0 .1l.6.1c0 0 0-.2.1-.5.6-2.3 3.2-11.4 10.2-18.2-.3 0-.5-.1-.8-.1C1179.5 1097.6 1177.1 1107.6 1176.8 1108.7zM1151.6 1122.9C1151.6 1123 1151.6 1123 1151.6 1122.9l.6.1c0 0 0-.2 0-.6.3-3.2 2.2-19.5 13.2-31.4-.3 0-.6 0-.8 0C1153 1104 1151.7 1121.6 1151.6 1122.9zM1096.1 1082.2c18.4 13.1 13 27.8 12 30-.1.2-.1.3-.1.3l.6.3c0 0 0-.1.1-.2.9-2 6.7-17.1-11.8-30.6C1096.6 1082.1 1096.4 1082.1 1096.1 1082.2zM1076.7 1084.1c8.8 7.2 13.1 18.3 14 20.8.1.3.2.5.2.5l.6-.2c0 0 0-.1-.1-.2-.5-1.5-4.6-13.3-13.8-21.1C1077.2 1084 1077 1084.1 1076.7 1084.1zM1085.4 1125.6c.2.1.4.3.6.4l0 0c9.6-4.6 13.2-14.5 14.1-17.3.1-.3.1-.5.2-.6 0-.1 0-.2 0-.2l-.6-.1c0 0 0 0 0 .1 0 .1-.1.3-.2.6C1098.7 1111.2 1095.1 1121.2 1085.4 1125.6zM1061.3 1120.5c.3.1.6.3.9.4 13.4-3.9 18.2-15.2 18.9-16.9.1-.1.1-.2.1-.2l-.6-.2c0 0 0 .1-.1.4C1079.6 1106.1 1074.6 1117 1061.3 1120.5zM1126.7 1049.9l.2.6c0 0 .1 0 .3-.1 2-.8 15.3-6.6 21.3-17.1l0 0c0-.4-.1-.7-.1-1.1-5.6 10.7-19.1 16.6-21.3 17.6C1126.8 1049.8 1126.7 1049.9 1126.7 1049.9zM1107.9 1026.5c2.1 2.6 5.7 5.3 8.9 7.3 2.9 1.9 5.4 3.2 6 3.6.1 0 .1.1.1.1l.3-.6c0 0-.2-.1-.6-.3-2.3-1.3-10.7-6.1-14.2-10.5C1108.1 1026.2 1108 1026.4 1107.9 1026.5zM1129.4 1072.5l.3.6c0 0 .1 0 .2-.1.9-.4 5.5-2.7 10.1-6.1.1-.3.1-.6.2-.9-4.4 3.3-8.9 5.6-10.3 6.3C1129.6 1072.5 1129.4 1072.5 1129.4 1072.5z"/><g><path fill="#3d5708" d="M1106.9,1057.4c0,0.2,0.1,0.5,0.1,0.7c9.8,4,20.1,4.5,22,4.6c0.2,0,0.3,0,0.3,0l0-0.6
										c0,0-0.1,0-0.3,0C1126.9,1062,1116.5,1061.4,1106.9,1057.4z"/></g><g><path fill="#3d5708" d="M1106.2,1072.9c-0.1,0.2-0.2,0.5-0.3,0.7l0,0c7.2,10.8,20,22.4,21.5,23.7c0.1,0.1,0.1,0.1,0.1,0.1
										l0.4-0.5c0,0-0.2-0.2-0.5-0.4C1125,1094.3,1113,1083.2,1106.2,1072.9z"/></g><g><path fill="#3d5708" d="M1126.5,1107.1l0.3,0.5c0,0,0,0,0.1-0.1c1.2-0.7,12-7.4,17.1-20.4c-0.2-0.1-0.4-0.2-0.5-0.4
										c-4.6,11.9-14.1,18.5-16.4,20C1126.7,1107,1126.5,1107.1,1126.5,1107.1z"/></g><g><path fill="#3d5708" d="M1091.9,1140c0,0.2,0,0.4-0.1,0.6c16.2,4.9,24.3,20,25,21.4c0,0.1,0.1,0.1,0.1,0.1l0.6-0.3
										c0,0-0.2-0.3-0.4-0.8C1115.2,1157.7,1107,1144.5,1091.9,1140z"/></g><g><path fill="#3d5708" d="M1101.4,1218.7l0.1,0.6c0,0,0.1,0,0.1,0c1.5-0.3,15.5-2.7,25.5,0.2c0-0.2,0.1-0.4,0.2-0.6
										c-9.5-2.8-22.5-0.8-25.4-0.3C1101.7,1218.6,1101.5,1218.7,1101.4,1218.7z"/></g><g><path fill="#3d5708" d="M1069.9,1210.6c0,0.2,0,0.4,0,0.6c14.9,1.9,27.9,14.9,28,15l0.2-0.2l0.2-0.2c0,0,0,0-0.1-0.1
										C1097.1,1224.5,1084.4,1212.4,1069.9,1210.6z"/></g></g><g><path fill="none" d="M1249.4 1031.6"/><path fill="#005e24" d="M742.7,1327.1c0.3,0.5,0.5,1,0.7,1.5c4.7,9.6,7.8,20.1,8.7,30.9c0.3,3.9,0.8,7.7,1.5,11.3
										c0.1,0.7,0.3,1.4,0.4,2.1c5,24.1,16.5,41.2,19.4,45.1c0.4,0.6,0.7,0.9,0.7,0.9s-0.4,0-1.1-0.1c0,0,0,0,0,0
										c-6-0.6-35.4-5.1-70.9-38.4c-0.3-0.2-0.5-0.5-0.7-0.7c-0.2-0.2-0.4-0.4-0.7-0.6c-11.4-10.9-18.5-22-22.7-32.7c0,0,0,0,0,0
										c-0.2-0.6-0.5-1.1-0.6-1.7c-4.5-12.1-5.3-23.6-4.5-33.3c0-0.4,0.1-0.8,0.1-1.2c1.5-15.3,7-26.2,8.4-28.8
										c0.2-0.4,0.3-0.6,0.3-0.6c0.2,0,0.3,0,0.5,0c12.6-0.6,27.4,6.7,40.2,18.8c0.3,0.3,0.6,0.5,0.8,0.8
										C730.8,1307.9,737.6,1317,742.7,1327.1z"/><path fill="#3d8608" d="M774.2,1418.8c0,0-0.4,0-1.1-0.1c0,0,0,0,0,0c-3.6-2-17.5-10.4-33.9-28.5c-2.9-3.2-6.1-6.9-9.4-11
										l0,0c-0.1-0.1-0.1-0.2-0.2-0.3c-4.7-6-9.7-13-14.7-21c-0.2-0.3-0.4-0.7-0.6-1l0,0c-5.1-8.3-10.2-17.6-15.2-28.2
										c-0.2-0.4-0.4-0.9-0.6-1.3l0,0c-6.2-13.4-12-28.8-17-46.1c0.2-0.4,0.3-0.6,0.3-0.6c0.2,0,0.3,0,0.5,0
										c6.4,22.2,14.1,41,22.2,56.9c0.2,0.3,0.3,0.6,0.5,0.9c4.2,8.2,8.6,15.6,12.9,22.2c0.2,0.3,0.3,0.5,0.5,0.8
										c7.6,11.6,15,20.9,21.5,28c1.2,1.3,2.4,2.6,3.6,3.9c0.2,0.2,0.4,0.5,0.7,0.7c14.5,14.9,26.3,22,29.5,23.8
										C773.9,1418.5,774.2,1418.8,774.2,1418.8z"/><path fill="#3d8608" d="M699.5 1328l-.4.8c0 0 0 0-.1 0-1.3-.7-16.2-7.9-26.1-17.5 0-.4.1-.8.1-1.2 8.7 8.6 21.6 15.4 25.4 17.3C699.1 1327.8 699.5 1328 699.5 1328zM715 1357.1l-.1.9c0 0-.1 0-.1 0-2.1-.3-25.4-3.3-36.8-11.7 0 0 0 0 0 0-.2-.6-.5-1.1-.6-1.7 9.8 8.2 32.1 11.7 36.8 12.3l0 0C714.7 1357.1 715 1357.1 715 1357.1zM729.7 1378.9l.1.3 0 0 .1.6c-.9.2-16.1 3.1-27.7.5-.3-.2-.5-.5-.7-.7-.2-.2-.4-.4-.7-.6 11.1 3.1 27 .3 28.8 0C729.6 1379 729.7 1379 729.7 1378.9zM742.7 1327.1c.3.5.5 1 .7 1.5-2.5 15.8-22.1 30.7-25.3 33-.2.1-.3.2-.4.3l-.5-.8c0 0 .2-.1.4-.3C720.9 1358.5 741.2 1342.8 742.7 1327.1zM723.2 1300.4c-1.4 13.8-16.4 35.4-18.4 38.2-.1.1-.2.2-.2.3l-.7-.5c0 0 .2-.2.5-.7 2.8-4 17.1-25.2 18-38C722.6 1299.9 722.9 1300.2 723.2 1300.4zM753.7 1370.8c.1.7.3 1.4.4 2.1-2.9 9.9-8.9 19.4-10.1 21.3-.1.2-.2.3-.2.3l-.8-.5c0 0 .1-.2.3-.5C744.8 1391.2 751.2 1380.8 753.7 1370.8z"/><g><path fill="#de8808" d="M766.7,1395.7c0.2,0.4,0.4,0.7,0.6,1.1c3.6,6.9,8.4,13.3,14.4,18.4c2.1,1.9,4.1,3.8,6,5.8
										c0.4,0.4,0.7,0.8,1,1.1c12,13.3,17,27.5,18.1,30.8c0.2,0.5,0.2,0.8,0.2,0.8s0.2-0.2,0.4-0.7c0,0,0,0,0,0
										c2.3-3.8,12.3-22.9,8.1-58.1c0-0.3-0.1-0.5-0.1-0.7c0-0.2-0.1-0.4-0.1-0.7c-1.5-11.4-4.9-20.3-9.4-27.4c0,0,0,0,0,0
										c-0.2-0.4-0.5-0.7-0.7-1.1c-5.2-7.9-11.5-13.3-17.6-17c-0.3-0.1-0.5-0.3-0.7-0.4c-9.6-5.7-18.4-7.2-20.5-7.5
										c-0.3,0-0.5-0.1-0.5-0.1c-0.1,0.1-0.1,0.2-0.2,0.3c-5.8,7.1-7.9,19-6.3,31.7c0,0.3,0.1,0.6,0.1,0.8
										C760.5,1380.4,762.9,1388.3,766.7,1395.7z"/><path fill="#de6608" d="M806.9,1453.7c0,0,0.2-0.2,0.4-0.7c0,0,0,0,0,0c0.4-3,1.4-14.7-2.1-32.2c-0.6-3.1-1.4-6.5-2.4-10.2
										l0,0c0-0.1,0-0.2-0.1-0.3c-1.5-5.4-3.4-11.3-6-17.7c-0.1-0.3-0.2-0.5-0.3-0.8l0,0c-2.6-6.6-5.9-13.6-10-21
										c-0.2-0.3-0.3-0.6-0.5-0.9l0,0c-5.2-9.4-11.7-19.5-19.7-29.9c-0.3,0-0.5-0.1-0.5-0.1c-0.1,0.1-0.1,0.2-0.2,0.3
										c10.3,13.3,18,26,23.8,37.5c0.1,0.2,0.2,0.5,0.3,0.7c3,6,5.4,11.8,7.5,17.1c0.1,0.2,0.2,0.4,0.2,0.6
										c3.5,9.5,5.8,17.8,7.1,24.7c0.3,1.3,0.5,2.5,0.7,3.8c0,0.2,0.1,0.5,0.1,0.7c2.5,15,1.6,24.9,1.2,27.6
										C806.8,1453.4,806.9,1453.7,806.9,1453.7z"/><path fill="#de6608" d="M785.9 1370.7l.7.1c0 0 0 0 0-.1.2-1.1 2.4-12.9 1-22.9-.3-.1-.5-.3-.7-.4 1.3 8.8-.3 19.3-.8 22.4C785.9 1370.4 785.9 1370.7 785.9 1370.7zM796.2 1392.4l.6.3c0 0 0 0 0-.1.8-1.4 9-16.3 9-26.6 0 0 0 0 0 0-.2-.4-.5-.7-.7-1.1.6 9.3-7 23.9-8.6 26.9l0 0C796.3 1392.2 796.2 1392.3 796.2 1392.4zM802.7 1410.4l.2.2 0 0 .3.3c.5-.4 8.8-8.1 12.3-16 0-.3-.1-.5-.1-.7 0-.2-.1-.4-.1-.7C812.3 1401.3 803.7 1409.4 802.7 1410.4 802.7 1410.3 802.7 1410.4 802.7 1410.4zM766.7 1395.7c.2.4.4.7.6 1.1 10.4 5.3 27.6.3 30.3-.6.2-.1.3-.1.3-.1l-.2-.6c0 0-.1 0-.4.1C794.5 1396.4 776.5 1401.5 766.7 1395.7zM759.5 1372.7c8.7 5.1 27.8 5.6 30.3 5.7.1 0 .2 0 .2 0l0-.7c0 0-.2 0-.6 0-3.5-.1-22.2-.9-30.1-5.9C759.4 1372.1 759.4 1372.4 759.5 1372.7zM787.5 1420.9c.4.4.7.8 1 1.1 7 2.6 15.2 3.2 16.9 3.3.1 0 .2 0 .3 0l0-.7c0 0-.2 0-.4 0C803.3 1424.5 794.5 1423.8 787.5 1420.9z"/></g><g><path fill="#005e24" d="M1372.3,1153.5c-0.4,0.2-0.8,0.4-1.2,0.7c-7.6,4.4-14.7,10.1-20.3,17c-2,2.5-4.1,4.8-6.3,7
										c-0.4,0.4-0.8,0.8-1.2,1.2c-14.6,14.2-30.4,20.4-34.2,21.8c-0.6,0.2-0.8,0.3-0.8,0.3s0.3,0.2,0.8,0.5c0,0,0,0,0,0
										c4.4,2.4,26.5,12.9,66.2,6.7c0.3,0,0.6-0.1,0.8-0.1c0.2,0,0.5-0.1,0.7-0.1c12.8-2.2,22.8-6.4,30.6-11.8c0,0,0,0,0,0
										c0.4-0.3,0.8-0.5,1.2-0.8c8.7-6.2,14.6-13.6,18.5-20.6c0.2-0.3,0.3-0.6,0.5-0.9c6.1-11.1,7.4-21.1,7.6-23.5
										c0-0.4,0.1-0.5,0.1-0.5c-0.1-0.1-0.2-0.2-0.3-0.2c-8.3-6.3-21.8-8.2-36.1-5.8c-0.3,0-0.6,0.1-1,0.2
										C1389.4,1146,1380.5,1149,1372.3,1153.5z"/><path fill="#3d8608" d="M1308.3,1201.5c0,0,0.3,0.2,0.8,0.5c0,0,0,0,0,0c3.4,0.3,16.7,1,36.4-3.7c3.5-0.8,7.3-1.9,11.5-3.2
										l0,0c0.1,0,0.2-0.1,0.3-0.1c6-1.9,12.6-4.3,19.8-7.5c0.3-0.1,0.6-0.3,0.9-0.4l0,0c7.3-3.3,15.2-7.3,23.4-12.2
										c0.3-0.2,0.7-0.4,1-0.6l0,0c10.5-6.3,21.5-14,33-23.5c0-0.4,0.1-0.5,0.1-0.5c-0.1-0.1-0.2-0.2-0.3-0.2
										c-14.6,12.2-28.6,21.4-41.5,28.5c-0.3,0.1-0.5,0.3-0.8,0.4c-6.7,3.6-13.1,6.7-19.1,9.2c-0.2,0.1-0.5,0.2-0.7,0.3
										c-10.6,4.4-19.9,7.3-27.7,9.1c-1.5,0.3-2.9,0.7-4.2,1c-0.3,0.1-0.5,0.1-0.8,0.2c-16.8,3.4-28.2,2.8-31.2,2.5
										C1308.6,1201.4,1308.3,1201.5,1308.3,1201.5z"/><path fill="#3d8608" d="M1401.4 1174.2l-.1.7c0 0 0 0 .1 0 1.2.2 14.7 2.1 25.9.2.2-.3.3-.6.5-.9-9.9 1.9-21.9.5-25.4 0C1401.8 1174.3 1401.4 1174.2 1401.4 1174.2zM1377.3 1186.9l-.3.7c0 0 0 0 .1 0 1.6.8 18.9 9.5 30.5 9.1 0 0 0 0 0 0 .4-.3.8-.5 1.2-.8-10.5 1-27.3-6.9-30.8-8.7l0 0C1377.5 1187 1377.3 1186.9 1377.3 1186.9zM1357.2 1194.9l-.2.2 0 0-.3.3c.5.5 9.5 9.6 18.7 13.2.3 0 .6-.1.8-.1.2 0 .5-.1.7-.1C1367.8 1205.4 1358.3 1196.1 1357.2 1194.9 1357.2 1195 1357.2 1195 1357.2 1194.9zM1372.3 1153.5c-.4.2-.8.4-1.2.7-5.6 11.9.8 31.2 1.9 34.2.1.2.1.3.1.4l.7-.3c0 0-.1-.2-.1-.4C1372.7 1185.1 1366.1 1164.9 1372.3 1153.5zM1398 1144.4c-5.4 10-5.2 31.7-5.2 34.5 0 .1 0 .2 0 .3l.8 0c0 0 0-.3 0-.7 0-4 .1-25.1 5.4-34.3C1398.7 1144.3 1398.3 1144.4 1398 1144.4zM1344.6 1178.2c-.4.4-.8.8-1.2 1.2-2.6 8.1-3 17.4-3 19.2 0 .2 0 .3 0 .3l.8 0c0 0 0-.2 0-.5C1341.2 1196.3 1341.6 1186.2 1344.6 1178.2z"/></g></g><g><path fill="#a5a816" d="M962.5,550.7c-1.9,1.2-4.1,2.3-6.7,3.5c-25,10.9-27.2,20.6-22.8,27.2c2.8,4.2,7.9,13.5,6.7,20.9
									c-0.1,0.6-0.2,1.1-0.4,1.6c-1,3.4-3.5,6.2-8.5,7.9c-16.3,5.4-33.7,18.4-30.4,26c3.2,7.5,8.6,31.1,3.4,39.9
									c0,0.1-0.1,0.2-0.1,0.2c-0.2,0.4-0.5,0.7-0.8,1.1c-7,7.3-33.6,3.7-39.6,13.1c-4.6,7.1-6.4,18.8-10.8,24.6
									c-0.3,0.5-0.7,0.9-1,1.2c-1.5,1.5-3.2,2.4-5.3,2.4c-9.8,0-53.2,13.4-65.2,45.3c-7.9,21-34.2,27.6-51.3,29.8
									c-0.6,0.1-1.1,0.1-1.6,0.2c-8,0.9-13.7,0.8-13.7,0.8s-53.6,2.2-73.9-19.5c-1.5-1.6-2.9-3-4.3-4.3c-0.7-0.6-1.3-1.1-1.9-1.7
									c0,0,0,0,0,0c-18.1-14.9-36.1-11.8-57.4-14.7c-5.5-0.8-10.1-2.5-14-4.7h0c-0.9-0.5-1.7-1-2.6-1.6
									c-11.2-7.6-16.3-18.9-22.5-19.7c-8.7-1.1-13-10.9-22.8-17.4c-0.4-0.2-0.7-0.5-1.1-0.8c0,0,0,0,0,0c-0.9-0.6-1.8-1.2-2.9-1.9
									l0,0c-10.4-7-28.2-20.3-24.8-39.7c0.5-2.8,1.4-5.7,2.9-8.7c0.1-0.3,0.3-0.6,0.4-0.9c0.3-0.6,0.6-1.1,0.8-1.7
									c0.3-0.7,0.7-1.4,1-2.1c7-13.9,11-16.8,19.7-15c0.6,0.1,1.2,0.3,1.8,0.4c4.7,1.2,10.7,3.5,19.1,6.2
									c11.3,3.5,21.1,2.4,28.6-1c0.5-0.2,1-0.4,1.5-0.7c10-5,15.6-13.9,15-20.1c-1-10.9,7.3-26.1,23.2-18.5
									c10.5,5,16.9,21.7,23.4,33.8c3,5.5,6,10.1,9.5,12.1h0c0.5,0.3,1,0.5,1.5,0.7c0.5,0.2,1,0.3,1.6,0.4c1,0.1,2.1,0.1,3.2-0.1
									c1.2-0.2,2.4-0.6,3.6-1.1c9.9-4.2,21.3-18,20.3-32.2c-0.2-3.4-1.2-6.8-3.1-10.2c-0.2-0.4-0.5-0.9-0.8-1.3
									c-0.1-0.1-0.2-0.3-0.3-0.4c-14.5-21.5-73.5-33.4-82.2-50.6c-3.4-6.7-3-14.9-2.4-23.6c0-0.6,0.1-1.1,0.1-1.7
									c1-13.3,2.3-27.7-7.7-39.8c-0.8-1-1.6-1.9-2.4-2.8c-1-1.1-1.9-2.2-2.9-3.2c0,0,0,0,0,0c-7.9-8.7-14.4-14.3-17.8-20.7
									c-2.7-5.1-3.5-10.7-1.4-18.9c2.1-8.6,6.4-14.5,12.2-18c0.5-0.3,0.9-0.6,1.4-0.8c4.3-2.2,9.2-3.1,14.7-2.9
									c4,0.2,8.2,0.9,12.7,2.3c0.9,0.3,1.8,0.6,2.7,0.9c0,0,0,0,0,0c21.1,7.6,25.5,31.5,39.6,32.6c8.6,0.7,30.5-3.5,50-1.3h0
									c0.8,0.1,1.6,0.2,2.4,0.3c11.7,1.7,22.3,5.9,28.2,15.1c6,9.3,8.2,17.2,9.3,23.5c1.4,8.4,0.7,14.2,4,17.6
									c0.6,0.6,1.3,1.2,2.2,1.6c0.5,0.2,1,0.5,1.6,0.7c12.1,4.3,31.6,17.4,33.8,38c2.2,20.6-13.6,45.7-14.9,53.2
									c-0.7,3.6,1.6,10.5,6,15.6c0.4,0.5,0.9,1,1.4,1.5c4.3,4.3,10.3,6.7,17.3,3.5c0.5-0.2,1.1-0.5,1.7-0.9
									c0.1-0.1,0.2-0.1,0.3-0.2c16.4-9.7,31.4-26.7,31.7-42.9c0-0.2,0-0.4,0-0.6c0-16.3-7.6-57.6,26.1-56.5
									c4.9,0.2,9.1,0.1,12.9-0.2c0.9-0.1,1.8-0.2,2.6-0.3c19.8-2.3,23.6-11,28.9-19c4.3-6.4,16.8-15.5,31.1-15.4h0
									c0.7,0,1.4,0,2,0.1h0c7,0.5,14.3,3.3,21.2,9.9c1.4,1.4,2.9,2.6,4.2,3.7c19.3,15.3,32,4.4,37,11.5c2.1,2.9,4.6,6.7,5.6,10.9
									c0.1,0.5,0.2,1.1,0.3,1.6C973.3,539.4,971.2,545.3,962.5,550.7z"/><path fill="#c2a800" d="M623.4 642.3c-6-2.1-14.9-4.9-26.6-3.8-17.6 1.6-20.1 10-42.5 18-12.6 4.4-35 12.4-56.8 3.6-2-.8-4.2-1.8-6.3-3 7-13.9 11-16.8 19.7-15 .6.1 1.2.3 1.8.4 4.7 1.2 10.7 3.5 19.1 6.2 11.3 3.5 21.1 2.4 28.6-1 .5-.2 1-.4 1.5-.7 10-5 15.6-13.9 15-20.1-1-10.9 7.3-26.1 23.2-18.5C610.4 613.4 616.8 630.1 623.4 642.3zM706.2 477c6 9.3 8.2 17.2 9.3 23.5-4.3-3.3-7.7-6-15.5-9.9-16.2-8.2-30.5-11.6-42.4-14.4-25.7-6-27.1-2.1-40-6.4-18.5-6.2-41.6-22.7-46.9-42.7 4 .2 8.2.9 12.7 2.3.9.3 1.8.6 2.7.9 0 0 0 0 0 0 21.1 7.6 25.5 31.5 39.6 32.6 8.6.7 30.5-3.5 50-1.3h0c.8.1 1.6.2 2.4.3C689.8 463.6 700.3 467.8 706.2 477zM929.7 510c-7.9 6-19.1 10.7-27.1 14.2-23.9 10.3-28 3.3-46.4 12.8-17.9 9.2-32.1 25-46.4 40.8-3.8 4.2-6.8 7.8-9.2 10.5 0-.2 0-.4 0-.6 0-16.3-7.6-57.6 26.1-56.5 4.9.2 9.1.1 12.9-.2.9-.1 1.8-.2 2.6-.3 19.8-2.3 23.6-11 28.9-19 4.3-6.4 16.8-15.5 31.1-15.4h0c.7 0 1.4 0 2 .1h0c7 .5 14.3 3.3 21.2 9.9C926.9 507.7 928.3 508.9 929.7 510z"/><path fill="#7aa116" d="M663.1 622.1c-.2-3.4-1.2-6.8-3.1-10.2-.2-.4-.5-.9-.8-1.3-.1-.1-.2-.3-.3-.4-14.5-21.5-73.5-33.4-82.2-50.6-3.4-6.7-3-14.9-2.4-23.6 0-.6.1-1.1.1-1.7 1-13.3 2.3-27.7-7.7-39.8-.8-1-1.6-1.9-2.4-2.8-1-1.1-1.9-2.2-2.9-3.2 0 0 0 0 0 0-7.9-8.7-14.4-14.3-17.8-20.7 16.4 2.4 38 22.1 41.1 42.6 2.3 15-6.5 22.1-1.3 35 3.5 8.6 10.2 12.3 33.7 24.8 42.8 22.7 49.4 25.6 50.9 33.1C669.5 609.4 667.1 616.2 663.1 622.1zM933 581.3c2.8 4.2 7.9 13.5 6.7 20.9-.1.6-.2 1.1-.4 1.6-1 3.4-3.5 6.2-8.5 7.9-16.3 5.4-33.7 18.4-30.4 26 3.2 7.5 8.6 31.1 3.4 39.9 0 .1-.1.2-.1.2-.2.4-.5.7-.8 1.1-7 7.3-33.6 3.7-39.6 13.1-4.6 7.1-6.4 18.8-10.8 24.6-.3.5-.7.9-1 1.2-1.5 1.5-3.2 2.4-5.3 2.4-9.8 0-53.2 13.4-65.2 45.3-7.9 21-34.2 27.6-51.3 29.8-.6.1-1.1.1-1.6.2-8 .9-13.7.8-13.7.8s-53.6 2.2-73.9-19.5c-1.5-1.6-2.9-3-4.3-4.3-.7-.6-1.3-1.1-1.9-1.7 0 0 0 0 0 0-18.1-14.9-36.1-11.8-57.4-14.7-5.5-.8-10.1-2.5-14-4.7h0c-.9-.5-1.7-1-2.6-1.6-11.2-7.6-16.3-18.9-22.5-19.7-8.7-1.1-13-10.9-22.8-17.4-.4-.2-.7-.5-1.1-.8 0 0 0 0 0 0-.9-.6-1.8-1.2-2.9-1.9l0 0c-10.4-7-28.2-20.3-24.8-39.7 12.5 4.4 23.3 31.6 59.6 46 19.7 7.8 23.1 2.4 47.7 12.6 19.7 8.2 34.5 18.8 48.4 28.8 28.8 20.8 26.1 25 37.9 29.5 35.5 13.7 78.2-17.4 84.2-21.8 34.8-25.3 25.7-44.3 62.5-72.3 30.9-23.6 46-16.7 59.6-37.9 16.9-26.3-.6-46 14.7-70.9 12.5-20.2 40-33.1 61.8-33.7-1.9 1.2-4.1 2.3-6.7 3.5C930.9 565 928.7 574.8 933 581.3z"/><path fill="#006d24" d="M729.7,795.3c-0.6,0.1-1.1,0.1-1.6,0.2c-0.6-6.9-2.3-26.1-5.2-51.8v0c-0.1-0.7-0.1-1.3-0.2-2v0
										c-1.4-12.4-3.1-26.1-5.1-40.7c-0.2-1.7-0.5-3.5-0.7-5.2v0c-2-14.7-4.3-30.1-6.9-45.5c-1.4-8.1-2.7-15.7-4-22.9
										c-0.1-0.6-0.2-1.2-0.3-1.8c-4.3-23.7-8.4-43-13.1-58.8c-0.3-1.1-0.6-2.1-0.9-3.1v0c-8.1-26.4-17.9-42.6-32.9-53.2
										c-10.4-7.4-20.9-11.1-31.1-14.8c-2.3-0.8-4.6-1.7-6.9-2.5c-0.9-0.3-1.7-0.6-2.6-1c-13.6-5.3-27.6-12.7-42.1-30.1
										c-14.2-17.1-19.7-27.1-21.6-31.4c0.5-0.3,0.9-0.6,1.4-0.8c1.8,4,7.3,14.1,21.5,31.1c3.1,3.8,6.2,7,9.3,9.9
										c0.5,0.4,0.9,0.9,1.4,1.3c13.8,12.4,27.1,17.2,40.1,21.9c10.3,3.7,20.9,7.5,31.5,15c10.8,7.6,19,18.1,25.7,33c0,0,0,0,0,0
										c0.5,1,0.9,2,1.4,3.1c0,0,0,0,0,0c7.1,16.8,12.7,38.9,18.4,68.5v0c0.2,1,0.4,2,0.6,3.1c0,0,0,0,0,0
										c1.9,10.2,3.8,21.2,5.9,33.1c1.7,10.1,3.3,20.1,4.7,29.9c0.2,1.3,0.4,2.5,0.5,3.8c0,0,0,0,0,0c0.8,5.7,1.6,11.3,2.4,16.8
										c0,0,0,0,0,0.1v0c0,0.1,0,0.2,0,0.2c2.4,17.7,4.4,34.3,6,48.6c0.1,0.6,0.1,1.3,0.2,1.9
										C727.7,773.1,729.2,789.1,729.7,795.3z"/><path fill="#006d24" d="M723.7 742.4l-.8 1.4c0 0 0 0 0 0v0c-.8-.4-10.1-5.6-24.4-12-.5-.2-1-.4-1.5-.7-13.6-6-31.4-13.1-50.8-18.6-.6-.1-1.2-.3-1.7-.5-9.5-2.6-19.4-4.8-29.3-6.3l-.6-.1c-17.3-2.6-34.3-5.2-50.1-8.5-.7-.1-1.3-.3-2-.4-9.6-2-18.8-4.3-27.2-7.1-.1 0-.3-.1-.4-.1-19.7-6.4-35.8-15.3-45.5-28.6.3-.6.6-1.1.8-1.7 9.1 13 24.3 21.7 43.2 28.1.8.3 1.7.6 2.5.8 22.7 7.3 50.4 11.5 78.9 15.9h0l.6.1c1 .1 2 .3 3 .5 0 0 0 0 0 0 15.5 2.6 30.9 6.8 44.9 11.6.6.2 1.2.4 1.8.6 29.5 10.2 52.6 22.3 57.7 25.1v0C723.3 742.1 723.6 742.3 723.7 742.4zM972.6 534.1c-5.4.4-25.2 4.6-81.6 36.8-14.6 8.3-26.6 17.2-36.4 26.2h0c-.7.6-1.3 1.2-1.9 1.8-24.4 22.8-35.7 46.2-43.8 64-.2.6-.5 1.1-.7 1.6-.1.3-.2.5-.4.8-3.4 7.4-6.3 13.9-9.6 19-4.7 7.3-13.8 16.8-24 26.3h0c-.7.7-1.5 1.4-2.2 2.1-20.2 18.6-43.8 37-46.4 38.9-.1.1-.2.1-.2.2l-1-1.3c0 0 .4-.3 1-.8 3.3-2.5 14.1-11 26.6-21.6.9-.8 1.8-1.5 2.7-2.3 16.4-14 34.8-31 42.1-42.4 3.2-5 6.1-11.4 9.5-18.8 3.8-8.5 8.4-18.3 14.7-28.9.5-.8.9-1.6 1.5-2.4 11.5-18.5 28.7-39 57.8-57.6.5-.3 1.1-.7 1.6-1 2.7-1.7 5.5-3.4 8.5-5.1 55.7-31.8 75.9-36.4 82.1-37C972.4 533 972.5 533.5 972.6 534.1zM694 566l-1.2 1.1c0 0-.1-.1-.2-.2-2.2-2.2-22-21.2-55.7-21.2-29.9 0-54.6-7.2-62.5-9.7 0-.6.1-1.1.1-1.7 7.3 2.4 32.1 9.8 62.4 9.8 29.4 0 48.4 14.2 54.8 19.7v0C693.1 565.1 693.9 565.9 694 566zM621 493.2c0 0-.1 0-.3.1-1.9.6-13.6 3.9-27.9 3.9-9 0-19.1-1.3-28.5-5.5-1-1.1-1.9-2.2-2.9-3.2 21.5 11.6 48.6 6 56.7 3.9 1.5-.4 2.3-.6 2.4-.7L621 493.2zM588.1 472.4c0 .2-.1.4-.1.5l-1.6-.3c0 0 .1-.5.3-1.4 1.2-6.3 5.3-31.8-3.4-41.6.9.3 1.8.6 2.7.9C593.9 442.5 589 468.4 588.1 472.4zM686.8 545.4C686.8 545.4 686.8 545.4 686.8 545.4 686.8 545.4 686.8 545.4 686.8 545.4l-1.6-.1c0-.1.1-1.1.3-3 0 0 0 0 0 0 1.1-13.1 4.3-65.5-9.7-80.6.8.1 1.6.2 2.4.3C692.9 481.4 687.1 542 686.8 545.4zM705.7 617C705.7 617 705.7 617 705.7 617c0 .1-.1.2-.1.2l-1.5-.6c0-.1.4-1 1-2.7v0c4.7-12.8 23.5-67.1 14.4-95.7.6.6 1.3 1.2 2.2 1.6C730.4 552.6 707.6 612.1 705.7 617zM706.7 626.3l-.7 1.2-.1.2c-.2-.1-21-13-45.8-15.7-.2-.4-.5-.9-.8-1.3-.1-.1-.2-.3-.3-.4 22.6 2.2 42.1 12.8 46.7 15.5C706.3 626.1 706.7 626.3 706.7 626.3zM719.2 701L719.2 701l-1.6.5c0 0 0-.1-.1-.4-1.5-3.9-15.6-36.8-78.4-45.7 1.2-.2 2.4-.6 3.6-1.1 49.8 7.9 68.2 31.1 74.1 41.6v0c1.4 2.4 2.1 4.2 2.3 4.8 0 0 0 0 0 .1C719.2 700.9 719.2 701 719.2 701zM749.5 628.8c-16.6.9-32 52.8-32.7 55.1 0 0 0 0 0 0 0 0 0 0 0 .1l-1.6-.4c.1-.3.4-1.6 1-3.5 3.7-11.9 16.8-49.8 31.9-52.8C748.6 627.8 749 628.3 749.5 628.8z"/><path fill="#006d24" d="M618.4 704.6l-.9 1.3c-.1 0-1.1-.8-2.9-2h0c-10-7.1-42.9-32-54.4-56.2.5-.2 1-.4 1.5-.7 12.8 27.2 53.3 55.3 56.5 57.5 0 0 0 0 0 0C618.4 704.5 618.4 704.6 618.4 704.6zM665 717.1l-1.6.2c0 0-.1-.5-.2-1.3-1.3-6.7-8.3-37.4-30.2-61.6.5.3 1 .5 1.5.7.5.2 1 .3 1.6.4 21.9 25.5 28.2 57 28.9 61.1C664.9 716.9 665 717.1 665 717.1zM536.3 688.8l-1.1.8-.2.1c0 0-.1-.1-.2-.3-.3-.4-.8-1.1-1.4-2.2-4.9-7.6-19.2-30.6-22.5-45.2.6.1 1.2.3 1.8.4 3.9 15.5 20.1 40.9 23.2 45.6C536.1 688.5 536.2 688.7 536.3 688.8zM564.4 696.9c0 0 0 0-.1.1-1.6 1.5-16.9 15.2-43.7 15.2-2.2 0-4.5-.1-6.9-.3 0 0 0 0 0 0-.9-.6-1.8-1.2-2.9-1.9 29.5 3.6 47.3-9.8 51.5-13.4.6-.5.9-.8.9-.9L564.4 696.9zM646.4 712c0 0-.1.2-.4.4-3.6 4.1-34.5 38.2-83.3 39h0c-.9-.5-1.7-1-2.6-1.6 47.8.5 78.8-31.9 84.2-37.9h0c.5-.6.8-.9.8-.9L646.4 712zM698.7 730.7c0 0-.1.4-.3 1-1.8 6.3-13.7 40.8-60.7 40.8-.5 0-1 0-1.5 0-.7-.6-1.3-1.1-1.9-1.7 49.6 1.7 61.2-34.4 62.7-39.8.1-.4.2-.6.2-.7L698.7 730.7zM768.4 631.4c0 3.7-.3 13.8-2.4 39.9-2.3 28.1-8.7 47.2-11.5 54.4h0c-.8 2.1-1.3 3.2-1.3 3.2l-1.5-.7c0 0 0-.1.1-.2 1-2.1 9.9-22.7 12.6-56.8 1.9-24.4 2.3-34.7 2.4-38.9C767.3 632 767.9 631.8 768.4 631.4zM822.3 633.2c.1 1.5.2 2.4.2 2.5l-1.6.1c0 0 0-.1 0-.2v0c-.5-5.5-6.2-78.7 18.7-104.5.9-.1 1.8-.2 2.6-.3C818.3 552.5 821.4 619.4 822.3 633.2zM881.6 574.5c0 .9.1 1.3.1 1.4l-1.6.1c0 0 0-.2 0-.5-.2-5.2-1.5-50.5 22.1-79.1h0c.7 0 1.4 0 2 .1C881.2 523.3 881.4 566.3 881.6 574.5zM852.5 716.7c-.3.5-.7.9-1 1.2-21.2-16.1-76.1-6-79.7-5.3-.1 0-.2 0-.2 0l-.3-1.6c.3 0 1.2-.2 2.7-.5C785.8 708.5 832.7 701.5 852.5 716.7zM903.8 677.7c0 .1-.1.2-.1.2-.2.4-.5.7-.8 1.1-19.7-12.5-88.1-14.5-94.9-14.6-.3 0-.5 0-.5 0l0-1.6c.2 0 .6 0 1.2 0C818.9 663 884.1 665 903.8 677.7zM939.8 602.2c-.1.6-.2 1.1-.4 1.6-23.6-9.2-81.7-5.4-86.8-5.1-.2 0-.3 0-.4 0l-.1-1.6c.3 0 1.1-.1 2.4-.2C866.4 596.3 917.2 593.6 939.8 602.2z"/></g><g><path fill="#ffd91e" d="M1408.1,762.7L1408.1,762.7c-0.1,1-0.3,1.9-0.6,3l0,0c-4.4,16.8-25.8,44.4-48.2,46.2
										c-21.3,1.8-35.2,13-42,20.1c-0.3,0.3-0.6,0.6-0.8,0.9c-2.7,2.9-4.1,5-4.1,5l0,0c-1.7-0.3-82-16.8-66.6-41.1
										c5.1-8.1,6-14.4,5.3-19.2v0c-0.2-1.2-0.4-2.3-0.8-3.3c-2.3-7.3-7.7-10.2-0.7-10.4c11.9-0.3,37.7-14.6,16.4-29.6
										c-18.5-13.1-58.7-35.1-55.9-58.4c0.1-0.8,0.2-1.7,0.5-2.5c0.7-2.7,2-5.4,4-8.1c14.2-19.2,36.8-36.5,43.5-54.2l0,0
										c0.5-1.4,1-2.9,1.3-4.3l0,0c1.3-5.8,0.6-11.7-2.8-17.7c-14.8-25.9-41.1-27.7-38.1-55.2c1-9.1,1.2-16.4,0.6-22.6
										c-0.7-7.5-2.7-13.2-6-18.3c0,0-0.1,0-0.1-0.1c-2.1-3.3-4.8-6.3-8.1-9.4c0.2,0.1,1.5,0.8,3.5,2c7.8,4.5,26.3,16.5,35.6,33
										c5.9,10.5,23.8,20.1,40.9,30c0.6,0.3,1.2,0.7,1.8,1l0,0c16.8,9.8,32.4,19.9,34.9,31.2c2.6,12.2-2,28.5,0.6,44.1
										c0.2,1.4,0.5,2.7,0.9,4.1c3.3,12.8,12.4,25,35.6,33.6c26.8,10,35.1,17.7,36.1,26.3c0.3,2.2,0.1,4.4-0.4,6.8c0,0,0,0,0,0
										c-1.5,6.9-5.5,14.8-7.4,24.9c-5,27.1-0.7,29.9,16.4,32.5C1407.5,753.7,1408.9,757.4,1408.1,762.7z"/><path fill="#ffc01e" d="M1317.3,832c-0.3,0.3-0.6,0.6-0.8,0.9c-2.7,2.9-4.1,5-4.1,5l0,0c-1.7-0.3-82-16.8-66.6-41.1
							c5.1-8.1,6-14.4,5.3-19.2v0c-0.2-1.2-0.4-2.3-0.8-3.3c-2.3-7.3-7.7-10.2-0.7-10.4c11.9-0.3,37.7-14.6,16.4-29.6
							c-18.5-13.1-58.7-35.1-55.9-58.4c0.1-0.8,0.2-1.7,0.5-2.5c0.7-2.7,2-5.4,4-8.1c14.2-19.2,36.8-36.5,43.5-54.2l0,0
							c0.5-1.4,1-2.9,1.3-4.3l0,0c1.3-5.8,0.6-11.7-2.8-17.7c-14.8-25.9-41.1-27.7-38.1-55.2c1-9.1,1.2-16.4,0.6-22.6
							c16.4,8.3,31.2,37.2,36.9,57.2c2.6,9.1,9.7,38.4-2.5,69.4c-10.4,26.4-24.4,27.9-23.6,42.1c1.7,28.7,59.1,32.5,64.4,64.5
							c4.4,25.7-29.8,40.8-23.5,62C1275.6,822.3,1298.9,828.3,1317.3,832z"/><path fill="#e4c616" d="M1332.4,790.3L1332.4,790.3c-0.2,0.8-0.3,1.5-0.5,2.2c-4.5,18.5-11.4,32.9-15.4,40.4
										c-2.7,2.9-4.1,5-4.1,5l0,0l-0.8-0.5c0.2-0.3,8.8-13.8,15.3-34.4c0.2-0.6,0.4-1.3,0.6-2c0.9-2.9,1.7-5.9,2.4-9l0,0
										c0.1-0.4,0.2-0.8,0.3-1.2c3.4-14.4,5.2-31.2,2.9-48.9c-0.1-0.8-0.2-1.5-0.3-2.2l0,0c-1.5-10.5-4.5-21.3-9.5-32.2
										c-6.8-14.8-14.3-23.8-21.5-32.4c-7.3-8.7-14-16.7-18.8-29.6c0,0,0,0,0,0c-0.5-1.3-1-2.6-1.4-3.9c-3.2-9.8-5.3-22.4-6-39.6
										c-1.6-41.9-43.7-89.6-62.5-108.8c0,0-0.1,0-0.1-0.1c-2.1-3.3-4.8-6.3-8.1-9.4c0,0,1.3,0.7,3.6,2
										c13.2,12.8,67.2,68,69.1,116.2c0,0,0,0.1,0,0.1c0.1,1.6,0.1,3.1,0.2,4.6c2.3,39.4,13.1,52.3,25.5,67.2
										c4.6,5.5,9.2,11,13.8,18.2l0,0c0.7,1.2,1.5,2.4,2.2,3.7c0,0,0,0,0,0c2,3.3,3.8,6.9,5.7,10.9c10.4,22.6,12.3,45.1,10.3,64.9
										l0,0c-0.1,1-0.2,2-0.3,3C1334.5,780,1333.5,785.3,1332.4,790.3z"/><path fill="#e4c616" d="M1284.4 643.9l-1.3 1.6c0 0-.1-.1-.2-.1 0 0 0 0 0 0-2.2-1.8-20.7-17.7-24.9-34.3 0 0 0 0 0 0 .5-1.4 1-2.9 1.3-4.3 1.3 14 15.9 28.8 22.2 34.7C1283.3 643 1284.4 643.9 1284.4 643.9zM1277.8 606.5c-.1.2-.1.2-.1.2l-1.8-.9c0-.1.7-1.5 1.7-4 3.7-9.2 11.7-32.6 7.4-53.3.6.4 1.2.7 1.8 1l0 0C1292 575.3 1279.2 603.6 1277.8 606.5zM1319.4 695.8l-2 .2c0-.1-.1-1.6-.3-4.1l0 0c-.6-11.9-1.7-46.6 5.1-66.9.2 1.4.5 2.7.9 4.1-7.5 23.4-4 63.1-3.7 66.6 0 0 0 0 0 0C1319.4 695.7 1319.4 695.8 1319.4 695.8zM1334.4 740.1l-.6 1.9c0 0-.3-.1-.7-.2-8.3-2.6-89.2-29-123-65.9.1-.8.2-1.7.5-2.5 31.8 36 110.1 62.2 122.2 66.1C1333.8 739.9 1334.3 740 1334.4 740.1zM1328.3 803c-.1 0-.6 0-1.4-.1-2.3-.2-7.3-.6-13.8-1.6-16.7-2.6-43.6-8.8-62-23.7l0 0c-.2-1.2-.5-2.3-.8-3.3 25.2 22.4 70.3 26.2 77.2 26.7.5 0 .9 0 .9.1L1328.3 803zM1394.3 695.6C1394.3 695.7 1394.3 695.7 1394.3 695.6c-17.5 42.3-56.2 76.2-59.2 78.8-.1.1-.2.1-.2.2l-1.3-1.6c0-.1.7-.6 1.8-1.6l0 0c8.5-7.7 44.8-41.9 59.3-82.6C1395 691.1 1394.8 693.3 1394.3 695.6zM1408.1 762.7c-.1.9-.3 1.9-.6 2.9l0 0c-26.5 18.2-66.4 25.3-75.6 26.8-1 .2-1.6.2-1.8.3l-.1-.8 0 0-.2-1.2c0 0 .2 0 .5-.1.4-.1 1.2-.2 2.2-.3l0 0C1342.9 788.5 1382.9 780.9 1408.1 762.7z"/><path fill="#919416" d="M1491.4,672.2c-4,7.5-8,14.7-12,21.4c-0.8,1.4-1.6,2.8-2.4,4.1c-7.7,13-15.1,24.5-22.3,34.7l0,0
										c-0.6,0.9-1.3,1.8-1.9,2.7c-16,22.4-30.5,38.4-43.2,49.6c-0.8,0.7-1.6,1.4-2.3,2.1c-34,29.1-54.5,24.8-54.5,24.8
										s5.9-57.9,9.8-83.1c2-13,0.5-27.6,3-42.5c0.1-0.7,0.2-1.5,0.4-2.2c1.5-8.1,4.4-16.2,9.6-24.1l0.1-0.1
										c0.2-0.3,0.3-0.5,0.5-0.8c3.3-4.9,7.6-9.7,13-14.3c1.4-1.2,2.7-2.4,4-3.6c0.5-0.5,1-1,1.5-1.4c8-7.6,12.8-14.5,15.5-21.7
										c0.1-0.3,0.3-0.7,0.4-1.1l0,0c3-8.7,3-18,1.6-30.1c-0.1-0.8-0.2-1.7-0.3-2.5c-1.1-8.8-2.7-18.9-4.3-31.2
										c-1.4-10.8-1.4-19.5-0.1-26.8c0.1-0.7,0.2-1.4,0.4-2c1.5-6.8,4.3-12.2,8.4-16.7c0.5-0.5,0.9-1,1.4-1.5
										c8.1-8,20.4-13.1,36.8-18.3l0,0c0.7-0.2,1.3-0.4,2-0.6c3.1-1,6.4-1.9,9.9-3c0.9-0.3,1.8-0.5,2.7-0.8
										c0.9-0.3,1.9-0.5,2.9-0.8c47.6-13.9,6.9-66.4,5.8-67.7c1,0.7,32.4,24.1,36,92.6c1.5,27.5,2.2,50.1,1.5,69.9
										c-0.1,2-0.1,4-0.3,6l0,0C1513.3,617.8,1506.7,643.7,1491.4,672.2z"/><path fill="#a5a816" d="M1409.6 784.8c-.8.7-1.6 1.4-2.3 2.1 1-6.9 6.2-48.4-2.9-83-.2-.8-.4-1.6-.6-2.4l0 0c-5-17.5-13.7-33-28.8-40.8l.5-.9.1-.1.4-.8c0 0 .1 0 .1.1C1420.5 682.3 1412 766.5 1409.6 784.8zM1479.4 693.6c-.8 1.4-1.6 2.8-2.4 4.1 2.2-22.4 8.3-113.9-31.2-165.1-.6-.7-1.1-1.5-1.7-2.2-7.6-9.3-16.8-17.1-27.9-22.9.5-.5.9-1 1.4-1.5 11.1 5.8 20.9 14.1 29.2 24.6.2.2.3.4.5.7 5.7 7.2 10.6 15.6 14.9 25 .6 1.2 1.1 2.5 1.7 3.8 7.1 16.7 12 36.5 14.7 59.1C1482.2 650.3 1480.7 679.2 1479.4 693.6zM1454.7 732.4L1454.7 732.4c-.6.9-1.3 1.9-1.9 2.8-.3-7.1-1.3-27.3-4.8-48.9-.1-.8-.2-1.5-.4-2.3-4-24-10.9-49.3-22.9-60-4.4-3.9-9.3-5.6-14.6-5.1l-.1-1c.1-.3.3-.7.4-1.1l0 0c5.7-.4 10.9 1.5 15.6 5.7 6.7 5.9 11.9 16.1 15.9 27.9 1.1 3.2 2.1 6.6 3 10.1 0 0 0 0 0 0C1452.1 687.7 1454.2 719.8 1454.7 732.4zM1515 583.2c-5.5-17.6-29.3-90.4-48.7-99.1.9-.3 1.8-.5 2.7-.8 18.4 11.8 38.8 70.8 46.2 93.9C1515.2 579.3 1515.1 581.3 1515 583.2z"/><path fill="#a5a816" d="M1463.9 560L1463.9 560l-2-.2c0-.1.2-1.4.4-3.6 1.1-12.2 3.8-51.8-7.8-68.5.7-.2 1.3-.4 2-.6C1470 507.7 1464.2 557 1463.9 560zM1447.3 532.7c-.2 0-.7 0-1.4-.1-2.9-.2-9.7-.8-18-2.1-6.3-1-13.5-2.3-20.4-4.2.1-.7.2-1.4.4-2 14.2 3.9 29.7 5.5 36.3 6.1 1.3.1 2.2.2 2.7.2.3 0 .5 0 .6 0l0 .6L1447.3 532.7zM1444.9 660.9l-2 .1c0-.2-.2-4.3-1-10.5-2.2-17.3-9-51.2-29.8-63.7-.1-.8-.2-1.7-.3-2.5 29.7 15.9 32.9 70.9 33.1 76.3 0 0 0 0 0 0C1444.9 660.7 1444.9 660.9 1444.9 660.9zM1449 684.9l-.9 1.4-.2.3c-1.8-1.1-40.1-25.6-54.9-45.5.5-.5 1-1 1.5-1.4 13 17.7 46.2 39.9 53.2 44.4C1448.5 684.6 1448.9 684.9 1449 684.9zM1405.9 702.3l-.6 1.9c-.1 0-.4-.1-.9-.3-4.5-1.5-24.8-8.5-39-17.8.1-.7.2-1.5.4-2.2 12.9 8.7 31.7 15.5 37.9 17.6C1405.1 702 1405.8 702.2 1405.9 702.3z"/><g><path fill="#ffd91e" d="M637.2,938.6L637.2,938.6c-0.1,0.9-0.3,1.9-0.6,3l0,0c-4.5,16.7-26,44.2-48.5,45.9
										c-22.2,1.7-36.5,13.8-43,20.7c-2.7,2.9-4.1,5-4.1,5l0,0c-1.7-0.3-81.9-17.3-66.4-41.5c5.2-8.1,6.1-14.3,5.4-19.2l0,0
										c-0.2-1.2-0.4-2.3-0.8-3.3c-2.3-7.3-7.6-10.2-0.6-10.4c11.9-0.2,37.8-14.4,16.6-29.6c-18.4-13.2-58.5-35.5-55.5-58.7
										c0.1-0.8,0.2-1.7,0.5-2.5c0.7-2.7,2-5.4,4-8.1c14.3-19.1,37-36.3,43.8-53.9l0,0c0.6-1.4,1-2.9,1.3-4.3l0,0
										c1.3-5.8,0.7-11.7-2.7-17.7c-14.6-26-40.9-28-37.8-55.4c2.3-20.1,0.8-31.6-5.1-40.9c0,0-0.1,0-0.1-0.1
										c-2.1-3.3-4.8-6.4-8-9.4c0,0,1.3,0.7,3.5,2c7.7,4.6,26.2,16.7,35.4,33.2c5.9,10.5,23.7,20.2,40.7,30.3
										c0.6,0.4,1.2,0.7,1.7,1l0,0c16.7,9.9,32.3,20,34.7,31.4c2.6,12.2-2.2,28.5,0.3,44.1c0.2,1.4,0.5,2.7,0.8,4.1
										c3.2,12.9,12.2,25,35.4,33.8c26.7,10.1,35,17.9,36,26.5c0.3,2.2,0,4.4-0.5,6.8c0,0,0,0,0,0c-1.5,6.9-5.6,14.7-7.5,24.8
										c-5.2,27.1-0.9,29.9,16.2,32.6C636.6,929.7,638,933.4,637.2,938.6z"/><path fill="#e4c616" d="M561.3,965.8L561.3,965.8c-0.2,0.8-0.3,1.5-0.5,2.2c-4.6,18.4-11.6,32.9-15.7,40.3
										c-2.7,2.9-4.1,5-4.1,5l0,0l-0.8-0.5c0.2-0.3,8.9-13.7,15.5-34.3c0.2-0.6,0.4-1.3,0.6-2c0.9-2.9,1.7-5.9,2.5-9l0,0
										c0.1-0.4,0.2-0.8,0.3-1.2c3.5-14.4,5.4-31.1,3.2-48.8c-0.1-0.8-0.2-1.5-0.3-2.2l0,0c-1.5-10.5-4.4-21.4-9.3-32.2
										c-6.7-14.9-14.2-23.8-21.3-32.5c-7.2-8.7-13.9-16.8-18.7-29.7c0,0,0,0,0,0c-0.5-1.3-0.9-2.6-1.4-4
										c-3.1-9.9-5.2-22.4-5.8-39.6c-1.4-42-43.2-89.9-61.8-109.2c0,0-0.1,0-0.1-0.1c-2.1-3.3-4.8-6.4-8-9.4c0,0,1.3,0.7,3.5,2
										c13.1,12.9,66.8,68.4,68.4,116.6c0,0,0,0.1,0,0.1c0.1,1.6,0.1,3.1,0.2,4.6C509.9,821,520.6,834,533,849
										c4.5,5.5,9.2,11.1,13.7,18.2l0,0c0.7,1.2,1.5,2.4,2.2,3.7c0,0,0,0,0,0c1.9,3.3,3.8,6.9,5.6,11c10.3,22.6,12,45.1,10,65l0,0
										c-0.1,1-0.2,2-0.4,3C563.5,955.5,562.5,960.7,561.3,965.8z"/><path fill="#e4c616" d="M514.2 819.1l-1.3 1.6c0 0-.1-.1-.2-.1 0 0 0 0 0 0-2.2-1.8-20.6-17.8-24.7-34.4 0 0 0 0 0 0 .6-1.4 1-2.9 1.3-4.3 1.2 14 15.7 28.9 22 34.8C513.1 818.2 514.2 819.1 514.2 819.1zM507.8 781.7c-.1.2-.1.2-.1.2l-1.8-.9c0-.1.7-1.5 1.7-4 3.7-9.1 11.9-32.5 7.7-53.3.6.4 1.2.7 1.7 1l0 0C522.2 750.6 509.2 778.8 507.8 781.7zM548.9 871.2l-2 .2c0-.1-.1-1.6-.2-4.1l0 0c-.6-11.9-1.5-46.6 5.5-66.9.2 1.4.5 2.7.8 4.1-7.6 23.4-4.4 63-4 66.5 0 0 0 0 0 0C548.9 871.1 548.9 871.2 548.9 871.2zM563.6 915.5l-.6 1.9c0 0-.3-.1-.7-.2-8.3-2.7-89-29.5-122.6-66.6.1-.8.2-1.7.5-2.5 31.6 36.2 109.7 62.9 121.8 66.9C563 915.3 563.5 915.5 563.6 915.5zM557.1 978.5c-.1 0-.6 0-1.4-.1-2.3-.2-7.3-.6-13.8-1.7-16.7-2.7-43.6-9.1-61.8-24.1l0 0c-.2-1.2-.4-2.3-.8-3.3 25.1 22.5 70.1 26.6 77 27.1.5 0 .9.1.9.1L557.1 978.5zM623.8 871.5C623.8 871.5 623.8 871.5 623.8 871.5c-17.8 42.2-56.6 75.9-59.6 78.4-.1.1-.2.1-.2.2l-1.3-1.6c0-.1.7-.6 1.8-1.6l0 0c8.6-7.6 45-41.6 59.8-82.2C624.5 866.9 624.3 869.2 623.8 871.5zM637.2 938.6c-.1.9-.3 1.9-.6 2.9l0 0c-26.6 18-66.6 24.9-75.8 26.3-1 .2-1.6.2-1.8.3l-.1-.8 0 0-.2-1.2c0 0 .2 0 .5-.1.4-.1 1.2-.2 2.2-.3l0 0C571.9 964.1 611.8 956.6 637.2 938.6z"/></g></g><g><path fill="#de4d08" d="M707.6,1040.1c9.5,2.2,63.1,16.8,119.6,80.6c1,1.1,2,2.2,3,3.4c3.6,4.1,7.1,8.4,10.6,12.9
										c6.9,8.7,13.7,18.2,20.5,28.5c18.5,28,36.4,62.2,52.2,103.9c0,0.1,0.1,0.2,0.1,0.3c0,0.1,0.1,0.2,0.1,0.3
										c0,0.1,0.1,0.2,0.1,0.3c0.1,0.3,0.2,0.6,0.4,1c0,0-0.3,0-0.9,0c-0.3,0-0.7,0-1.2,0c-0.2,0-0.4,0-0.6,0
										c-16.1-0.2-101.2-4.5-156.6-72.5c-27.6-33.9-47.9-83.5-48.8-156.3c0-0.8,0-1.7,0-2.5
										C706.1,1039.8,706.6,1039.9,707.6,1040.1z"/><path fill="#de2c08" d="M840.9,1137c25.8,32.7,51.6,76.3,73.4,134.2c0,0-97.8,2.9-159.3-72.5
										C786.6,1200.5,840.5,1195.1,840.9,1137z"/><path fill="#de8d08" d="M984.3,731.8c0.2,0.7,0.4,1.5,0.7,2.2c21.9,73.4,17.5,123.5,0.8,157.6
										c-33.5,68.4-116.5,72.6-136.2,72.7c-0.9,0-1.7,0-2.4,0c-1.2,0-1.9,0-1.9,0c-39.9-26.3,12.8-142.7,69.1-179.9
										c10.4-6.9,19.3-13,27-18.4c26.9-19,38.1-29.3,41.6-32.7C983.9,732.3,984.3,731.8,984.3,731.8z"/><path fill="#dea408" d="M984.3,731.8c0.2,0.7,0.4,1.5,0.7,2.2c21.9,73.4,17.5,123.5,0.8,157.6c-0.3-22-4.8-57.2-25.5-96
										c-0.4-0.7-0.8-1.5-1.2-2.3c-5-9-10.8-18.2-17.7-27.5c26.9-19,38.1-29.3,41.6-32.7C983.9,732.3,984.3,731.8,984.3,731.8z"/><path fill="#de6608" d="M962.2,956c0.6,1.4,1.2,2.7,1.7,4.1c31.1,75.1,32.6,138.7,22.3,188.7l0,0
										c-15.6,76.4-58.5,121.4-65,127.9c0,0-0.1,0.1-0.1,0.1c-0.5,0.5-0.8,0.7-0.8,0.7c-0.6-0.7-1.2-1.4-1.8-2.1
										c-1.4-1.7-2.9-3.4-4.2-5.1c-0.3-0.3-0.6-0.6-0.8-1c0,0,0,0,0,0c-30.1-37-46-71.8-52.2-103.9
										c-11.6-60.1,10.6-110.4,37.2-146.7c27.5-37.6,59.7-60.1,63.3-62.5C962.1,956.1,962.2,956,962.2,956z"/><path fill="#de8d08" d="M962.2,956c0.6,1.4,1.2,2.7,1.7,4.1c31.1,75.1,32.6,138.7,22.3,188.7c-8.3-26.7-23.6-53-42.2-77.8
										c-0.5-0.7-1-1.4-1.5-2.1c-13.4-17.7-28.5-34.5-43.9-50.2c27.5-37.6,59.7-60.1,63.3-62.5C962.1,956.1,962.2,956,962.2,956z"/><path fill="#bd2c08" d="M984.3,731.8c0.2,0.7,0.4,1.5,0.7,2.2c-1.3,6.3-6.4,27-24.7,61.6c-13.3,25.1-33.5,57.5-64.2,97
										c-19.4,24.9-34.8,48.8-46.5,71.6c-20.6,40.5-29.3,78-26.6,113.5c1.3,16.3,3.8,31.8,7.3,46.3c2.5,10.4,5.4,20.3,8.8,29.8
										l0,0c18.1,51.2,47.8,89.4,74.6,115.8l0,0c0.2,0.2,0.5,0.5,0.7,0.7c0,0,0.1,0.1,0.1,0.1c1.2,1.2,2.5,2.4,3.7,3.6
										c0.7,0.6,1.3,1.3,2,1.9c0.3,0.3,0.7,0.6,1,0.9c0,0.1,0.1,0.1,0.2,0.1c0,0,0,0,0,0c43.1,39.7,84.6,57.4,85,57.6l-0.8,2
										c-0.4-0.2-43-18.3-86.8-59c-1.9-1.8-3.9-3.7-5.9-5.6c0,0,0,0,0,0c-0.2-0.2-0.4-0.4-0.7-0.7c-1.6-1.5-3.1-3.1-4.7-4.7
										c0,0,0,0,0,0c-25.2-25.8-52.1-61.8-69.4-108.9c-4.3-11.6-7.9-23.8-10.8-36.8l0,0l0,0c-3-13.5-5.2-27.7-6.4-42.8
										c-2.8-35.6,5.9-73.2,26.3-113.6c11.8-23.3,27.5-47.6,47.2-73c31.1-40.1,51.4-72.8,64.7-97.9c18.2-34.6,22.9-54.8,24-60.2
										C983.9,732.3,984.3,731.8,984.3,731.8z"/><path fill="#bd2c08" d="M707.6 1040.1c22.9 63 62.5 113.4 100.9 150.7 42.4 41.2 83.4 66.6 98.9 75.6 3.5 2 5.7 3.2 6.3 3.5.1 0 .2.1.2.1l-.1.2-.5 1-.4.7c0 0-.1 0-.2-.1 0 0 0 0 0 0-.2-.1-.7-.3-1.3-.7-8.8-4.8-56.1-31.5-105.2-79.4-38.1-37.2-77.3-87.2-100.3-149.4 0-.8 0-1.7 0-2.5C706.1 1039.8 706.6 1039.9 707.6 1040.1zM962.2 956c.6 1.4 1.2 2.7 1.7 4.1-.5 18.5-3.6 62.7-19.9 111-4.3 12.7-9.5 25.8-15.8 38.7-36 73.5-9.3 159.8-6.9 167 0 .1.1.2.1.2 0 0 0 0 0 0 .1.1.1.2.1.2l-1 .3-1 .4c0-.1-.3-.9-.8-2.5-.1-.4-.3-.9-.4-1.4-5.3-18.2-25.3-97.1 8.1-165.2 6.5-13.3 11.8-26.7 16.2-39.8 17-51.2 19.2-97.6 19.4-112.8C962.1 956.1 962.2 956 962.2 956z"/><g><path fill="#b55724" d="M954.2,549.7c0.5,7.9,1.2,52.9-35.6,111.3c-0.6,1-1.3,2.1-2,3.1c-2.4,3.7-4.9,7.4-7.6,11.2
										c-5.2,7.3-11,14.8-17.5,22.4c-17.6,20.7-40.1,42.4-69,64.1c-0.1,0.1-0.1,0.1-0.2,0.2c-0.1,0-0.1,0.1-0.2,0.1
										c0,0.1-0.1,0.1-0.2,0.1c-0.2,0.2-0.4,0.3-0.7,0.5c0,0-0.1-0.2-0.2-0.7c-0.1-0.2-0.2-0.6-0.3-1c0-0.2-0.1-0.3-0.1-0.5
										c-3.5-12.6-19.4-79.7,21-138.2c20.1-29.1,54.1-56.1,110.5-73.3c0.6-0.2,1.3-0.4,2-0.6C954.1,548.4,954.2,548.8,954.2,549.7
										z"/><path fill="#914824" d="M909,675.2c-19.6,27.5-47.7,57.4-87.7,87.4c0,0-24.4-75.4,20.4-140.3
										C847.4,647.3,863.8,688.1,909,675.2z"/><path fill="#006d24" d="M1321.5,693.4c-0.6,0.3-1.1,0.6-1.7,0.9c-54.1,30.4-94.4,35.8-124.3,28.7
										c-60-14.3-78.1-79.1-81.7-94.6c-0.2-0.7-0.3-1.4-0.4-1.9c-0.2-1-0.3-1.5-0.3-1.5c13.7-36.2,115-15.3,154.4,22.5
										c7.3,7,13.7,13,19.3,18c19.8,17.8,29.9,24.9,33.3,27C1321.1,693.2,1321.5,693.4,1321.5,693.4z"/><path fill="#1a8124" d="M1321.5 693.4c-.6.3-1.1.6-1.7.9-54.1 30.4-94.4 35.8-124.3 28.7 17.3-4.1 44.3-14 71.3-37.2.5-.4 1.1-.9 1.6-1.3 6.2-5.5 12.5-11.8 18.6-18.8 19.8 17.8 29.9 24.9 33.3 27C1321.1 693.2 1321.5 693.4 1321.5 693.4zM1140.6 715.9c-1 .7-1.9 1.4-2.9 2.1-53.8 37.9-103.7 50.4-145.1 51.3h0c-63.1 1.3-106.3-24.6-112.6-28.5 0 0-.1 0-.1-.1-.5-.3-.7-.5-.7-.5.4-.6.9-1.2 1.3-1.8 1.1-1.4 2.2-2.9 3.3-4.3.2-.3.4-.6.6-.8 0 0 0 0 0 0 23.8-30.4 48.5-49.1 72.8-59.7 45.4-19.9 89.1-11.3 122.5 3.2 34.6 15.1 58.1 36.5 60.7 38.9C1140.5 715.9 1140.6 715.9 1140.6 715.9z"/><path fill="#3e8b24" d="M1140.6,715.9c-1,0.7-1.9,1.4-2.9,2.1c-53.8,37.9-103.7,50.4-145.1,51.3c19.6-11.3,37.6-28,53.9-47.2
										c0.4-0.5,0.9-1.1,1.3-1.6c11.6-13.7,22.2-28.7,31.9-43.7c34.6,15.1,58.1,36.5,60.7,38.9
										C1140.5,715.9,1140.6,715.9,1140.6,715.9z"/><path fill="#004f24" d="M1321.5,693.4c-0.6,0.3-1.1,0.6-1.7,0.9c-5.2,0.1-22.5-0.3-53-8.6c-22.2-6-51.4-16.2-88.1-33.4
										c-23.1-10.8-44.7-18.8-64.9-24c-35.6-9.1-66.8-9.3-94.4-0.8c-12.7,3.9-24.4,8.7-35.3,14c-7.8,3.8-15.1,7.9-21.9,12.2h0
										c-37.2,23.4-62.1,53.6-78.2,79.6v0c-0.1,0.2-0.3,0.4-0.4,0.7c0,0-0.1,0.1-0.1,0.1c-0.7,1.2-1.5,2.4-2.2,3.6
										c-0.4,0.6-0.8,1.3-1.1,1.9c-0.2,0.3-0.4,0.6-0.5,0.9c-0.1,0.1-0.1,0.1-0.1,0.2c0,0,0,0,0,0c-23.7,41.1-30.2,77.1-30.3,77.4
										l-1.7-0.3c0.1-0.4,6.8-37.2,31.2-79.1c1.1-1.9,2.2-3.7,3.4-5.7c0,0,0,0,0,0c0.2-0.2,0.3-0.4,0.4-0.6c0.9-1.5,1.9-3,2.9-4.6
										c0,0,0,0,0,0c15.9-24.5,39.5-52.2,73.7-74.2c8.4-5.4,17.4-10.5,27.1-15.1l0,0v0c10.1-4.8,21-9.1,32.6-12.7
										c27.6-8.6,58.9-8.4,94.5,0.5c20.5,5.2,42.5,13.2,66,24.3c37.2,17.5,66.7,27.7,88.9,33.6c30.6,8.2,47.4,8.3,51.8,8.2
										C1321.1,693.2,1321.5,693.4,1321.5,693.4z"/><path fill="#914824" d="M954.2,549.7c-43.8,32-74,74.2-94.4,112.5c-22.5,42.3-33,79.9-36.4,94c-0.8,3.2-1.2,5.1-1.3,5.7
										c0,0.1,0,0.2,0,0.2l-0.2,0l-0.9-0.2l-0.7-0.1c0,0,0-0.1,0-0.1c0,0,0,0,0,0c0.1-0.2,0.1-0.6,0.2-1.1
										c1.7-7.9,11.8-50.7,38-99.7C879,622.7,908.9,581,952.2,549c0.6-0.2,1.3-0.4,2-0.6C954.1,548.4,954.2,548.8,954.2,549.7z"/><path fill="#004f24" d="M1140.6,715.9c-1,0.7-1.9,1.4-2.9,2.1c-14.7,2.9-50.1,8.3-91.2,4.1c-10.8-1.1-22.1-2.9-33.4-5.6
										c-64.5-15.4-127.9,21.2-133.1,24.3c-0.1,0-0.1,0.1-0.2,0.1c0,0,0,0,0,0c-0.1,0.1-0.2,0.1-0.2,0.1l-0.4-0.7l-0.5-0.7
										c0.1,0,0.7-0.4,1.8-1.1c0.3-0.2,0.7-0.4,1-0.6c13.4-7.4,72.2-37.3,132-23c11.7,2.8,23.2,4.6,34.3,5.7
										c43.5,4.3,80.5-2.2,92.5-4.8C1140.5,715.9,1140.6,715.9,1140.6,715.9z"/></g><g><path fill="#cf6424" d="M1577.8,797c-4.9-0.7-33.2-3.1-72.1,21.3c-0.7,0.4-1.4,0.9-2.1,1.3c-2.5,1.6-5,3.3-7.5,5.1
										c-4.9,3.5-10,7.4-15.1,11.8c-14.1,12-29.1,27.5-44.6,47.6c0,0.1-0.1,0.1-0.1,0.2c0,0-0.1,0.1-0.1,0.1c0,0-0.1,0.1-0.1,0.1
										c-0.1,0.2-0.2,0.3-0.3,0.5c0,0,0.1,0.1,0.4,0.2c0.1,0.1,0.3,0.1,0.6,0.2c0.1,0,0.2,0.1,0.3,0.1c7.7,3.1,48.9,17.5,88.2-9.5
										c19.5-13.4,38.6-37.1,52.9-77.5c0.2-0.5,0.3-0.9,0.5-1.4C1578.5,797.1,1578.3,797,1577.8,797z"/><path fill="#b55724" d="M1496.1 824.7c-18.5 13.2-39 32.4-60.4 60.3 0 0 45.9 20.9 89.4-9C1509.8 870.8 1485.2 857.2 1496.1 824.7zM1505.1 570.5c-.2.4-.5.7-.7 1.1-24.4 36.6-31.8 65.4-30.3 87.7 2.9 44.7 41.5 63.5 50.8 67.4.4.2.8.3 1.1.5.6.2.9.3.9.3 23.9-6.8 21.1-82.1 1.4-113.9-3.6-5.9-6.7-11.1-9.3-15.6-9.1-15.9-12.5-23.8-13.5-26.5C1505.2 570.8 1505.1 570.5 1505.1 570.5z"/><path fill="#ac4824" d="M1505.1,570.5c-0.2,0.4-0.5,0.7-0.7,1.1c-24.4,36.6-31.8,65.4-30.3,87.7
										c4.3-12.2,13.1-30.9,30.4-48.5c0.3-0.3,0.7-0.7,1-1c4.1-4,8.6-8,13.6-11.8c-9.1-15.9-12.5-23.8-13.5-26.5
										C1505.2,570.8,1505.1,570.5,1505.1,570.5z"/><path fill="#cf7b24" d="M1472.9,699.8c-0.5,0.7-1.1,1.3-1.6,1.9c-29.1,35.7-41.9,70.9-46.5,100.8l0,0
										c-7.1,45.7,4.7,79.2,6.5,84.1c0,0,0,0,0,0.1c0.1,0.4,0.2,0.6,0.2,0.6c0.4-0.3,0.8-0.5,1.3-0.8c1-0.7,2-1.3,3-2
										c0.2-0.1,0.4-0.3,0.6-0.4c0,0,0,0,0,0c21.3-14.7,35.5-31,44.6-47.6c17-31.2,16-63.7,10.3-89.1
										c-5.9-26.4-16.9-45.3-18.2-47.4C1472.9,699.9,1472.9,699.8,1472.9,699.8z"/><path fill="#b55724" d="M1472.9,699.8c-0.5,0.7-1.1,1.3-1.6,1.9c-29.1,35.7-41.9,70.9-46.5,100.8c9-13.2,21.3-24.9,34.8-35
										c0.4-0.3,0.7-0.6,1.1-0.8c9.7-7.2,20.1-13.6,30.4-19.3c-5.9-26.4-16.9-45.3-18.2-47.4
										C1472.9,699.9,1472.9,699.8,1472.9,699.8z"/><path fill="#914824" d="M1505.1,570.5c-0.2,0.4-0.5,0.7-0.7,1.1c-0.6,3.8-2.1,16.3,0,39.2c1.5,16.6,5,38.7,12,66.7
										c4.4,17.7,7.2,34.1,8.4,49.1c2.1,26.6-0.9,49.3-9,68.5c-3.7,8.9-7.8,17-12.3,24.4c-3.1,5.3-6.4,10.2-9.8,14.9l0,0
										c-18.3,25-39.7,40.4-57.5,49.8l0,0c-0.2,0.1-0.3,0.2-0.5,0.2c0,0,0,0-0.1,0c-0.8,0.4-1.6,0.9-2.4,1.3
										c-0.4,0.2-0.9,0.4-1.3,0.6c-0.2,0.1-0.4,0.2-0.6,0.3c0,0-0.1,0-0.1,0c0,0,0,0,0,0c-28,13.6-51.1,15.3-51.3,15.3l0,1.3
										c0.2,0,23.9-1.7,52.4-15.8c1.3-0.6,2.6-1.3,3.9-2c0,0,0,0,0,0c0.1-0.1,0.3-0.2,0.4-0.2c1-0.5,2.1-1.1,3.1-1.7c0,0,0,0,0,0
										c16.9-9.4,36.5-24.2,53.7-47c4.2-5.6,8.3-11.7,12.1-18.4l0,0l0,0c4-6.9,7.8-14.4,11.2-22.6c8.1-19.3,11.2-42,9.1-68.5
										c-1.2-15.3-4-31.9-8.5-50c-7.2-28.5-10.6-50.7-12.1-67.4c-2-22.9-0.5-35.1,0.1-38.3
										C1505.2,570.8,1505.1,570.5,1505.1,570.5z"/><path fill="#914824" d="M1577.8 797c-22.8 30.6-51.2 50.9-76.6 64.1-28 14.6-52.3 20.7-61.3 22.6-2 .4-3.3.6-3.7.7-.1 0-.1 0-.1 0l0 .1.1.6 0 .5c0 0 0 0 .1 0 0 0 0 0 0 0 .1 0 .4-.1.7-.1 5.1-.9 32.6-6.5 65-23.5 25.2-13.2 53.3-33.3 76-63.5.2-.5.3-.9.5-1.4C1578.5 797.1 1578.3 797 1577.8 797zM1472.9 699.8c-.5.7-1.1 1.3-1.6 1.9-3.3 10.4-10.2 35.7-11.7 65.8-.4 8-.4 16.2.2 24.7 3.1 48.1-26 90.9-28.5 94.5 0 0-.1.1-.1.1 0 0 0 0 0 0-.1.1-.1.1-.1.1l.4.4.4.4c0 0 .3-.5.8-1.2.1-.2.3-.4.5-.7 6-9.1 30.5-49.2 27.6-93.7-.6-8.7-.5-17.2-.1-25.4 1.7-31.9 9.5-58.2 12.3-66.7C1472.9 699.9 1472.9 699.8 1472.9 699.8z"/></g></g><g><path fill="#4052ff" d="M955.2,753.6v302.1c0,5.8-4.7,10.5-10.5,10.5H512.2c-5.8,0-10.5-4.7-10.5-10.5V753.6
									c0-5.8,4.7-10.5,10.5-10.5h432.5C950.5,743.1,955.2,747.8,955.2,753.6z" opacity=".5"/><path fill="#ffe0a9" d="M966.2,762.6v302.1c0,5.8-4.7,10.5-10.5,10.5H523.3c-5.8,0-10.5-4.7-10.5-10.5V762.6
									c0-5.8,4.7-10.5,10.5-10.5h432.5C961.5,752.1,966.2,756.8,966.2,762.6z"/><path fill="#ffd191" d="M660.9 869.9h-86.9c-1 0-1.7-.8-1.7-1.7s.8-1.7 1.7-1.7h86.9c1 0 1.7.8 1.7 1.7S661.8 869.9 660.9 869.9zM719.1 889H573.9c-1 0-1.7-.8-1.7-1.7s.8-1.7 1.7-1.7h145.2c1 0 1.7.8 1.7 1.7S720 889 719.1 889zM884.3 908.1H573.9c-1 0-1.7-.8-1.7-1.7s.8-1.7 1.7-1.7h310.4c1 0 1.7.8 1.7 1.7S885.3 908.1 884.3 908.1zM719.1 927.2H573.9c-1 0-1.7-.8-1.7-1.7s.8-1.7 1.7-1.7h145.2c1 0 1.7.8 1.7 1.7S720 927.2 719.1 927.2zM884.3 946.3H573.9c-1 0-1.7-.8-1.7-1.7 0-1 .8-1.7 1.7-1.7h310.4c1 0 1.7.8 1.7 1.7C886 945.5 885.3 946.3 884.3 946.3z"/><path fill="#ffd191" d="M966.2,817v247.7c0,5.8-4.7,10.5-10.5,10.5H720.4c-9-14.5-20.6-37.1-26.9-64.7
							c-11.4-49.7,34.6-82.1,71.9-88.2c37.3-6.1,120.8,49.7,150.3,41c29.4-8.7,5.5-36.9-8.4-81.8c-0.1-0.5-0.3-0.9-0.4-1.3
							c-7.9-26.2,8.5-53.5,35.4-58.6L966.2,817z"/><path fill="#4052ff" d="M665 864.1H578c-1 0-1.7-.8-1.7-1.7 0-1 .8-1.7 1.7-1.7H665c1 0 1.7.8 1.7 1.7C666.7 863.3 665.9 864.1 665 864.1zM723.2 883.2H578c-1 0-1.7-.8-1.7-1.7 0-1 .8-1.7 1.7-1.7h145.2c1 0 1.7.8 1.7 1.7C724.9 882.4 724.2 883.2 723.2 883.2zM888.4 902.3H578c-1 0-1.7-.8-1.7-1.7 0-1 .8-1.7 1.7-1.7h310.4c1 0 1.7.8 1.7 1.7C890.2 901.5 889.4 902.3 888.4 902.3zM723.2 921.4H578c-1 0-1.7-.8-1.7-1.7 0-1 .8-1.7 1.7-1.7h145.2c1 0 1.7.8 1.7 1.7C724.9 920.6 724.2 921.4 723.2 921.4zM888.4 940.5H578c-1 0-1.7-.8-1.7-1.7 0-1 .8-1.7 1.7-1.7h310.4c1 0 1.7.8 1.7 1.7C890.2 939.7 889.4 940.5 888.4 940.5z"/><g><path fill="#4052ff" d="M966.2,792.6H512.8v-30c0-5.8,4.7-10.5,10.5-10.5h432.5c5.8,0,10.5,4.7,10.5,10.5V792.6z"/></g><g><rect width="453.4" height="9" x="512.8" y="792.6" fill="#ffd191"/></g><g><circle cx="728.5" cy="832.5" r="13.2" fill="#ffd191"/></g><g><circle cx="732.6" cy="826.7" r="13.2" fill="#4052ff"/></g><g><path fill="#ffd191" d="M582.7,1038.9c-0.2,11.3,5.9,27.1,9.9,36.3h-3.3c-5.8-12.5-9.9-28-9.9-28s-3.8-0.5-37.6-40.4
							c-33.9-39.9-3.7-94.1-3.7-94.1s27.8,20,38.3,57C586.8,1006.6,583,1022,582.7,1038.9z"/></g><g><path fill="#4052ff" d="M1407.8,778.7v345.6c0,5.8-4.7,10.5-10.5,10.5h-243.2c-5.8,0-10.5-4.7-10.5-10.5V778.7
									c0-5.8,4.7-10.5,10.5-10.5h243.2C1403.1,768.3,1407.8,773,1407.8,778.7z" opacity=".5"/><path fill="#ffe0a9" d="M1416.7,786.9v345.6c0,5.8-4.7,10.5-10.5,10.5h-243.2c-5.8,0-10.5-4.7-10.5-10.5V786.9
									c0-5.8,4.7-10.5,10.5-10.5h243.2C1412,776.4,1416.7,781.1,1416.7,786.9z"/><path fill="#4052ff" d="M1416.7,786.9v17h-264.1v-17c0-5.8,4.7-10.5,10.5-10.5h243.2C1412,776.4,1416.7,781.1,1416.7,786.9z"/><circle cx="1228.9" cy="871" r="17.9" fill="#ffd191"/><path fill="#ffd191" d="M1260.4 918h-47c-1 0-1.7-.8-1.7-1.7s.8-1.7 1.7-1.7h47c1 0 1.7.8 1.7 1.7S1261.4 918 1260.4 918zM1291.9 937.1h-78.5c-1 0-1.7-.8-1.7-1.7 0-1 .8-1.7 1.7-1.7h78.5c1 0 1.7.8 1.7 1.7C1293.6 936.3 1292.9 937.1 1291.9 937.1zM1381.2 956.2h-167.8c-1 0-1.7-.8-1.7-1.7 0-1 .8-1.7 1.7-1.7h167.8c1 0 1.7.8 1.7 1.7C1382.9 955.4 1382.2 956.2 1381.2 956.2zM1291.9 975.3h-78.5c-1 0-1.7-.8-1.7-1.7 0-1 .8-1.7 1.7-1.7h78.5c1 0 1.7.8 1.7 1.7C1293.6 974.5 1292.9 975.3 1291.9 975.3zM1381.2 994.4h-167.8c-1 0-1.7-.8-1.7-1.7 0-1 .8-1.7 1.7-1.7h167.8c1 0 1.7.8 1.7 1.7C1382.9 993.6 1382.2 994.4 1381.2 994.4zM1381.2 1032.6h-167.8c-1 0-1.7-.8-1.7-1.7s.8-1.7 1.7-1.7h167.8c1 0 1.7.8 1.7 1.7S1382.2 1032.6 1381.2 1032.6zM1307.4 1051.7h-94c-1 0-1.7-.8-1.7-1.7 0-1 .8-1.7 1.7-1.7h94c1 0 1.7.8 1.7 1.7C1309.2 1050.9 1308.4 1051.7 1307.4 1051.7zM1381.2 1070.8h-167.8c-1 0-1.7-.8-1.7-1.7s.8-1.7 1.7-1.7h167.8c1 0 1.7.8 1.7 1.7S1382.2 1070.8 1381.2 1070.8zM1381.2 1013.5h-167.8c-1 0-1.7-.8-1.7-1.7 0-1 .8-1.7 1.7-1.7h167.8c1 0 1.7.8 1.7 1.7C1382.9 1012.7 1382.2 1013.5 1381.2 1013.5z"/><g><path fill="#4043eb" d="M1219.9,776.4c-4.5,7.7-11.4,17.7-21.4,27.4h-45.9v-17c0-5.8,4.7-10.5,10.5-10.5H1219.9z"/></g><g><circle cx="1221.7" cy="868" r="17.9" fill="#4052ff"/></g><g><path fill="#4052ff" d="M1253.2 915h-47c-1 0-1.7-.8-1.7-1.7 0-1 .8-1.7 1.7-1.7h47c1 0 1.7.8 1.7 1.7C1254.9 914.2 1254.1 915 1253.2 915zM1284.6 934.1h-78.5c-1 0-1.7-.8-1.7-1.7 0-1 .8-1.7 1.7-1.7h78.5c1 0 1.7.8 1.7 1.7C1286.4 933.3 1285.6 934.1 1284.6 934.1zM1374 953.2h-167.8c-1 0-1.7-.8-1.7-1.7 0-1 .8-1.7 1.7-1.7H1374c1 0 1.7.8 1.7 1.7C1375.7 952.4 1374.9 953.2 1374 953.2zM1284.6 972.3h-78.5c-1 0-1.7-.8-1.7-1.7 0-1 .8-1.7 1.7-1.7h78.5c1 0 1.7.8 1.7 1.7C1286.4 971.5 1285.6 972.3 1284.6 972.3zM1374 991.4h-167.8c-1 0-1.7-.8-1.7-1.7 0-1 .8-1.7 1.7-1.7H1374c1 0 1.7.8 1.7 1.7C1375.7 990.6 1374.9 991.4 1374 991.4zM1374 1029.6h-167.8c-1 0-1.7-.8-1.7-1.7 0-1 .8-1.7 1.7-1.7H1374c1 0 1.7.8 1.7 1.7C1375.7 1028.8 1374.9 1029.6 1374 1029.6zM1300.2 1048.7h-94c-1 0-1.7-.8-1.7-1.7 0-1 .8-1.7 1.7-1.7h94c1 0 1.7.8 1.7 1.7C1301.9 1047.9 1301.1 1048.7 1300.2 1048.7zM1374 1067.8h-167.8c-1 0-1.7-.8-1.7-1.7 0-1 .8-1.7 1.7-1.7H1374c1 0 1.7.8 1.7 1.7C1375.7 1067 1374.9 1067.8 1374 1067.8zM1374 1010.5h-167.8c-1 0-1.7-.8-1.7-1.7 0-1 .8-1.7 1.7-1.7H1374c1 0 1.7.8 1.7 1.7C1375.7 1009.7 1374.9 1010.5 1374 1010.5z"/></g><g><path fill="#ffd191" d="M1278.2,1143h-27c4.7-10.8,13.3-28.7,19-32.1C1278,1106.2,1291.6,1122.9,1278.2,1143z"/></g><g><path fill="#ffd191" d="M1416.7,1033.2v11.1l-9.3,13c-19.1,28.3-48.2,50-62.1,59.5c3.7-1.1,7.8-2.1,12.3-2.9
							c29-5.4,46.1,0,46.1,0s-31.2,36-73.3,19.6h-9.1l-16.7,9.5h-12.4c6.6-2.4,15.2-6.2,25.5-12.3c0,0,5.5-5.7,19.1-11
							c49.8-34,68.6-66.8,68.6-66.8l-3-3.5l-8.6-4.2c-26.8-23.7,4.8-68.4,4.8-68.4l6.7,7.9c16.3,22.9,3.1,60.5,3.1,60.5
							L1416.7,1033.2z"/></g></g></g><g><path fill="#ffd91e" d="M1051.8,756.7c2.9-6.7-34.3-21.4-32.6-36.2c1.5-12.7,31.5-24.5,43-15.4c12.4,9.8,1.6,42.3,6.3,43.5
							c4,1,8-23.4,21.7-26.7c13-3.2,32.2,13.3,30.4,24.5c-2.2,13.8-36,16.5-35.3,24c0.6,7.2,32,4.5,35.8,16.3
							c3.8,11.6-20.1,35.1-34.4,30.8c-14.9-4.5-16.4-37.8-21.7-37.2c-4.5,0.5-0.2,23.5-10.9,29.9c-10.9,6.5-37.6-3.9-40.3-22.7
							c-1.4-9.4,3.4-20.1,11.3-25.4C1036.5,754.4,1050,760.8,1051.8,756.7z"/><circle cx="1067.5" cy="763.3" r="11.1" fill="#f37700"/><path fill="#006d24" d="M1072.5,1015l-1.1-1.6c0.1-0.1,14.3-10.2,23.2-28.1c8.2-16.6,13.4-43.5-8.1-77.6
								c-21.9-34.8-26.8-67.6-27.1-89c-0.3-23.2,4.6-38.5,4.6-38.6l1.9,0.6c-0.2,0.6-19.1,60.3,22.3,126c22,35,16.6,62.6,8.1,79.6
								C1087.2,1004.6,1072.6,1014.9,1072.5,1015z"/><path fill="#006d24" d="M1090.6 912.5c0 0-18.2-40.3 0-43.3S1090.6 912.5 1090.6 912.5zM1063.9 850c0 0-27.8-38.7-27.8-17.5S1063.9 850 1063.9 850z"/><path fill="#549208" d="M1102.7 954.2c0 0-19-32.8-21.2-18.9S1102.7 954.2 1102.7 954.2zM1098.6 978.2c0 0 32.8-13.8 35.4-4.2C1136.6 983.7 1098.6 978.2 1098.6 978.2z"/><g><path fill="#ffd91e" d="M1283.4,1260.3c7.1-1.8-4-40.3,8.8-48c11-6.6,38.6,10,38.5,24.7c-0.2,15.8-32.6,27.1-30.6,31.5
							c1.7,3.8,23.4-7.9,34.5,0.9c10.4,8.4,9,33.6-0.9,39c-12.3,6.6-35-18.5-40.6-13.4c-5.3,4.9,15.9,28.1,8.9,38.3
							c-6.9,10.1-40.1,5.5-45.4-8.5c-5.5-14.5,19.9-36.1,16.2-39.9c-3.1-3.2-18.8,14.2-30.3,9.6c-11.8-4.6-19.8-32.1-6.6-45.8
							c6.6-6.9,18-9.5,27-6.5C1275.9,1246.9,1279.1,1261.4,1283.4,1260.3z"/><circle cx="1287.7" cy="1276.9" r="11.1" fill="#f37700"/><path fill="#006d24" d="M1091.3,1434.2l0.6-1.9c0.2,0.1,16.8,5.2,36.5,1.2c18.1-3.6,42.6-15.9,56.6-53.7
								c14.2-38.5,37.2-62.5,54-75.8c18.2-14.4,33.3-19.8,33.5-19.9l0.7,1.9c-0.6,0.2-59.4,21.6-86.3,94.5
								c-14.3,38.8-39.5,51.3-58.2,55C1108.5,1439.5,1091.4,1434.3,1091.3,1434.2z"/><path fill="#006d24" d="M1183.5 1386.1c0 0 20.9-39 34.3-26.4C1231.2 1372.3 1183.5 1386.1 1183.5 1386.1zM1216.8 1326.9c0 0 13.8-45.7-3.1-32.7S1216.8 1326.9 1216.8 1326.9z"/><path fill="#549208" d="M1157.9 1421.1c0 0 14.4-35.1 2-28.3C1147.6 1399.6 1157.9 1421.1 1157.9 1421.1zM1136.3 1432.5c0 0 31 17.6 24.9 25.5C1155.2 1465.9 1136.3 1432.5 1136.3 1432.5z"/></g></g><g><path fill="#549208" d="M1081.4,1006.3L1081.4,1006.3c0,0.2,0.1,0.4,0.1,0.6c1.2,11.1-0.8,18.1-4.7,22.5
										c-1.7,1.9-3.7,3.3-6,4.4c-0.5,0.2-1.1,0.5-1.6,0.7c-12.5,4.8-31.3,1.1-42.6,6.7c-0.4,0.2-0.8,0.4-1.2,0.7l0,0
										c-1.8,1-3.3,2.3-4.6,4c-5.1,6.6-7.6,14.1-7.2,20.9c0,0.4,0,0.8,0.1,1.2c0.4,3.5,1.5,6.8,3.4,9.8c2.9,4.5,7.7,8.1,14.5,10.2
										c0.5,0.1,1,0.3,1.5,0.4c4.2,1.1,9.1,1.7,14.7,1.6c8.1-0.2,16.4,1.8,24.3,5.4c0,0,0,0,0,0c0.5,0.2,1,0.4,1.4,0.7
										c14.2,6.8,26.7,18.5,33.1,31.1c3.6,7,5.2,14.3,4.2,21.2c-0.4,2.8-1.2,5.5-2.6,8.1c-0.1,0.2-0.2,0.4-0.3,0.6
										c-5.2,9.7-12.6,15.1-20.4,18.4l0,0c-0.5,0.2-0.9,0.4-1.4,0.6c-9.8,3.9-20,4.8-27.2,7.1c-0.7,0.2-1.3,0.4-1.9,0.7
										c-2.1,0.8-3.8,1.8-5,3.1c-1.4,1.5-2.5,3.7-3.1,6.2c-0.3,1.3-0.5,2.8-0.6,4.3c0,0.4,0,0.7,0,1.1c-0.1,7.1,2.4,15.3,7.8,20.8
										c0.3,0.3,0.5,0.5,0.8,0.8c4.6,4.2,11.2,6.5,19.8,5c3.6-0.6,7.4-1.3,11.2-1.7l0,0c0.5-0.1,1.1-0.1,1.6-0.2
										c6.9-0.8,13.9-1.2,20.5-0.3c16.5,2.1,30.1,11.5,32.1,39.3c0.2,2.4,0.2,4.7,0,6.9c0,0.4,0,0.8-0.1,1.2
										c-1.5,17.7-12.9,28-25.4,35.5c-0.8,0.5-1.7,1-2.5,1.4c0,0,0,0,0,0c-13.9,7.8-28.6,12.5-33,20.1
										c-8,13.6-10.2,25.3-10.7,28.4c-0.1,0.5-0.1,0.8-0.1,0.8s-1-1.1-3-2.9c0,0,0,0,0,0c-3.7-3.4-10.6-9.3-20.3-15.3
										c-5.7-3.5-12.3-7.1-19.7-10.2c-10.8-4.5-23.3-8.2-37.4-9.6c-0.4-0.1-0.9-0.1-1.3-0.1c-10.3-0.9-21.4-0.6-33.2,1.4
										c-11.5,2-21.3,3-29.6,3.2c-0.4,0-0.9,0-1.3,0c-24.5,0.3-36-6.5-42-15.1l0,0c-0.1-0.1-0.2-0.3-0.3-0.5
										c-3.7-5.5-5.2-11.7-6.4-17.2c-1-4.4-0.2-8.8,2-13.2c3.1-6,8.9-12,16.4-17.6l0,0c0.4-0.3,0.8-0.6,1.2-0.9c0,0,0,0,0,0
										c8-5.8,17.8-11.3,27.9-16.1c3.8-1.8,7.1-4,9.8-6.4c0.4-0.3,0.7-0.6,1.1-1c1.7-1.6,3.1-3.3,4.3-5c4.8-6.8,6.3-14.5,5-20.9
										c-0.1-0.4-0.2-0.8-0.3-1.1c-0.8-3.1-2.3-5.8-4.4-8c-2.4-2.4-5.5-4.1-9.3-4.7c-1.8-0.3-3.5-0.7-5.1-1.1
										c-0.4-0.1-0.8-0.2-1.1-0.3c-8.7-2.6-14.5-6.6-25.8-4.7c-0.4,0.1-0.8,0.1-1.1,0.2c-7.3,1.5-16.8,5.4-30.7,13.5
										c-2.3,1.4-4.5,2.7-6.7,3.9c-1.1,0.6-2.2,1.3-3.3,1.9c-21.6,12.4-38.1,20.5-50.8,19.9c-0.3,0-0.6,0-0.9-0.1l0,0
										c-7.8-0.6-14-4.7-19-13.2c-1.6-2.8-3-5.8-4-9c-0.1-0.2-0.1-0.4-0.2-0.6c-1.7-5.5-2.5-11.4-2.5-17.4c0-3.8,0.3-7.7,0.9-11.5
										c0.2-1.4,0.5-2.7,0.8-4.1c3.3-14.9,11.2-28,21.7-32.6c7.5-3.3,18.7-4.4,30.3-5.1l0,0c0.6,0,1.2-0.1,1.8-0.1
										c19.9-1.2,40.7-1.5,46-9.8c1.3-2,2.7-4.2,4-6.4c3.1-5.1,5.8-10.7,6.7-16.5l0,0c0-0.2,0.1-0.3,0.1-0.5
										c0.2-1.5,0.2-3,0.1-4.5c-0.2-2.6-0.8-5.2-2.1-7.8c-1.9-4-5.1-8.1-10.2-12.1c-2.5-2-5.8-4.4-9.6-7.1l0,0
										c-0.4-0.3-0.8-0.6-1.3-0.9c-9.7-6.8-22.2-15.4-33.7-24.7l0,0c-0.4-0.3-0.7-0.6-1.1-0.9c-22-18.1-39.7-38.8-25.2-54.9l0,0
										c0.2-0.2,0.3-0.4,0.5-0.5c1.9-2.1,3.7-3.9,5.6-5.6c0.5-0.5,1.1-0.9,1.6-1.4c9.8-8.3,19.3-11.6,27.7-12.5
										c0.5-0.1,1-0.1,1.4-0.1c10.4-0.9,19.2,1.7,25.1,2.3c3,0.3,8,0.8,13.9,1.2c0.5,0,1,0.1,1.5,0.1c12.4,0.6,28.1,0.2,37.9-5.4
										c0.3-0.2,0.7-0.4,1-0.6c3.6-2.3,6.4-5.4,7.6-9.6c1.9-6.1,1.7-14.7,0.5-24c-0.1-0.8-0.2-1.6-0.3-2.4
										c-0.1-0.6-0.2-1.1-0.3-1.7c-3.4-21.6-11.4-46-12.6-53c-0.4-2.4-0.5-4.9-0.2-7.3l0,0c0.1-0.7,0.2-1.3,0.3-2l0,0
										c1.7-9.2,7.9-18,17.5-22.5c0.2-0.1,0.4-0.2,0.6-0.3c6.5-3,14.4-4.1,23.4-2.2c0.3,0.1,0.7,0.2,1,0.2c0,0,0,0,0,0
										c3.1,0.7,6.3,1.7,9.6,3.2c4.4,1.9,8.1,3.9,11.4,5.9c3.9,2.5,7.2,5.1,9.8,7.8c0.3,0.3,0.5,0.5,0.8,0.8
										c11.1,12.1,9.8,26,4.6,39.2c-1.9,4.7-3.8,10.7-5.1,17.1c-0.1,0.4-0.2,0.9-0.3,1.3c-1.7,9.1-2.2,18.9,0.3,27.1
										c0.1,0.4,0.3,0.9,0.4,1.3l0,0c0.8,2.4,2,4.7,3.5,6.8c2.8,4,6.9,7.2,12.5,9.2c0.4,0.2,0.9,0.3,1.4,0.4
										c1.1,0.3,2.2,0.6,3.4,0.8c10.5,2.1,20.8,2.5,30.3,4c0.5,0.1,1,0.2,1.5,0.2C1063.7,969.2,1078,976.4,1081.4,1006.3z"/><path fill="#729208" d="M956.6 862.7c3.5 14.3-13.2 21.5-14.3 45.6-.7 15.8 5.4 34.3 18 46.2 21.3 20.1 46.9 7.5 56.2 23.6 8.4 14.4-3.4 39.6-19.4 52.8-14.7 12.1-38.1 18.4-54.3 9.4-14.3-8-11.9-21.6-22-35.5-23.7-32.6-78.1-14-105.4-23.7 9.8-8.3 19.3-11.6 27.7-12.5.5-.1 1-.1 1.4-.1 10.4-.9 19.2 1.7 25.1 2.3 3 .3 8 .8 13.9 1.2.5 0 1 .1 1.5.1 12.4.6 28.1.2 37.9-5.4.3-.2.7-.4 1-.6 3.6-2.3 6.4-5.4 7.6-9.6 1.9-6.1 1.7-14.7.5-24-.1-.8-.2-1.6-.3-2.4-.1-.6-.2-1.1-.3-1.7-3.4-21.6-11.4-46-12.6-53-.4-2.4-.5-4.9-.2-7.3l0 0c.1-.7.2-1.3.3-2l0 0c1.7-9.2 7.9-18 17.5-22.5.2-.1.4-.2.6-.3C946.9 847.8 954.5 854.6 956.6 862.7zM1023.3 1115.4c2.3 11.1-28.5 32.7-62 36.6-32.9 3.8-38.3-13-74-10-19 1.6-19.8 6.5-66.8 19.8-18.3 5.2-31.7 8.9-40.4 10.7 3.3-14.9 11.2-28 21.7-32.6 7.5-3.3 18.7-4.4 30.3-5.1l0 0c.6 0 1.2-.1 1.8-.1 19.9-1.2 40.7-1.5 46-9.8 1.3-2 2.7-4.2 4-6.4 3.1-5.1 5.8-10.7 6.7-16.5l0 0c0-.2.1-.3.1-.5.2-1.5.2-3 .1-4.5 4.6-.8 9.7-1.5 15-2 28-2.7 48.4 1.2 79.8 7.6C1010 1107.4 1022.2 1110 1023.3 1115.4z"/><path fill="#548408" d="M997.6 898c-1.9 4.7-3.8 10.7-5.1 17.1-.1.4-.2.9-.3 1.3-1.7 9.1-2.2 18.9.3 27.1.1.4.3.9.4 1.3l0 0c.8 2.4 2 4.7 3.5 6.8-7.8-1.1-15.7-5.7-19.2-12.2-6.8-12.8 8.5-23.5 10.7-52 .9-11.4-.3-26.3-5.5-37.1 3.9 2.5 7.2 5.1 9.8 7.8.3.3.5.5.8.8C1004.1 870.9 1002.8 884.8 997.6 898zM1142.3 1262.1c.2 2.4.2 4.7 0 6.9 0 .4 0 .8-.1 1.2-1.5 17.7-12.9 28-25.4 35.5-.8.5-1.7 1-2.5 1.4 0 0 0 0 0 0-13.9 7.8-28.6 12.5-33 20.1-8 13.6-10.2 25.3-10.7 28.4-.1.5-.1.8-.1.8s-1-1.1-3-2.9c0 0 0 0 0 0-3.7-3.4-10.6-9.3-20.3-15.3-5.7-3.5-12.3-7.1-19.7-10.2-10.8-4.5-23.3-8.2-37.4-9.6-.4-.1-.9-.1-1.3-.1-10.3-.9-21.4-.6-33.2 1.4-11.5 2-21.3 3-29.6 3.2-.4 0-.9 0-1.3 0-24.5.3-36-6.5-42-15.1l0 0c-.1-.1-.2-.3-.3-.5-3.7-5.5-5.2-11.7-6.4-17.2-1-4.4-.2-8.8 2-13.2 16.9 4.5 35.6 29 73.8 30.7 24.7 1.1 22.6-8.8 63.9-14.3 47.2-6.3 65 4.8 83.4-10.6 12.2-10.2 18.5-26.8 17.1-41.7-.6-6.6-2.7-12.6-5.8-18.1C1126.7 1224.9 1140.3 1234.3 1142.3 1262.1zM1051 1165.3c26.1-15.8 47.2-14.5 60-17-.4 2.8-1.2 5.5-2.6 8.1-.1.2-.2.4-.3.6-5.2 9.7-12.6 15.1-20.4 18.4l0 0c-.5.2-.9.4-1.4.6-9.8 3.9-20 4.8-27.2 7.1-.7.2-1.3.4-1.9.7-2.1.8-3.8 1.8-5 3.1-1.4 1.5-2.5 3.7-3.1 6.2-14.4 1.6-25 6.6-27.1 2.6C1019.4 1190.4 1033.9 1175.6 1051 1165.3zM1076.8 1029.4c-1.7 1.9-3.7 3.3-6 4.4-.5.2-1.1.5-1.6.7-12.5 4.8-31.3 1.1-42.6 6.7-.4.2-.8.4-1.2.7l0 0c-1.8 1-3.3 2.3-4.6 4-5.1 6.6-7.6 14.1-7.2 20.9 0 .4 0 .8.1 1.2.4 3.5 1.5 6.8 3.4 9.8-2.9 2.5-5.2 3.9-7.1 2.7-7.7-4.6-1.3-46.3 23.1-57.4C1047.7 1016.4 1064.1 1022.6 1076.8 1029.4zM943 1187.5c.5 1.5 1.1 4.9-4 12.2-2.4-2.4-5.5-4.1-9.3-4.7-1.8-.3-3.5-.7-5.1-1.1-.4-.1-.8-.2-1.1-.3-8.7-2.6-14.5-6.6-25.8-4.7-.4.1-.8.1-1.1.2-7.3 1.5-16.8 5.4-30.7 13.5-2.3 1.4-4.5 2.7-6.7 3.9-1.1.6-2.2 1.3-3.3 1.9-21.6 12.4-38.1 20.5-50.8 19.9-.3 0-.6 0-.9-.1l0 0c-7.8-.6-14-4.7-19-13.2-1.6-2.8-3-5.8-4-9-.1-.2-.1-.4-.2-.6-1.7-5.5-2.5-11.4-2.5-17.4 0-3.8.3-7.7.9-11.5 1.4 3.2 2.7 6.1 4 8.8 7.5 16.3 11.2 24.4 19.4 27.5 21.2 8.1 37.8-28.3 82.6-36.8C910 1171.5 939.3 1175.9 943 1187.5zM896 1082.3c-.6 3-3.5 5.2-7.2 6.8-1.9-4-5.1-8.1-10.2-12.1-2.5-2-5.8-4.4-9.6-7.1l0 0c-.4-.3-.8-.6-1.3-.9-9.7-6.8-22.2-15.4-33.7-24.7l0 0c-.4-.3-.7-.6-1.1-.9-22-18.1-39.7-38.8-25.2-54.9l0 0c.2-.2.3-.4.5-.5 1.9-2.1 3.7-3.9 5.6-5.6-1.6 6.7-2 14.5.9 23 5 14.4 17 23.8 40.7 42C882.1 1067.8 897.5 1074.5 896 1082.3z"/><path fill="#a5a816" d="M965.7,875.9c-0.1,0.5-0.3,1-0.4,1.5l0,0c-1.3,4.2-2.8,8.6-4.4,13.1c-2.3,6.5-4.7,13.2-6.6,20.4
											c-0.9,3.1-1.5,6.7-2.1,10.9c0,0.4-0.1,0.8-0.1,1.1c-1.8,14.7-1.7,35.8,0.1,62c0,0.5,0.1,0.9,0.1,1.4
											c1.1,16.1,2.9,34.1,5.2,53.7l0.2,1.6c2.3,19.2,5.3,39.9,8.8,61.7l0,0c0.1,0.6,0.2,1.2,0.3,1.7l0,0
											c2,12.7,4.2,25.7,6.7,39.1c0.5,2.7,1,5.3,1.5,8c0.1,0.4,0.1,0.8,0.2,1.2c5,24.4,12.4,47.7,20.8,69.3
											c0.1,0.2,0.1,0.4,0.2,0.6c5.8,14.7,12,28.5,18.4,41.4c0.4,0.8,0.8,1.7,1.2,2.5c25.2,50.4,51.7,84.3,55,88.4
											c0.2,0.3,0.3,0.4,0.3,0.4l-0.4,0.4l-0.4,0.4c-0.1-0.1-1-1.2-2.6-3.3c0,0,0,0,0,0c-7-9.1-27.1-36.5-47.5-75.2
											c0-0.1-0.1-0.2-0.2-0.3c-2.1-4.1-4.3-8.2-6.4-12.5c0,0,0-0.1-0.1-0.1c-8.2-16.6-16.3-35-23.3-54.6
											c-0.2-0.4-0.3-0.9-0.5-1.3c-4.3-12.2-8.2-24.8-11.5-37.8c-0.2-0.6-0.3-1.2-0.5-1.8c-2.1-8.3-3.9-16.8-5.5-25.4
											c-4-22.1-7.4-43.4-10.4-63.4c0,0,0,0,0,0c-0.1-0.6-0.2-1.3-0.3-1.9c-4-27-6.9-51.9-8.9-74c0-0.5-0.1-1-0.1-1.5
											c-2.2-24.3-3.1-45.2-2.7-61.7c0-0.4,0-0.9,0-1.3c0.3-12.7,1.5-22.8,3.4-29.9c0.9-3.4,2-6.7,3-9.9c0.1-0.4,0.2-0.7,0.4-1.1
											c1.1-3.2,2.2-6.3,3.3-9.4c7.2-20.5,13-36.8,0.3-48.9l0.4-0.4c0.3,0.1,0.7,0.2,1,0.2c0,0,0,0,0,0
											C970.6,850.5,969.6,862.3,965.7,875.9z"/><path fill="#a5a816" d="M961.8 1081c-.8-.9-85.4-90.6-154.2-92l0-1.1c69.2 1.4 154.1 91.4 155 92.3L961.8 1081zM1081.3 1007.5c-.2-.1-19.7-6.4-44.6-5.4-23 1-55.4 8.7-79.3 39.7l-.9-.7c24.2-31.4 57-39.2 80.2-40.1 25.1-1.1 44.8 5.4 45 5.4L1081.3 1007.5zM1107.6 1157.2c-.2-.2-15.5-23-46-28.9-26.2-5.1-55.5 3.4-87 25.2l-.6-.9c31.8-22 61.4-30.5 87.9-25.4 31 6 46.5 29.2 46.7 29.4L1107.6 1157.2zM978.1 1171.6c-43.3-35.2-94.4-23.9-129.6-8.2-38.3 17.1-66.7 42.9-67 43.1l-.8-.8c.3-.3 28.8-26.2 67.3-43.3 22.6-10.1 44.2-15.2 64.1-15.3 25-.1 47.4 7.9 66.7 23.6L978.1 1171.6zM1019.8 1279c-.4-.1-37.6-8.2-65.9-9.4-28.2-1.2-70.4 38.1-70.8 38.5l-.8-.8c1.7-1.6 42.9-40 71.6-38.8 28.5 1.2 65.8 9.3 66.1 9.4L1019.8 1279zM1132.3 1247.1c-8.1 4.8-24.1 13.6-42.3 20.4-34.5 12.8-61.1 12-76.7-2.2l.8-.8c37.1 33.7 122.3-21.1 123.2-21.7l.6 1C1137.8 1243.7 1135.8 1245 1132.3 1247.1z"/><path fill="#a5a816" d="M804.5 1228.8l-.7-.9c34.7-26.1 28.2-56.8 28.2-57.1l1.1-.3C833.2 1170.9 839.8 1202.3 804.5 1228.8zM874.3 1153.5c0 0 0 .2 0 .5.3 4.2 1.5 33.1-15.3 52.6-1.1.6-2.2 1.3-3.3 1.9 18.7-18.8 17.7-49.1 17.4-54.2 0-.4 0-.7-.1-.7L874.3 1153.5zM926.2 1149c0 0-.1.1-.3.2-3.2 2.2-28.8 20.4-28.3 39.7-.4.1-.8.1-1.1.2-.8-18.8 21.7-35.9 27.7-40.1.8-.5 1.3-.9 1.4-1L926.2 1149zM970.9 1165l.3 1.1c0 0-.1 0-.3.1-3.2.8-35.2 9.5-46.3 27.7-.4-.1-.8-.2-1.1-.3 10.6-17.8 39.7-26.5 46.2-28.3C970.3 1165.2 970.7 1165 970.9 1165zM853.5 1160.1c.1.2.2.4.2.5l-1 .5c0 0-.1-.2-.3-.6-1.5-2.9-9.2-17.1-20.3-25.6.6 0 1.2-.1 1.8-.1C844.8 1143.5 852.1 1157.2 853.5 1160.1zM945.7 1151.8l-1.1.3c-.1-.5-11.4-47.9-54-49.4l0-1.1C934.1 1103 945.6 1151.3 945.7 1151.8zM923.5 1045c0 0-.2.1-.4.3-1.4 1.1-5.9 4.5-12.7 8.5-9.9 5.8-24.6 13-41.3 16l0 0c-.4-.3-.8-.6-1.3-.9 28.1-4.8 50.5-21.4 54.4-24.4.4-.3.6-.5.6-.5L923.5 1045zM888.4 1018.6c-.1.1-.4.3-.9.5-.4.2-.9.5-1.4.9-7.5 4.4-31.1 17.9-52.1 24.2l0 0c-.4-.3-.7-.6-1.1-.9 21.9-6.5 47.4-21.2 53.6-24.9.5-.3.8-.5 1.1-.6l.3-.2.4.6L888.4 1018.6zM1033.2 1088.4c-24.9 15.2-34.8 42.5-37.4 51-.2.6-.3 1.1-.4 1.5-.2.7-.3 1.1-.3 1.1l-1.1-.3 0-.1c.1-.2.2-.7.4-1.5 2-7.1 11.6-36 37.3-52.2C1032.2 1088.1 1032.6 1088.3 1033.2 1088.4zM1073.6 1096c-21.9 7.9-37.4 26.1-41.2 30.8-.6.7-.9 1.1-.9 1.2l-.9-.7c0 0 .1-.1.2-.2 1.8-2.4 17.9-22.9 41.4-31.8 0 0 0 0 0 0C1072.7 1095.6 1073.2 1095.8 1073.6 1096zM1059.2 1183c-.7.2-1.3.4-1.9.7-33.2-9.2-45-44.7-46.5-49.7-.1-.4-.2-.6-.2-.6l1.1-.3c0 0 0 .2.1.5C1013.2 1138.2 1025.1 1174.7 1059.2 1183zM1087.8 1175.3c-.5.2-.9.4-1.4.6-29.4-14.3-28.6-43.8-28.3-48.2 0-.3 0-.5 0-.6l1.1.1c0 0 0 .2-.1.6C1058.9 1132.3 1058.2 1161.6 1087.8 1175.3zM1057.1 1220c-13.9 9.3-19.5 21.1-21.7 30.4-2.8 11.8-.6 22-.1 24 .1.2.1.4.1.4l-1.1.3c0 0-.1-.4-.2-.9-1.3-5.6-6.3-35.7 22.1-54.9C1056.6 1219.5 1056.8 1219.8 1057.1 1220zM1089.8 1223.2c-9.9 13.7-8.3 40.8-7.9 45.8 0 .5.1.8.1.8l-1.1.1c0-.1 0-.3-.1-.6-.4-4.5-2.3-31.3 7.4-45.9l0 0C1088.7 1223.3 1089.2 1223.2 1089.8 1223.2zM1116.8 1305.6c-.8.5-1.7 1-2.5 1.4 0 0 0 0 0 0-32 2.9-47.9-28.5-49.7-32.4-.1-.2-.2-.4-.2-.4l1-.5c0 0 .1.2.3.6C1068 1279.3 1084.3 1310.4 1116.8 1305.6zM1142.3 1268.9c0 .4 0 .8-.1 1.2-19.2 2.6-33.3-9.4-33.4-9.6l.7-.9C1109.7 1259.8 1123.5 1271.6 1142.3 1268.9zM927.2 1275.5l-.8.8c0 0-.1-.1-.3-.3-2.3-2-15.4-13.3-31.8-16.8.4-.3.8-.6 1.2-.9 0 0 0 0 0 0C912.9 1262.4 926.5 1274.7 927.2 1275.5 927.2 1275.4 927.2 1275.5 927.2 1275.5zM987.3 1271.9l.1.2-1 .5c0 0-.2-.4-.6-1-3.3-5.4-20.6-30.9-52.5-36 .4-.3.7-.6 1.1-1C968.2 1240.6 985.6 1269 987.3 1271.9zM938.7 1270.8c0 .2-.1.6-.2 1.3-.9 6.1-4.9 31.7-12.6 50.7-.4 0-.9 0-1.3 0 7.5-18.3 11.6-43.3 12.7-50.3.1-.5.1-1 .2-1.3 0-.3.1-.5.1-.5L938.7 1270.8zM1002.3 1274.7c0 0 .1.3.2.9.8 4 2.9 21.3-12.4 42.7-.4-.1-.9-.1-1.3-.1 16.2-22.3 13-40.1 12.4-42.8 0-.2-.1-.3-.1-.3L1002.3 1274.7zM861.5 1003c0 .1 0 .2 0 .2l-1.1.2c0 0-.1-.4-.2-1-.9-4.2-5-21.1-17.2-34 .5-.1 1-.1 1.4-.1C857.5 982.5 861.1 1000.9 861.5 1003zM906.4 1030.9c0 .1 0 .1 0 .1l-1.1 0c0 0 0-.4 0-1-.3-5.9-2.6-35.7-21.7-58.3.5 0 1 .1 1.5.1C905.1 996.3 906.3 1028.5 906.4 1030.9zM1010.3 961.2c-34.4 22.3-25.7 49.7-24.1 53.7.1.3.2.5.2.5l-1 .5c0 0-.1-.2-.2-.4-1.5-3.7-10.9-31.8 23.7-54.8C1009.4 960.9 1009.8 961 1010.3 961.2zM1045.5 966.2c-16.6 12.5-25.2 32.3-27 36.8-.2.6-.3.9-.4.9l-1.1-.4c0 0 0-.1.1-.3 1-2.6 9.4-23.8 26.7-37.3C1044.5 966.1 1045 966.1 1045.5 966.2zM1026.5 1041.2c-.4.2-.8.4-1.2.7l0 0c-17.1-9.1-22.9-27.4-24.3-32.7-.1-.5-.2-.9-.3-1.1 0-.2-.1-.3-.1-.4l1.1-.2c0 0 0 .1 0 .2 0 .2.1.6.3 1.1C1003.4 1013.8 1009.2 1032.3 1026.5 1041.2zM1070.7 1033.8c-.5.2-1.1.5-1.6.7-24-8.1-32-29.1-33.1-32.4-.1-.3-.1-.4-.1-.4l1.1-.3c0 0 .1.3.2.7C1038.6 1006.1 1046.9 1026.4 1070.7 1033.8zM957 899.8l-.5 1c0 0-.2-.1-.5-.2-3.6-1.7-27.3-13.3-37.4-32.9l0 0c.1-.7.2-1.3.3-2 9.3 19.9 33.5 31.9 37.5 33.7C956.8 899.7 957 899.8 957 899.8zM993 858.8c-4 4.6-10.8 9.2-16.7 12.6-5.4 3.2-10 5.5-11.2 6-.1.1-.2.1-.2.1l-.5-1c0 0 .4-.2 1.1-.6 4.4-2.2 20-10.3 26.6-18C992.5 858.2 992.8 858.5 993 858.8zM950.4 940.9l-.5 1c0 0-.1-.1-.3-.2-1.6-.9-9.8-5.4-17.9-11.9-.1-.6-.2-1.1-.3-1.7 7.7 6.3 15.7 11 18.2 12.3C950.1 940.7 950.4 940.9 950.4 940.9z"/><g><path fill="#a5a816" d="M992.6,915.1c-0.1,0.4-0.2,0.9-0.3,1.3c-18.1,6.4-37,6.6-40.3,6.6c-0.3,0-0.5,0-0.5,0l0-1.1
										c0,0,0.2,0,0.6,0C955.7,921.8,974.7,921.6,992.6,915.1z"/></g><g><path fill="#a5a816" d="M992.6,943.5c0.1,0.4,0.3,0.9,0.4,1.3l0,0c-13.9,19.2-38.1,39.2-40.9,41.5c-0.2,0.1-0.3,0.2-0.3,0.2
										l-0.7-0.9c0,0,0.3-0.3,0.9-0.7C956.8,981,979.6,961.7,992.6,943.5z"/></g><g><path fill="#a5a816" d="M953.3,1004.1l-0.6,1c0,0-0.1,0-0.2-0.1c-2.1-1.4-21.3-14.4-29.5-38.6c0.3-0.2,0.7-0.4,1-0.6
										c7.5,22.2,24.3,34.9,28.4,37.7C952.9,1003.9,953.2,1004.1,953.3,1004.1z"/></g><g><path fill="#a5a816" d="M1013.6,1066.8c0,0.4,0,0.8,0.1,1.2c-29.8,7.5-45.7,34.5-47.1,37c-0.1,0.1-0.1,0.2-0.1,0.2l-1-0.5
										c0,0,0.3-0.5,0.8-1.4C969.9,1097.3,985.9,1073.8,1013.6,1066.8z"/></g><g><path fill="#a5a816" d="M990.5,1209.5l-0.3,1.1c0,0-0.1,0-0.2-0.1c-2.7-0.6-28.1-6.2-46.3-1.7c-0.1-0.4-0.2-0.8-0.3-1.1
										c17.6-4.3,41,0.4,46.1,1.6C990.1,1209.4,990.4,1209.5,990.5,1209.5z"/></g><g><path fill="#a5a816" d="M1048.5,1197.3c0,0.4,0,0.7,0,1.1c-27.2,2.3-51.8,24.9-52.1,25.2l-0.4-0.4l-0.4-0.4
										c0,0,0.1-0.1,0.2-0.2C998,1220.6,1022,1199.5,1048.5,1197.3z"/></g></g><g><path fill="#ff751e" d="M1494.1,900.3c-0.4,0.2-0.6,0.3-0.6,0.3s-0.4-0.3-1.2-1c-4.4-4.1-19.9-21.3-21.8-63
										c0,0-0.8-14.5-3-23c-0.3-1.4-0.7-2.7-1.2-3.7v0c0,0,0,0,0,0c0.1,0,0.6,0.2,1.3,0.5h0c5.2,2.1,24,12.1,31.1,45.8
										C1506.1,890.4,1496.6,898.7,1494.1,900.3z"/><path fill="#ffa21e" d="M1488.5,968.3L1488.5,968.3c-1.4,6.3-3.2,12.7-5.3,19.2c-0.3,0.9-0.5,1.7-0.8,2.6
										c0,0.1,0,0.1-0.1,0.1c-0.6,1.9-1.3,3.9-2,5.9c-6.7,18.8-16.5,36.2-29.4,52.8c-0.1,0.1-0.2,0.2-0.3,0.3
										c-0.7,0.8-1.3,1.7-2,2.5c0,0,0,0,0,0v0c-0.1,0-0.1,0.1-0.1,0.1c-0.2,0.3-0.5,0.6-0.8,1c-18.4,22.7-42.8,44-73.4,65.6
										c0,0,0,0-0.1,0c-0.1,0-0.1,0.1-0.1,0.1c-3.2,2.3-6.5,4.5-9.9,6.8c-0.6,0.4-1.2,0.8-1.7,1.2c-0.1,0.1-0.2,0.2-0.3,0.2
										c-32.5,21.8-71.2,44.1-116.6,68.5c-19.7,10.6-36.3,23.5-50.4,37.6c-1,1-2,2-2.9,3c-0.4,0.4-0.8,0.8-1.2,1.2
										c-0.1,0.1-0.1,0.1-0.2,0.2c-14.9,15.8-26.7,32.9-36,49.6c-2.6,4.6-4.9,9.2-7.1,13.7c-5.5,11.2-9.8,22.1-13.4,32.1
										c-16.6,47.3-17.9,87-18,87.3l-1.7-0.1c0-0.4,1.4-40.3,18.1-87.9c3-8.5,6.6-17.5,10.9-26.9v0c0.1-0.2,0.2-0.4,0.3-0.7
										c0.5-1.1,1.1-2.2,1.6-3.4v0c3.5-7.3,7.5-14.8,12-22.3c0,0,0-0.1,0-0.1c18.8-31.5,46.5-63.2,87.2-85.1
										c14-7.5,27.4-14.9,40.1-22c0,0,0.1,0,0.1-0.1c1.1-0.6,2.2-1.3,3.3-1.9v0c5.3-3,10.4-5.9,15.4-8.8l0.1-0.1c0,0,0,0,0,0
										c65-37.7,112.2-71.6,142.9-109.5c0.1-0.1,0.2-0.2,0.2-0.3v0c0.7-0.8,1.3-1.6,1.9-2.4v0c2.6-3.3,5-6.6,7.4-9.9
										c9.5-13.7,17-28,22.4-43.2c12.8-35.8,15.6-68.4,13.6-95.8c-3.2-44.3-18.7-75.5-24.8-86.1c-0.3-1.4-0.7-2.7-1.2-3.7l0,0
										c0.1,0,0.6,0.2,1.3,0.5h0c4.6,7.7,23,40.9,26.4,89.9C1495.5,920.5,1494.3,943.4,1488.5,968.3z"/><path fill="#ff751e" d="M1536.2 933.9c0 0-.2.6-.6 1.6-4.3 10.6-30 70-53.2 54.6 0 0 0 0-.1-.1-.3-.2-.5-.3-.8-.6 0 0 .1-.4.2-1.1.6-2.9 2.6-11 6.8-20.1l0 0c7.2-15.5 21.1-34 46.3-34.3C1535.3 933.9 1535.8 933.9 1536.2 933.9zM1456.3 1038.6c-1.3 3.6-3.1 7-5.3 10.2-.1.1-.2.2-.3.3-.7.8-1.3 1.7-2 2.5 0 0 0 0 0 0v0c-.1 0-.1.1-.1.1-.3.3-.6.7-.9 1 0 0-.3-.4-.8-1.1-.1-.1-.1-.2-.2-.3-4.6-7.1-22.6-39.7 6-69.4.3-.3.6-.7.9-1 0 0 .3.7.7 2.1C1456.9 990.5 1464.4 1017.1 1456.3 1038.6zM1439.4 1106.9c-.8 1.1-1.6 2.1-2.4 3.1-29.7 36.2-65.7 20.9-73.3 17.1-.5-.2-.8-.4-1.1-.6-.2-.1-.4-.2-.4-.2l1.2-.9c3.6-2.7 7.2-5 10.9-6.9 0 0 0 0 .1 0 28.7-15.7 58-12.5 63.9-11.7C1439.1 1106.8 1439.4 1106.9 1439.4 1106.9zM1303.9 1160.8C1303.9 1160.8 1303.9 1160.8 1303.9 1160.8c-4.5 4-10.1 7.7-16.9 10.9-.5.2-1 .5-1.6.7 0 0-.2-.3-.4-.8 0 0 0 0 0-.1-2.3-5.2-11.2-32.6 33.4-69.8.3-.2.6-.5.8-.7l0 0c0 0 .3 1 .8 2.8C1322.2 1112.6 1326.6 1140.6 1303.9 1160.8zM1268.6 1228c0 0-.5.3-1.4 1-8.8 5.8-56.4 35.1-75.7 8.4-.1-.1-.2-.2-.2-.3-.2-.3-.4-.5-.6-.8l0 0c.1-.1.4-.3.8-.7.8-.6 2.1-1.6 3.8-2.8 12.2-8.3 45.6-27.3 72.3-5.6C1267.9 1227.4 1268.2 1227.7 1268.6 1228L1268.6 1228zM1157.7 1278.8c-.7 2.6-1.6 5.3-2.7 8.1-1.8 4.4-4.1 8.9-7.1 13.7-.7 1.1-1.5 2.3-2.3 3.5-.3.4-.6.9-.9 1.3l0 0c-.1-.1-.3-.3-.5-.8-.1-.1-.2-.3-.3-.4-4-6.2-20.5-35.7 3.3-70.1l.9-1.3 0 0c.1.1.4.4.8.9C1152.1 1237.7 1164.1 1254.1 1157.7 1278.8z"/><path fill="#ffa21e" d="M1148 1232.8L1148 1232.8c.1.1.4.4.8.9l-3.2 67.5v0l-.1 2.9-.1 1.3-.9 0 0 0-.8 0v-.1 0l.1-1.1 3.3-70.1L1148 1232.8zM1268.6 1228c0 0-.5.3-1.4 1-6.7.4-34.2 2.5-43.1 8-3.7 2.2-8.7 3-13.7 3-8 0-16.1-1.9-18.9-2.7-.1 0-.3-.1-.4-.1-.3-.1-.6-.2-.6-.2l.2-.8 0 0 .2-.8c0 0 .2.1.6.2.2.1.5.1.9.2 5.1 1.3 22.3 4.9 30.7-.3 9.7-6 38.7-8 44.5-8.3C1267.9 1227.4 1268.2 1227.7 1268.6 1228L1268.6 1228zM1320.1 1103.8c-1.8 20.2-24.4 55.1-31.7 65.9v0c-.6.8-1 1.5-1.4 2-.5.6-.8 1.1-.9 1.2l-.7-.5-.7-.5c0 0 .1-.1.2-.3 0 0 .1-.1.1-.1 3.2-4.6 33.1-48.3 33.4-69.8.3-.2.6-.5.8-.7l0 0C1319.4 1101 1319.7 1102 1320.1 1103.8zM1439.4 1106.9c-.8 1.1-1.6 2.1-2.4 3.1-19.2 13.8-64.5 16.6-73.3 17.1-.8.1-1.2.1-1.4.1l0-.4-.1-1.3c.1 0 .5 0 1.3-.1.3 0 .5 0 .9 0 10.6-.6 57.6-4.1 74-18.6C1439.1 1106.8 1439.4 1106.9 1439.4 1106.9zM1454.4 983l-5.4 65.5v0l-.3 3.1v0l-.1 1.1-.8-.1h-.1l-.9-.1.1-1.1.1-.6v0l5.7-69.1c.3-.3.6-.7.9-1C1453.7 981 1454 981.7 1454.4 983zM1536.2 933.9c0 0-.2.6-.6 1.6-4 3.2-17.3 14.4-26 28.2-9.4 15.1-24.4 24.6-27.2 26.3-.1 0-.1 0-.1.1-.2.1-.3.2-.4.2l-.4-.8-.4-.7c0 0 .2-.1.6-.4.4-.2.9-.6 1.5-1 4.9-3.2 16.9-11.8 24.9-24.6 9-14.5 23-26 26.7-28.9C1535.3 933.9 1535.8 933.9 1536.2 933.9z"/><g><path fill="#005e24" d="M801.2 1244.8c-.1.4-.2.8-.3 1.2-12.1 48.3-73.1 36.2-86.3 33-1.5-.4-2.4-.6-2.5-.7l0 0c.1-.3.3-.6.4-.9 24.8-54.4 71.3-45.7 80-43.6.9.2 1.4.4 1.4.4l3.3 4.8.5.7L801.2 1244.8zM563.3 1034.8c-.4 1-.6 1.5-.6 1.5s-.3-.2-1-.7c-5.4-3.6-31.5-22.6-40-53-9.1-32.7.3-62.7 2.5-68.8.2-.7.4-1.1.4-1.2l0 0c0 0 .4.1 1.3.7 2.9 2.1 11.6 10.4 30.6 42C578.5 991.9 566.3 1027.3 563.3 1034.8z"/><path fill="#3d8608" d="M886.9,1446l-1.4,1c-0.4-0.5-36.7-51.3-65.2-156.6c-4.6-16.8-11.2-31.6-19.4-44.5
										c-1.2-2-2.5-3.9-3.8-5.8c-0.3-0.5-0.7-0.9-1-1.4c-1.2-1.7-2.4-3.3-3.6-4.9c-37.3-48.7-95.9-68-128.1-78.6
										c-6.3-2.1-11.8-3.9-15.9-5.5c-6.9-2.8-16.8-7.4-27.4-14.8c-0.1-0.1-0.2-0.2-0.4-0.2c-0.7-0.4-1.3-0.9-2-1.4
										c-2.7-1.9-5.4-4.1-8.2-6.3c-20.6-17.2-41.4-44.6-48.2-87.3c-0.2-1.3-0.4-2.7-0.7-4c-10-58.7-34.2-114.5-37.5-121.8
										c0.2-0.7,0.4-1.1,0.4-1.2l0,0c0,0,0.4,0.1,1.3,0.7c3.7,8.3,27.4,63.4,37.4,121.4c0.3,1.5,0.5,3,0.7,4.5
										c11.4,72,63.3,100,85.1,108.7c4,1.6,9.5,3.4,15.8,5.5c11.6,3.8,26.7,8.8,43,15.9c0,0,0,0,0,0c6.2,2.7,12.6,5.7,19.1,9.1
										c0.5,0.3,1,0.5,1.6,0.8c0.2,0.1,0.4,0.2,0.7,0.4c38,20.3,77.4,53.4,92.7,110.3c2.3,8.4,4.6,16.4,6.9,24.1c0,0,0,0,0,0
										c0,0,0,0.1,0,0.1c0,0,0,0,0,0c0.4,1.4,0.9,2.8,1.3,4.2c0.1,0.2,0.2,0.5,0.2,0.7C857.1,1404.3,886.6,1445.6,886.9,1446z"/><path fill="#005e24" d="M621.4 1134c-.2.2-.4.4-.7.6-.1.1-.2.2-.3.3-41.1 38.9-98.3.3-111.2-9.3-1.7-1.3-2.7-2.1-2.7-2.1.4-.2.8-.3 1.2-.4 49.5-18.7 85.8-5.6 102.8 3.8 4.9 2.7 8.2 5.1 9.8 6.3C621.1 1133.8 621.4 1134 621.4 1134zM728.6 1179.4c0 .3 0 .6 0 .9 0 0-.4-.1-1.1-.4-2.7-1.1-10.5-4.4-19.5-10.4 0 0 0 0 0 0-18.9-12.5-43.3-36.5-38.4-75.3 0-.4.1-.8.1-1.2v0c0 0 0 0 0 0 .1 0 .6.2 1.5.5 9.2 3.2 56.9 22.8 57.3 84.3C728.6 1178.3 728.6 1178.9 728.6 1179.4zM883.9 1237.5c0 0-.1.5-.2 1.5-1.7 12.6-15 100.6-53.2 80.2-.4-.2-.7-.4-1.1-.6h0c0 0-.3-1.5-.4-4.2v-.2c0 0 0 0 0 0-1-14.8 0-62.6 53.4-76.3C882.9 1237.7 883.4 1237.6 883.9 1237.5z"/><path fill="#3d8608" d="M621.4 1134.9c-.1 0-.2 0-.3 0-.2 0-.4 0-.6 0-2.9.1-11.7.4-23.2.4-26.2 0-66.9-1.4-88-9.7-1.7-1.3-2.7-2.1-2.7-2.1.4-.2.8-.3 1.2-.4 27.1 12 96.6 10.6 111 10.1.7 0 1.2-.1 1.6-.1.6 0 .9 0 1 0l0 .9L621.4 1134.9zM729.4 1180.1l-.8.3-.8.3c-.1-.2-.2-.4-.2-.7-.1-.4-.3-.9-.5-1.3-9.8-26.8-52.3-78.2-57.5-84.4 0-.4.1-.8.1-1.2l0 0c.1 0 .6.2 1.5.5 6.7 8 47.4 57.5 57.3 84.3.3.7.5 1.3.7 2C729.3 1179.9 729.4 1180 729.4 1180.1zM797.8 1239.7C797.8 1239.7 797.7 1239.7 797.8 1239.7c-.1.1-.3.2-.6.4-6.2 4.4-51.5 35.7-82.5 38.8-1.5-.4-2.4-.6-2.5-.7l0 0c.1-.3.3-.6.4-.9 30.2-1.8 77.7-34.5 83.6-38.7.4-.3.6-.4.6-.4l.5.7L797.8 1239.7zM883.9 1237.5c0 0-.1.5-.2 1.5-6.8 7.4-53.8 59-53.4 79.5v.1l-.8 0h0l-.9 0c0-1.3.1-2.7.4-4.2 0 0 0 0 0-.1 0 0 0 0 0 0 4.7-23.2 46.3-68.8 53.4-76.4C882.9 1237.7 883.4 1237.6 883.9 1237.5z"/></g></g><g><path fill="#3e1c2e" d="M963.7,1195.2c0,0-16.1-4.7-25.1,4c-9.1,8.7-52.6,46.5-24.7,89.4c27.9,43,14.1,43.6,44.2,42.4
									c30.1-1.2,54.5-2.9,54.5-2.9L985,1216.6L963.7,1195.2z"/><path fill="#b53600" d="M853.4 1695.8L853.4 1695.8c-4.9 0-9-4-9-9v-113.8c0-4.9 4-9 9-9h0c4.9 0 9 4 9 9v113.8C862.4 1691.8 858.4 1695.8 853.4 1695.8zM1031 1695.8L1031 1695.8c-4.9 0-9-4-9-9v-113.8c0-4.9 4-9 9-9l0 0c4.9 0 9 4 9 9v113.8C1040 1691.8 1036 1695.8 1031 1695.8z"/><path fill="#f35100" d="M799.5,1548.1c-0.6,0.7-1.1,1.8-1.6,3.4c-1,4,0.1,8.5,2.4,11.8c3.3,4.9,8.7,7.9,14.2,10.1
										c19.9,8,42.2,6.7,63.6,7c27.7,0.4,55.4,3.7,83.1,2c30.5-1.9,60.5-9.9,91.1-11c7.2-0.3,14.9-0.2,21.1-3.9
										c6.2-3.7,9.8-12.8,5.2-18.3c-3.4-4.1-9.5-4.5-14.9-4.5c-75-0.6-149.9-0.2-224.9,1.3c-10.9,0.2-21.7,0.4-32.6,0.7
										C802.9,1546.6,800.9,1546.5,799.5,1548.1z"/><path fill="#f37700" d="M848,1532.3c-10.3,0-20.7,1.3-30.7,4c-11.4,3.1-22.8,8.2-19.1,15.6c6.8,14,40.6,19.5,77.6,19.6
										c37,0,198.4-0.5,204.3-16.9c5.9-16.3-30.5-21.7-54.8-22.3C1007.5,1531.9,884.8,1532.2,848,1532.3z"/><path fill="#ffc81e" d="M936.2,1308.6c0,0,11,13.6,20.3,0c0,0,31.4,4.3,37.6,8.2c6.2,3.9,34.3,133.8,34.3,133.8H878.1
										c0,0,5.8-130.7,15.2-136.2C902.7,1308.9,936.2,1308.6,936.2,1308.6z"/><path fill="#3e1c9f" d="M850,1536.5c0,0,36.1-74.5,39.1-73.8c3.1,0.7,108,2.2,108,2.2s28,54.7,32.1,71.9l-30.9,20.2
											l-116-0.2L850,1536.5z"/><path fill="#3e1c9f" d="M850 1536.5c8.5-19 24.8-46.1 51-54.6 0 0 34.6-22 36.5 15.9 2 38-36.5 59.2-36.5 59.2l-36.7-.5C853.3 1556.4 845.8 1545.9 850 1536.5zM1029.2 1536.8c-8.5-19-25.5-46.6-55.9-61.4 0 0-22.1 1.8-20.1 22.3 2 20.5 25 59.2 25 59.2h36.5C1026 1557 1033.6 1546.4 1029.2 1536.8z"/><g><path fill="#ea8e7f" d="M960,1314.4l-5.6-39.1l-20,2.8l2.1,36.3C936.6,1314.4,952.6,1323.8,960,1314.4z"/><path fill="#ffa58d" d="M955.6,1198.5c0,0-31,17-39,48.1c-6.5,25.3,13.1,45,38.8,35.8c25.7-9.1,32.1-20.6,31.4-35.7
										C984,1181,955.6,1198.5,955.6,1198.5z"/><path fill="#ea7a5c" d="M933.3,1273.5c-6.3,0-10-3.3-10.1-3.4c-0.7-0.6-0.7-1.7-0.1-2.4c0.6-0.7,1.7-0.7,2.4-0.1
										c0.4,0.3,8.7,7.5,22.1-3.8c0.7-0.6,1.8-0.5,2.4,0.2c0.6,0.7,0.5,1.8-0.2,2.4C943.3,1271.8,937.7,1273.5,933.3,1273.5z"/><ellipse cx="947.5" cy="1237.6" fill="#3e1c3d" rx="7.1" ry="3.7" transform="rotate(-49.489 947.593 1237.553)"/><ellipse cx="931.8" cy="1225.5" fill="#3e1c3d" rx="7.1" ry="3.7" transform="rotate(-49.489 931.862 1225.535)"/><path fill="#ea7a5c" d="M940.4,1227.9c0,0-17.6,10.5-25.6,11.9c-3.6,0.7,6.6,15.4,9.6,13
										C927.4,1250.5,940.4,1227.9,940.4,1227.9z"/><path fill="#671c54" d="M961.6 1233.1c-.3 0-.5-.3-.6-.6-.7-5.4-8.8-7.8-8.9-7.8-.3-.1-.5-.5-.4-.8.1-.3.4-.6.8-.4.4.1 8.9 2.6 9.8 8.8 0 .4-.2.7-.6.7C961.7 1233.1 961.7 1233.1 961.6 1233.1zM943 1219.6C943 1219.6 942.9 1219.6 943 1219.6c-.4 0-.8-.2-.8-.6 0-.2-.4-4.4-4.5-5.5-.3-.1-.5-.5-.4-.8.1-.3.5-.5.8-.4 4.9 1.4 5.4 6.4 5.4 6.6C943.5 1219.2 943.3 1219.5 943 1219.6z"/><path fill="#671c54" d="M1177.6,1435.7c-7-0.5-13.6,1.2-19.5,4.3c-13.2,6.7-23.4,19.7-29.1,28.2c-3.7,5.5-9.9,8.8-16.5,8.9
										c-90.2,1.4-116.5-109.1-149.6-137.1c-42-35.5-19.6-42.7-2.9-74.3c9.3-17.4-5.8-25.5,5.2-49.3c7-15.2-9.6-18-9.6-18
										c6.4-3.2,12.3-4.8,17.8-4.8c19.3-0.3,33.4,18,46,52c16.2,43.6,40.8,102.6,84.5,149.4s89.4,19.1,89.4,19.1
										C1195.7,1417.6,1208.8,1438.1,1177.6,1435.7z"/><ellipse cx="942.1" cy="1251.8" fill="#ff998d" rx="4.6" ry="10.6" transform="rotate(-82.825 942.034 1251.78)"/><path fill="#7e1c54" d="M1177.6,1435.7c-7-0.5-13.6,1.2-19.5,4.3c-25.1-4-46.7-16.7-53.1-20.7
								c-79.2-49.2-105-164.4-104.8-189.3c0-1.8,0.2-8.7-3.4-16.2c-5.3-11-15.7-17-23.4-20.1c19.3-0.3,33.4,18,46,52
								c16.2,43.6,40.8,102.6,84.5,149.4s89.4,19.1,89.4,19.1C1195.7,1417.6,1208.8,1438.1,1177.6,1435.7z"/></g><g><path fill="#f31c00" d="M1069.6,1359.9l-8.3,121.7l-1.3,18.5H838.2l-2.7-18.5l-17.4-121.1c-0.7-4.8,3-9.1,7.9-9.1h235.7
										C1066.3,1351.4,1069.9,1355.3,1069.6,1359.9z"/><polygon fill="#d51500" points="1061.3 1481.5 1060 1500 838.2 1500 835.5 1481.5"/><circle cx="943.5" cy="1425.7" r="14.3" fill="#d51500"/></g><g><path fill="#ff5c1e" d="M933.6,1778c0,0-4.3-3.2-7.9-3.4c-3.6-0.2-52.3,0-52.3,0l20.4,11.1L933.6,1778z"/><path fill="#ffa58d" d="M877.9,1768.2c0,0,11.4-2.2,16.6-7.4s1.6-34.6,1.6-34.6s26.7-8.8,25.3-2.7
									c-5.5,23.3,5.3,36.9,5.3,36.9c1.2,4.5-1.3,9.2-5.7,10.8l-29.3,10.6l-28.4-11.1L877.9,1768.2z"/><path fill="#ff841e" d="M934.5,1785.9c0,0-49,3-55.9,3c-6.9,0-36.5,2-37.7-1.6c-1.2-3.5-0.1-8.1,0-8.5l0,0
									c0,0,13.2-30.2,38.3-13.6c0,0,3.5,13.2,8.9,13.6h0c5.6,0.4,39-1.4,44.3-1C937.7,1778.2,934.5,1785.9,934.5,1785.9z"/><path fill="#ff751e" d="M934.5,1785.9c0,0-49,3-55.9,3c-6.9,0-36.5,2-37.7-1.6c-1.2-3.5-0.1-8.1,0-8.5l0,0c0,0,41.3,0,47.3,0
									h0c5.6,0.4,39-1.4,44.3-1C937.7,1778.2,934.5,1785.9,934.5,1785.9z"/><g><path fill="#5709dc" d="M935.5,1721.7c0,7.7,0,12.2,0,12.2s-46.8,10.7-56.7,3.3c0,0-0.3-3.8-0.8-10.4
										c-3.7-49.3-16.4-257,34.8-250.3c0,0,22.8-5.5,22.8,51.2C935.5,1574.6,935.5,1684.9,935.5,1721.7z"/></g><g><path fill="#3e1c9f" d="M935.5,1721.7c0,7.7,0,12.2,0,12.2s-46.8,10.7-56.7,3.3c0,0-0.3-3.8-0.8-10.4
								C892.6,1728.5,924.6,1723.5,935.5,1721.7z"/></g></g><g><path fill="#ff5c1e" d="M999.1,1780.4c0,0,6.2-10.7,6.2-12.5c0-1.8-13-3.6-19.6-2.1C979.2,1767.3,999.1,1780.4,999.1,1780.4z
										"/><path fill="#ffa58d" d="M998.2,1726.3c0,0-7.4,12.3-2.9,19.4c4.5,7.1,4.2,8.1,2.9,10.6c-1.3,2.6-1.8,13.5-1.8,13.5
										s-19.9,2.6-22-1.3c-2.1-3.9,4.1-36.8-2.1-42.3H998.2z"/><path fill="#ff841e" d="M999.1,1785.3c0,0-37.2,1.3-38.9-0.8c-3.7-4.6-0.8-9,0-10.1l0.2-0.2c0,0,5.8-17.1,22.5-14
										c16.7,3.1,14.9,12,16.3,15.8c0.2,0.5,0.3,1,0.4,1.5l0,0C1000.4,1781.4,999.1,1785.3,999.1,1785.3z"/><path fill="#ff751e" d="M999.1,1785.3l6.2-12.5v-4.9c0,0-8.4,13.5-7.6,14C998.5,1782.4,999.1,1785.3,999.1,1785.3z"/><path fill="#ff751e" d="M999.1,1785.3c0,0-37.2,1.3-38.9-0.8c-3.7-4.6-0.8-9,0-10.1l0.2-0.2c0,0,9.4,7.2,39.2,3.3l0,0
										C1000.4,1781.4,999.1,1785.3,999.1,1785.3z"/><g><path fill="#5709dc" d="M1019.1,1729c-13.2,16.4-66.5,4.9-66.5,4.9s-0.1-4.4-0.2-11.8c-0.7-42.6-2.8-186.8-0.3-208.4
											c2.9-25.5,17.8-50,38.8-33c18.5,14.9,26.3,195.5,28,239C1019,1725.6,1019.1,1729,1019.1,1729z"/></g><g><path fill="#3e1c9f" d="M1019.1,1729c-13.2,16.4-66.5,4.9-66.5,4.9s-0.1-4.4-0.2-11.8c7.5,1.8,41.2,9.1,66.4-2.5
								C1019,1725.6,1019.1,1729,1019.1,1729z"/></g></g></g></g></switch></svg>